<svg viewBox="0 0 291.4 114" xmlns="http://www.w3.org/2000/svg"><clipPath id="a"><path d="M208.2 82c1.2-.5 2.3-.9 3.4-1.4C258 60.7 275.8 23.7 276 14.4c.1-7-41.7-16.9-51.2-13.8-2 .7-2.6 1.9-1 3.8 23.4 30.1 5.8 56.5-6.6 69.4-2.9 3-6 5.8-9.3 8.3z"/></clipPath><radialGradient id="b" cx="-197.011" cy="-1078.045" gradientTransform="scale(-54.14 54.14) rotate(-7.22 8446.846 -2059.438)" gradientUnits="userSpaceOnUse" r="1.55"><stop offset="0" stop-color="#f9c711"/><stop offset=".18" stop-color="#ffc715"/><stop offset=".59" stop-color="#ffc113"/><stop offset=".77" stop-color="#fcb324"/><stop offset="1" stop-color="#fcb324"/></radialGradient><path d="M12.2 26.4v46.1H1.7V26.4zm17.9 12.7v4.6h.2c1.1-1.8 2.8-3.3 4.7-4.2s3.9-1.3 5.9-1.3c2.1-.1 4.3.3 6.3 1 1.5.6 2.8 1.5 3.8 2.8s1.7 2.8 2 4.3c.4 1.9.6 3.7.6 5.6v20.5H44V53.6c0-2.8-.4-4.8-1.3-6.2s-2.5-2-4.8-2c-2.6 0-4.5.7-5.7 2.2s-1.8 3.9-1.8 7.3v17.5H21V39.1zm40.8-12.7v16.8h.1c1.2-1.7 2.8-3 4.7-3.8 2-.8 4.1-1.2 6.3-1.2 1.8 0 3.5.3 5.2 1s3.3 1.8 4.6 3.2c1.5 1.6 2.6 3.4 3.3 5.5.9 2.5 1.3 5.2 1.2 7.9.1 2.7-.4 5.4-1.3 7.9-.7 2-1.9 3.9-3.3 5.4-1.3 1.4-2.9 2.4-4.6 3.2-1.6.7-3.4 1-5.2 1-2.3 0-4.7-.4-6.9-1.2-2-.7-3.6-2.1-4.6-3.9h-.1v4.3h-9.1v-46h9.7zm15.4 25.3c-.3-1.2-.8-2.4-1.5-3.4s-1.5-1.8-2.5-2.3c-2.3-1.2-5-1.2-7.3 0-1 .6-1.9 1.4-2.6 2.3-.7 1-1.2 2.2-1.5 3.4-.3 1.3-.5 2.7-.5 4.1 0 1.3.2 2.7.5 4 .3 1.2.8 2.4 1.5 3.4.6 1 1.5 1.8 2.5 2.4 2.3 1.2 5 1.2 7.3 0 1-.6 1.9-1.4 2.5-2.3.7-1 1.2-2.2 1.5-3.4.3-1.3.5-2.7.5-4 .1-1.5-.1-2.9-.4-4.2zm25-12.6v6.2h.1c.9-2.1 2.5-3.9 4.4-5.1 1-.6 2-1.1 3.2-1.4 1.1-.4 2.3-.5 3.5-.5.7 0 1.4.1 2.1.3V47c-.4-.1-1-.2-1.6-.2s-1.2-.1-1.8-.1c-1.5 0-3 .2-4.4.8-1.1.5-2.2 1.3-2.9 2.3-.8 1-1.3 2.2-1.6 3.4-.3 1.4-.5 2.8-.5 4.2v15h-9.5V39.1zm20.5-5.2v-7.6h9.5v7.6zm9.5 5.2v33.4h-9.5V39.1zm28.5 4.9c1-1.4 2.3-2.6 3.8-3.4 1.6-.9 3.3-1.5 5.1-1.9 1.9-.4 3.8-.6 5.8-.6 1.8 0 3.5.1 5.3.3 1.7.2 3.4.7 4.9 1.4 1.4.6 2.7 1.6 3.6 2.9 1 1.4 1.5 3.2 1.4 4.9V65c0 1.4.1 2.9.3 4.3.1 1.1.4 2.1.9 3.1h-9.7c-.2-.5-.3-1.1-.4-1.6s-.2-1.1-.2-1.6c-1.5 1.5-3.3 2.6-5.4 3.2s-4.2.9-6.3.9c-1.6 0-3.1-.2-4.6-.6-1.4-.3-2.6-1-3.8-1.8-1.1-.8-1.9-1.9-2.5-3.1-.6-1.4-1-2.9-.9-4.4-.1-1.6.3-3.2 1-4.7.7-1.2 1.6-2.2 2.7-3 1.2-.8 2.4-1.3 3.8-1.6 1.4-.4 2.8-.7 4.3-.9 1.4-.2 2.9-.4 4.2-.5 1.2-.1 2.5-.3 3.7-.6.9-.2 1.8-.6 2.6-1.1.6-.5 1-1.3.9-2.2 0-.8-.1-1.6-.5-2.4-.3-.6-.8-1-1.3-1.3-.6-.3-1.3-.6-2-.7-.8-.1-1.6-.2-2.4-.2-1.6-.1-3.1.3-4.4 1.2-1.2 1-1.8 2.4-1.9 3.9H168c.1-1.9.7-3.8 1.8-5.3zm18.8 12.9c-.6.2-1.3.4-1.9.5-.7.1-1.4.2-2.2.3s-1.5.2-2.3.3c-.7.1-1.4.3-2.1.5-.6.2-1.3.5-1.8.9s-.9.8-1.2 1.4c-.3.7-.5 1.4-.5 2.1s.1 1.4.5 2.1c.3.5.7 1 1.3 1.3s1.2.6 1.9.7 1.5.2 2.2.2c1.5.1 3-.2 4.4-.9.9-.5 1.7-1.3 2.3-2.2.5-.8.8-1.6.9-2.5.1-.7.2-1.4.2-2.1v-3.4c-.6.4-1.1.6-1.7.8zm93.9-40.2h-1.6v-.9h4.2v.9h-1.6v4.1h-1zm3.7-.9h1.1l1.6 2.4 1.6-2.4h1v5h-1v-3.5l-1.5 2.4h-.1l-1.6-2.4v3.6h-1zM145.7 75.9c2.1-.1 5.7-.6 5.7-3.9V39.2h9.6v33.3c0 10.6-14.6 9.8-15.3 9.6zm5.7-42v-7.6h9.6v7.6zM3.5 83c-1.1 4.7-1.7 9.5-1.8 14.4 0 4.9.6 9.8 1.8 14.6H2.2c-1.3-4.6-2-9.3-2.2-14.1.1-5 .9-10.1 2.3-14.9zm3.1 24.6V83.7h1.6v23.9zm6.1-7.9v1.3c0 2.3.5 5.4 3 5.4 2 0 3-1.6 3-3.8h1.7c-.2 4-1.9 5.4-4.6 5.4-2.3 0-4.6-1.2-4.6-6.2v-4.1c0-4.8 1.6-7.1 4.6-7.1 4.6 0 4.6 4.1 4.6 9.1zm6.1-1.6c0-3.7-.5-5.9-3-5.9s-3 2.2-3 5.9zm8 7l3.3-14.2h1.5l-4 16.7h-1.8l-4-16.7h1.7zm6.2-4v-3.6c0-4.3 1.5-6.9 4.6-6.9s4.6 2.6 4.6 6.9v3.6c0 4.3-1.5 6.9-4.6 6.9s-4.6-2.6-4.6-6.9zm1.6-1.9c0 4.4.4 7.1 3 7.1s3-2.8 3-7.1-.4-7.1-3-7.1-3 2.8-3 7.1zm17.6 6.3c-.9 1.6-1.9 2.4-3.5 2.4-3.9 0-4.1-4.8-4.1-8.7 0-3.2 0-8.7 4.1-8.7 1.4.1 2.6.8 3.2 2h.1v-8.8h1.6v20.6c0 1.1 0 2.2.2 3.3h-1.5zm-.1-4.7v-3c0-1 0-5.6-3-5.6s-2.9 3.2-2.9 7.2c0 6.2 1.2 7.1 2.9 7.1 1.6-.1 3-1.7 3-5.7zm4.2.3v-3.6c0-4.3 1.5-6.9 4.6-6.9s4.6 2.6 4.6 6.9v3.6c0 4.3-1.5 6.9-4.6 6.9s-4.6-2.6-4.6-6.9zm1.6-1.9c0 4.4.4 7.1 3 7.1s3-2.8 3-7.1-.4-7.1-3-7.1-2.9 2.8-3 7.1zm12-6.3c.6-1.3 1.8-2.2 3.2-2.3 4.2 0 4.2 4.6 4.2 6.8v3.8c0 4.3-1.2 6.9-4.6 6.9-1 0-2-.6-2.8-2.2v8.2h-1.6V90.9h1.6zm0 7.8c0 3.8 1.4 5.6 2.8 5.6 2.6 0 3-2.8 3-7.1s-.4-7.1-3-7.1c-1 0-2.8 1.5-2.8 5.6zm17.2 4.9c-.7 1.5-2.2 2.4-3.9 2.4-2.4 0-3.7-2-3.7-4.9 0-5.9 4.7-5.3 7.4-5.5v-1.4c0-2.4-.6-3.9-2.7-3.9-1.5 0-2.6.9-2.6 2.9H80c.1-3.2 2.1-4.5 4.5-4.5 1.3 0 4.2.2 4.2 4.4v8.4c0 1.2 0 2.3.2 4.2h-1.7zm-.1-6.5c-2.3.1-5.8-.2-5.8 3.8 0 1.9.8 3.4 2.4 3.4 1.8 0 3.3-2.1 3.3-4.2v-3zm11.3-12.9v-2.5h2v2.5zm.2 21.4V90.9h1.6v16.7zm6.4 0h-1.6V90.9h1.6V93c.8-1.4 1.8-2.4 3.2-2.4 3.3 0 3.7 3.1 3.7 5.3v11.8h-1.6V95.9c0-2-.6-3.8-2.5-3.8-1.4 0-2.9 1.2-2.9 5zm9.9 0V83.7h1.6v9.2c.8-1.4 1.8-2.4 3.2-2.4 3.3 0 3.7 3.1 3.7 5.3v11.8h-1.6V95.9c0-2-.6-3.8-2.5-3.8-1.4 0-2.9 1.2-2.9 5v10.5zm18.6-2c-.7 1.5-2.2 2.4-3.8 2.4-2.4 0-3.7-2-3.7-4.9 0-5.9 4.7-5.3 7.4-5.5v-1.4c0-2.4-.6-3.9-2.7-3.9-1.5 0-2.6.9-2.6 2.9h-1.7c.1-3.2 2.1-4.5 4.5-4.5 1.4 0 4.2.2 4.2 4.4v8.4c0 1.2 0 2.3.2 4.2h-1.6zm-.1-6.5c-2.3.1-5.8-.2-5.8 3.8 0 1.9.8 3.4 2.4 3.4 1.8 0 3.3-2.1 3.3-4.2v-3zm4.9 8.5V83.7h1.6v23.9zm11.8-2c-.7 1.5-2.2 2.4-3.9 2.4-2.4 0-3.7-2-3.7-4.9 0-5.9 4.7-5.3 7.4-5.5v-1.4c0-2.4-.6-3.9-2.7-3.9-1.5 0-2.6.9-2.6 2.9h-1.7c.1-3.2 2.1-4.5 4.5-4.5 1.4 0 4.2.2 4.2 4.4v8.4c0 1.2 0 2.3.2 4.2H150zm-.1-6.5c-2.3.1-5.8-.2-5.8 3.8 0 1.9.8 3.4 2.4 3.4 1.8 0 3.3-2.1 3.3-4.2v-3zm3.7-6.6v-1.6h2.1v-3.4l1.6-.9v4.3h2.7v1.6h-2.7v10.7c0 2.2.2 2.8 1.5 2.8.4 0 .8 0 1.2-.1v1.7c-.5.1-1 .1-1.5.1-2.1 0-2.8-1.2-2.8-3.2v-12zm8.7-6.3v-2.5h2v2.5zm.2 21.4V90.9h1.6v16.7zm4.5-6.5v-3.6c0-4.3 1.5-6.9 4.6-6.9s4.6 2.6 4.6 6.9v3.6c0 4.3-1.5 6.9-4.6 6.9s-4.6-2.6-4.6-6.9zm1.6-1.9c0 4.4.4 7.1 3 7.1s3-2.8 3-7.1-.4-7.1-3-7.1-3.1 2.8-3 7.1zm11.9 8.4h-1.6V90.9h1.6V93h.1c.8-1.4 1.8-2.4 3.2-2.4 3.3 0 3.7 3.1 3.7 5.3v11.8h-1.6V95.9c0-2-.6-3.8-2.5-3.8-1.4 0-2.9 1.2-2.9 5zm17.7-14.7c.6-1.3 1.8-2.2 3.2-2.3 4.2 0 4.2 4.6 4.2 6.8v3.8c0 4.3-1.2 6.9-4.6 6.9-1 0-2-.6-2.8-2.2h-.1v8.2h-1.6V90.9h1.6zm0 7.8c0 3.8 1.4 5.6 2.9 5.6 2.6 0 3-2.8 3-7.1s-.4-7.1-3-7.1c-1 0-2.9 1.5-2.9 5.6zm9.9.4v-3.6c0-4.3 1.5-6.9 4.6-6.9s4.6 2.6 4.6 6.9v3.6c0 4.3-1.5 6.9-4.6 6.9s-4.6-2.6-4.6-6.9zm1.6-1.9c0 4.4.4 7.1 3 7.1s3-2.8 3-7.1-.4-7.1-3-7.1-3 2.8-3 7.1zm9.1-8.3h1.7l3 14.6 2.9-14.6h2l3 14.6 3-14.6h1.7l-3.7 16.7h-2l-3-14.3-2.8 14.3h-2zm26.1 14.6c-.9 1.6-1.9 2.4-3.4 2.4-3.9 0-4.1-4.8-4.1-8.7 0-3.2 0-8.7 4.1-8.7 1.4.1 2.6.8 3.2 2h.1v-8.8h1.6v20.6c0 1.1 0 2.2.2 3.3H245zm-.1-4.7v-3c0-1 0-5.6-3-5.6s-2.9 3.2-2.9 7.2c0 6.2 1.2 7.1 2.9 7.1 1.6-.1 3-1.7 3-5.7zm5.9-1.1v1.3c0 2.3.5 5.4 3 5.4 2 0 3-1.6 3-3.8h1.7c-.2 4-2 5.4-4.6 5.4-2.3 0-4.6-1.2-4.6-6.2v-4.1c0-4.8 1.6-7.1 4.6-7.1 4.6 0 4.6 4.1 4.6 9.1zm6-1.6c0-3.7-.5-5.9-3-5.9s-3 2.2-3 5.9zm5.9-5c.6-1.5 2.1-2.6 3.8-2.6v2c-2.3-.2-3.8 1.5-3.8 4.3v10.8H261V90.9h1.6zm6.6-10.1c1.4 4.8 2.2 9.8 2.3 14.9-.1 4.8-.9 9.5-2.2 14.1H268c1.1-4.8 1.7-9.7 1.8-14.6-.1-4.8-.7-9.7-1.8-14.4z" fill="#fff"/><path d="M276 14.4c-12 15.2-34.8 16.5-40.9 16.4-6.8-.1-12.1-1.6-15.5-1.8s-4.8.5-3.3 2.5c16.5 21.9 4.6 38.8-3.1 46.3-1.6 1.6-3.3 3-5.1 4.3l.2-.1c1.2-.5 2.3-.9 3.4-1.4 6.1-2.6 12-5.7 17.7-9.2l.6-.4c.8-.5 1.5-1 2.3-1.5.6-.4 1.1-.7 1.6-1.1l1.2-.8c29.1-20.1 40.8-45.7 40.9-53.2z" fill="#7e6991"/><path d="M276 14.4c.1-7-41.7-16.9-51.2-13.8-2 .7-2.6 1.9-1 3.8 7.2 9.2 10.5 18.1 11.3 26.4 6.1.1 28.9-1.2 40.9-16.4z" fill="#fff"/><g clip-path="url(#a)"><path d="M162.5 90.4L179-39.3l135.4 17.2L298 107.6z" fill="url(#b)"/></g></svg>