<svg enable-background="new 0 0 387.1 172.3" viewBox="0 0 387.1 172.3" xmlns="http://www.w3.org/2000/svg" xmlns:xlink="http://www.w3.org/1999/xlink"><clipPath id="a"><path d="m257.3 101.3 4.2-1.8c57.2-24.7 79.2-70.3 79.4-81.7.2-8.6-51.5-20.9-63.2-17.1-2.4.8-3.1 2.3-1.3 4.7 28.9 37.2 7.2 69.8-8.1 85.7-6 6.2-10.9 9.9-11.5 10.3h-.1c.2 0 .4-.1.6-.1z"/></clipPath><mask id="b" height="181.4" maskUnits="userSpaceOnUse" width="187.5" x="200.8" y="-48.6"><path d="m218.7-29.7h151.7v143.5h-151.7z"/><path clip-path="url(#c)" d="m388.3-27.4-167.2-21.2-20.3 160.2 167.2 21.2z" fill="url(#d)"/></mask><clipPath id="c"><path d="m230.8-26.4h127.4v136.8h-127.4z" transform="matrix(.1257 -.9921 .9921 .1257 215.8444 328.892)"/></clipPath><radialGradient id="d" cx="-813.8005" cy="801.3865" gradientTransform="matrix(-53.7094 -6.8073 6.8074 -53.7094 -48820.9883 37538.82420000001)" gradientUnits="userSpaceOnUse" r="1.9113"><stop offset="0" stop-color="#929497"/><stop offset=".1794" stop-color="#929497"/><stop offset=".2522" stop-color="#a7a7a9"/><stop offset=".4483" stop-color="#e1e0e0"/><stop offset=".5409" stop-color="#fff"/><stop offset=".7679" stop-color="#fff"/><stop offset="1" stop-color="#fff"/></radialGradient><radialGradient id="e" cx="-813.8005" cy="801.3865" gradientTransform="matrix(-53.7094 -6.8074 6.8074 -53.7094 -48820.9883 37538.75)" gradientUnits="userSpaceOnUse" r="1.9113"><stop offset="0" stop-color="#f9c711"/><stop offset=".1791" stop-color="#ffc715"/><stop offset=".5932" stop-color="#ffc113"/><stop offset=".7676" stop-color="#fcb324"/><stop offset="1" stop-color="#fcb324"/></radialGradient><g fill="#7e6991"><path d="m15.2 32.5v56.9h-13v-56.9z"/><path d="m37.2 48.2v5.7h.2c1.5-2.4 3.4-4.1 5.8-5.2s4.8-1.6 7.3-1.6c3.2 0 5.7.4 7.8 1.2 2 .8 3.6 2 4.8 3.4 1.2 1.5 2 3.2 2.4 5.3.5 2.1.7 4.4.7 7v25.3h-11.8v-23.2c0-3.4-.6-5.9-1.7-7.6s-3.1-2.5-5.9-2.5c-3.2 0-5.5.9-7 2.7-1.4 1.8-2.2 4.8-2.2 9v21.6h-11.6v-41.1z"/><path d="m87.6 32.5v20.7h.2c1.4-2.1 3.4-3.7 5.9-4.7s5-1.5 7.7-1.5c2.2 0 4.3.4 6.4 1.3s4 2.2 5.7 3.9c1.7 1.8 3.1 4 4.1 6.7 1.1 2.7 1.6 6 1.6 9.8s-.5 7-1.6 9.8c-1.1 2.7-2.4 5-4.1 6.7-1.7 1.8-3.6 3.1-5.7 3.9s-4.2 1.3-6.4 1.3c-3.2 0-6-.5-8.5-1.4-2.5-1-4.4-2.6-5.6-4.9h-.2v5.3h-11.3v-56.9zm19.1 31.3c-.4-1.6-1-3-1.8-4.2s-1.9-2.2-3.1-2.9-2.8-1.1-4.5-1.1-3.2.4-4.5 1.1-2.3 1.7-3.2 2.9c-.8 1.2-1.4 2.6-1.8 4.2s-.6 3.3-.6 5 .2 3.3.6 4.9 1 3 1.8 4.2 1.9 2.2 3.2 2.9 2.8 1.1 4.5 1.1c1.8 0 3.3-.4 4.5-1.1s2.3-1.7 3.1-2.9 1.4-2.6 1.8-4.2.6-3.2.6-4.9-.2-3.4-.6-5z"/><path d="m137.5 48.2v7.7h.2c.6-1.3 1.3-2.5 2.2-3.5.9-1.1 2-2 3.2-2.8s2.5-1.4 3.9-1.8 2.8-.6 4.3-.6c.8 0 1.6.1 2.6.4v10.5c-.6-.1-1.2-.2-2-.3s-1.5-.1-2.2-.1c-2.2 0-4 .3-5.5 1s-2.7 1.6-3.6 2.8-1.6 2.6-2 4.2-.6 3.3-.6 5.2v18.6h-11.8v-41.3z"/><path d="m162.8 41.8v-9.3h11.8v9.3zm11.8 6.4v41.2h-11.8v-41.2z"/><path d="m209.7 54.3c1.2-1.8 2.8-3.2 4.6-4.2 1.9-1.1 4-1.8 6.4-2.3s4.7-.7 7.1-.7c2.2 0 4.3.1 6.6.4 2.2.3 4.2.9 6.1 1.7 1.8.9 3.3 2 4.5 3.5s1.7 3.5 1.7 6v21.4c0 1.9.1 3.6.3 5.3s.6 3 1.2 3.8h-12c-.2-.6-.4-1.3-.5-2s-.2-1.3-.3-2c-1.9 1.9-4.1 3.2-6.6 3.9s-5.1 1.1-7.8 1.1c-2 0-4-.2-5.7-.7-1.8-.5-3.3-1.2-4.6-2.2s-2.4-2.3-3.1-3.8-1.1-3.4-1.1-5.5c0-2.3.4-4.3 1.3-5.8s2-2.7 3.3-3.6c1.4-.9 2.9-1.6 4.6-2 1.7-.5 3.5-.8 5.3-1.1s3.5-.5 5.2-.6c1.7-.2 3.2-.4 4.6-.7 1.3-.3 2.4-.8 3.2-1.4s1.1-1.5 1.1-2.7-.2-2.2-.6-2.9-1-1.3-1.7-1.7-1.5-.7-2.4-.8-1.9-.2-2.9-.2c-2.3 0-4.2.5-5.5 1.4-1.3 1-2.1 2.6-2.3 4.8h-11.8c-.1-2.5.6-4.7 1.8-6.4zm23.3 15.9c-.7.2-1.5.4-2.4.6s-1.8.3-2.7.4-1.9.2-2.8.4-1.8.4-2.6.6c-.9.3-1.6.6-2.2 1.1s-1.2 1-1.5 1.7c-.4.7-.6 1.6-.6 2.6s.2 1.9.6 2.6.9 1.2 1.6 1.6 1.4.7 2.3.8c.9.2 1.8.2 2.7.2 2.3 0 4.1-.4 5.4-1.1s2.2-1.6 2.8-2.7c.6-1 1-2.1 1.1-3.1.1-1.1.2-1.9.2-2.6v-4.2c-.5.6-1.2.9-1.9 1.1z"/><path d="m349 20.6h-2v-1.1h5.2v1.1h-2v5.1h-1.2zm4.6-1.1h1.3l1.9 2.9 1.9-2.9h1.3v6.2h-1.1v-4.4l-2 3h-.1l-2-3v4.4h-1.2z"/><path d="m180 93.7c2.6-.2 7.1-.7 7.1-4.8v-40.6h11.8v41.2c0 13-18.1 12.1-18.8 11.8v-7.6zm7.1-51.8v-9.4h11.8v9.4z"/><path d="m4.4 102.4c-1.2 5.8-2.2 11.8-2.2 17.8 0 6.1.9 12.2 2.2 18.1h-1.7c-1.4-5.7-2.7-11.5-2.7-17.4 0-6.3 1.2-12.4 2.8-18.4z"/><path d="m8.1 132.9v-29.6h2v29.6z"/><path d="m15.7 123v1.6c0 2.9.6 6.7 3.7 6.7 2.5 0 3.7-2 3.6-4.7h2.1c-.2 5-2.4 6.7-5.7 6.7-2.9 0-5.7-1.4-5.7-7.7v-5.1c0-6 2-8.7 5.7-8.7 5.7 0 5.7 5.1 5.7 11.3h-9.4zm7.5-1.9c0-4.6-.6-7.3-3.7-7.3-3.2 0-3.7 2.7-3.7 7.3z"/><path d="m33.1 129.8 4.1-17.6h1.9l-4.9 20.7h-2.3l-4.9-20.7h2.1z"/><path d="m40.9 124.8v-4.5c0-5.4 1.8-8.5 5.7-8.5s5.7 3.2 5.7 8.5v4.5c0 5.4-1.8 8.5-5.7 8.5s-5.7-3.2-5.7-8.5zm1.9-2.3c0 5.4.5 8.8 3.7 8.8 3.3 0 3.7-3.4 3.7-8.8s-.5-8.8-3.7-8.8-3.7 3.4-3.7 8.8z"/><path d="m64.5 130.3c-1.1 2-2.3 3-4.3 3-4.8 0-5.1-5.9-5.1-10.8 0-4 0-10.7 5.1-10.7 1.5 0 3 .9 4 2.5h.1v-11h2v25.5c0 2 .1 3.4.2 4.1h-1.9zm-.1-5.9v-3.7c0-1.2 0-7-3.7-7-3.5 0-3.5 4-3.5 8.8 0 7.7 1.5 8.7 3.6 8.7 1.9.1 3.6-1.8 3.6-6.8z"/><path d="m69.7 124.8v-4.5c0-5.4 1.8-8.5 5.7-8.5s5.7 3.2 5.7 8.5v4.5c0 5.4-1.8 8.5-5.7 8.5s-5.7-3.2-5.7-8.5zm1.9-2.3c0 5.4.5 8.8 3.7 8.8s3.7-3.4 3.7-8.8-.5-8.8-3.7-8.8-3.7 3.4-3.7 8.8z"/><path d="m86.4 114.7c1.1-2 2.8-2.9 4.1-2.9 5.2 0 5.2 5.7 5.2 8.4v4.6c0 5.4-1.5 8.5-5.7 8.5-1.2 0-2.4-.7-3.5-2.7h-.1v10.2h-2v-28.5h1.9zm0 9.7c0 4.7 1.7 7 3.5 7 3.3 0 3.7-3.4 3.7-8.8s-.5-8.8-3.7-8.8c-1.3 0-3.5 1.8-3.5 6.9z"/><path d="m107.7 130.3c-1.1 2-2.7 2.9-4.8 2.9-3 0-4.6-2.5-4.6-6.1 0-7.2 5.8-6.5 9.2-6.8v-1.7c0-3-.7-4.9-3.4-4.9-1.8 0-3.3 1.1-3.3 3.6h-1.9c.2-4 2.6-5.5 5.5-5.5 1.7 0 5.2.2 5.2 5.5v10.4c0 1.5 0 2.8.2 5.2h-2zm-.1-8c-2.8.1-7.1-.3-7.1 4.8 0 2.3 1 4.3 3 4.3 2.3 0 4.1-2.5 4.1-5.2z"/><path d="m121.4 106.4v-3.1h2.4v3.1zm.3 26.5v-20.7h2v20.7z"/><path d="m129.6 132.9h-2v-20.7h2v2.5h.1c1-1.7 2.2-2.9 4-2.9 4.1 0 4.5 3.8 4.5 6.5v14.6h-2v-14.5c0-2.4-.8-4.7-3.1-4.7-1.8 0-3.6 1.5-3.6 6.1v13.1z"/><path d="m141.8 132.9v-29.6h2v11.4h.1c1-1.7 2.2-2.9 4-2.9 4.1 0 4.5 3.8 4.5 6.5v14.6h-2v-14.5c0-2.4-.8-4.7-3.1-4.7-1.8 0-3.6 1.5-3.6 6.1v13z"/><path d="m164.8 130.3c-1.1 2-2.7 2.9-4.8 2.9-3 0-4.6-2.5-4.6-6.1 0-7.2 5.8-6.5 9.2-6.8v-1.7c0-3-.7-4.9-3.4-4.9-1.8 0-3.3 1.1-3.3 3.6h-2.1c.2-4 2.6-5.5 5.5-5.5 1.7 0 5.2.2 5.2 5.5v10.4c0 1.5 0 2.8.2 5.2h-2v-2.6zm-.1-8c-2.8.1-7.1-.3-7.1 4.8 0 2.3 1 4.3 3 4.3 2.3 0 4.1-2.5 4.1-5.2z"/><path d="m170.7 132.9v-29.6h2v29.6z"/><path d="m185.3 130.3c-1.1 2-2.7 2.9-4.8 2.9-3 0-4.6-2.5-4.6-6.1 0-7.2 5.8-6.5 9.2-6.8v-1.7c0-3-.7-4.9-3.4-4.9-1.8 0-3.3 1.1-3.3 3.6h-2.1c.2-4 2.6-5.5 5.5-5.5 1.7 0 5.2.2 5.2 5.5v10.4c0 1.5 0 2.8.2 5.2h-2v-2.6zm-.1-8c-2.8.1-7.1-.3-7.1 4.8 0 2.3 1 4.3 3 4.3 2.3 0 4.1-2.5 4.1-5.2z"/><path d="m189.7 114.2v-2h2.7v-4.3l2-1.1v5.3h3.4v2h-3.4v13.3c0 2.7.2 3.4 1.8 3.4.7 0 1.1 0 1.5-.1v2.1c-.6.1-1.2.1-1.9.1-2.7 0-3.5-1.5-3.5-4v-14.8z"/><path d="m200.5 106.4v-3.1h2.4v3.1zm.2 26.5v-20.7h2v20.7z"/><path d="m206.3 124.8v-4.5c0-5.4 1.8-8.5 5.7-8.5s5.7 3.2 5.7 8.5v4.5c0 5.4-1.8 8.5-5.7 8.5s-5.7-3.2-5.7-8.5zm1.9-2.3c0 5.4.5 8.8 3.7 8.8s3.7-3.4 3.7-8.8-.5-8.8-3.7-8.8-3.7 3.4-3.7 8.8z"/><path d="m223 132.9h-2v-20.7h2v2.5h.1c1-1.7 2.2-2.9 4-2.9 4.1 0 4.5 3.8 4.5 6.5v14.6h-2v-14.5c0-2.4-.8-4.7-3.1-4.7-1.8 0-3.6 1.5-3.6 6.1v13.1z"/><path d="m244.9 114.7c1.1-2 2.8-2.9 4.1-2.9 5.2 0 5.2 5.7 5.2 8.4v4.6c0 5.4-1.5 8.5-5.7 8.5-1.2 0-2.4-.7-3.5-2.7h-.1v10.2h-2v-28.5h1.9v2.4zm.1 9.7c0 4.7 1.7 7 3.5 7 3.3 0 3.7-3.4 3.7-8.8s-.5-8.8-3.7-8.8c-1.3 0-3.5 1.8-3.5 6.9z"/><path d="m257 124.8v-4.5c0-5.4 1.8-8.5 5.7-8.5s5.7 3.2 5.7 8.5v4.5c0 5.4-1.8 8.5-5.7 8.5s-5.7-3.2-5.7-8.5zm2-2.3c0 5.4.5 8.8 3.7 8.8s3.7-3.4 3.7-8.8-.5-8.8-3.7-8.8-3.7 3.4-3.7 8.8z"/><path d="m270.3 112.2h2.1l3.7 18.1h.1l3.5-18.1h2.4l3.7 18.1h.1l3.7-18.1h2l-4.6 20.7h-2.5l-3.6-17.7h-.1l-3.5 17.7h-2.5z"/><path d="m302.6 130.3c-1.1 2-2.3 3-4.3 3-4.8 0-5.1-5.9-5.1-10.8 0-4 0-10.7 5.1-10.7 1.5 0 3 .9 4 2.5h.1v-11h2v25.5c0 2 .1 3.4.2 4.1h-1.9zm-.1-5.9v-3.7c0-1.2 0-7-3.7-7-3.5 0-3.5 4-3.5 8.8 0 7.7 1.5 8.7 3.6 8.7 1.8.1 3.6-1.8 3.6-6.8z"/><path d="m309.7 123v1.6c0 2.9.6 6.7 3.7 6.7 2.5 0 3.7-2 3.6-4.7h2.1c-.2 5-2.4 6.7-5.7 6.7-2.9 0-5.7-1.4-5.7-7.7v-5.1c0-6 2-8.7 5.7-8.7 5.7 0 5.7 5.1 5.7 11.3h-9.4zm7.5-1.9c0-4.6-.6-7.3-3.7-7.3-3.2 0-3.7 2.7-3.7 7.3z"/><path d="m324.4 115c.9-2 2.6-3.2 4.6-3.2v2.5c-2.8-.3-4.6 1.8-4.6 5.3v13.3h-2v-20.7h2z"/><path d="m332.5 102.4c1.6 5.9 2.8 12.1 2.8 18.4 0 6-1.2 11.8-2.7 17.4h-1.6c1.3-5.9 2.2-12 2.2-18.1 0-6-1-12-2.2-17.8z"/><path d="m340.9 17.7c-14.8 18.8-43 20.4-50.6 20.3-8.4-.1-15-1.9-19.2-2.2-4.3-.3-5.9.6-4.1 3 20.4 27 5.6 47.9-3.8 57.2-3.5 3.4-6.3 5.3-6.3 5.3.1 0 .2-.1.3-.1 1.4-.6 2.8-1.2 4.2-1.8 8-3.4 15.2-7.3 21.9-11.4.2-.1.5-.3.7-.5 1-.6 1.9-1.2 2.8-1.8.7-.4 1.4-.9 2-1.3.5-.3 1-.7 1.5-1 36-24.8 50.5-56.4 50.6-65.7z"/></g><path d="m340.9 17.7s0 .1 0 0c.2-8.5-51.5-20.9-63.2-17-2.4.8-3.1 2.3-1.3 4.7 8.9 11.4 13 22.4 14 32.6 7.5.1 35.7-1.5 50.5-20.3z" fill="#fff"/><g clip-path="url(#a)"><g mask="url(#b)"><path d="m388.3-27.4-167.2-21.2-20.3 160.2 167.2 21.2z" fill="url(#e)"/></g></g><path d="m157.6 162.9h-2.5v3.3h-3v-3.3h-8.3v-.8l10-12.8h1.4v10.9h2.5zm-5.5-2.7v-4.9l-3.8 4.9z" fill="#7e6991"/><path d="m170 163.4v2.8h-11.1v-1.5l6.5-7.9c.9-1 1.4-2.1 1.4-2.7 0-1.3-1-2.3-2.5-2.3-1.6 0-2.6 1-2.8 2.5l-2.7-.5c.4-2.9 2.4-4.8 5.6-4.8 3.3 0 5.5 2 5.5 5.1 0 1.5-.8 3.1-1.9 4.3l-4.2 4.9z" fill="#7e6991"/><path d="m199.8 159.5v6.8h-3v-6.6c0-1.9-1-2.9-2.4-2.9-1.7 0-2.8 1.3-2.7 3.5v-.1 6.1h-3v-6.6c0-1.9-1-2.9-2.3-2.9-1.4 0-2.8.8-2.8 3.1v6.4h-3v-12.1h3v2.1c.4-1.5 2.1-2.3 3.6-2.3 1.8 0 3.2.8 3.9 2.4 1-1.9 2.9-2.4 4.1-2.4 3-.1 4.6 1.9 4.6 5.5z" fill="#7e6991"/><path d="m215 154.1v10.4c0 5.4-2.6 7.8-6.8 7.8-2.5 0-4.7-1.3-5.7-3.6l2.5-1.1c.6 1.2 1.9 2 3.2 2 2.3 0 3.8-1.3 3.8-4.8v-.2c-.9 1.2-2.5 1.9-4 1.9-3.2 0-6-2.5-6-6.3 0-3.9 2.7-6.3 5.9-6.3 1.6 0 3.2.6 4 1.8v-1.6zm-3.1 6.1c0-2.1-1.8-3.5-3.5-3.5-1.9 0-3.4 1.5-3.4 3.5s1.5 3.5 3.4 3.5 3.5-1.4 3.5-3.5z" fill="#7e6991"/><path d="m225.2 160.2c0-3.8 3.1-6.3 6.6-6.3 2.1 0 3.8.9 4.9 2.3l-2.2 1.7c-.6-.8-1.7-1.2-2.7-1.2-2.1 0-3.6 1.5-3.6 3.5s1.5 3.5 3.6 3.5c1.1 0 2.1-.5 2.7-1.2l2.2 1.7c-1.1 1.4-2.8 2.3-4.9 2.3-3.6 0-6.6-2.5-6.6-6.3z" fill="#7e6991"/><path d="m251.8 154.1v12.1h-3v-1.6c-.8 1.3-2.5 1.9-4 1.9-3.2 0-6-2.5-6-6.3 0-3.9 2.7-6.3 5.9-6.3 1.5 0 3.2.6 4 1.9v-1.6zm-3.1 6.1c0-2.1-1.8-3.5-3.5-3.5-1.9 0-3.4 1.5-3.4 3.5s1.5 3.5 3.4 3.5 3.5-1.4 3.5-3.5z" fill="#7e6991"/><path d="m268.9 160.2c0 3.9-2.7 6.3-5.9 6.3-1.5 0-3.2-.6-4-1.9v7.5h-3v-18h3v1.6c.8-1.3 2.6-1.9 4-1.9 3.1.1 5.9 2.5 5.9 6.4zm-3 0c0-2-1.6-3.5-3.4-3.5s-3.5 1.4-3.5 3.5 1.8 3.5 3.5 3.5c1.8 0 3.4-1.5 3.4-3.5z" fill="#7e6991"/><path d="m271.4 162.5h2.8c0 .8.7 1.6 2 1.6 1.2 0 2-.5 2-1.3 0-.7-.5-1-1.4-1.2l-1.6-.4c-2.7-.7-3.4-2.2-3.4-3.7 0-1.9 1.9-3.6 4.5-3.6 2.2 0 4.6 1.1 4.6 3.8h-3c0-.9-.8-1.4-1.6-1.4-.9 0-1.6.5-1.6 1.3 0 .6.6 1 1.3 1.1l1.9.5c2.7.7 3.2 2.4 3.2 3.5 0 2.5-2.5 3.8-4.9 3.8-2.3 0-4.7-1.4-4.8-4z" fill="#7e6991"/><path d="m296 154.1v12.1h-3v-1.9c-.6 1.5-2.5 2.2-3.8 2.2-3.1 0-4.8-2.1-4.8-5.6v-6.8h3v6.5c0 1.9 1.2 2.9 2.5 2.9 1.4 0 3.1-.8 3.1-3.1v-6.3z" fill="#7e6991"/><path d="m300.1 147.7h3v18.6h-3z" fill="#7e6991"/><path d="m318.9 161.2h-9.4c.3 1.7 1.6 2.5 3.4 2.5 1.3 0 2.6-.5 3.3-1.5l2 1.5c-1.1 1.8-3.2 2.7-5.4 2.7-3.6 0-6.4-2.5-6.4-6.3 0-3.9 2.9-6.3 6.4-6.3s6.2 2.4 6.2 6.2c0 .4-.1.8-.1 1.2zm-2.9-2.1c-.2-1.7-1.5-2.6-3.1-2.6s-2.9.8-3.3 2.6z" fill="#7e6991"/><path d="m321.4 162.5h2.8c0 .8.7 1.6 2 1.6 1.2 0 2-.5 2-1.3 0-.7-.5-1-1.4-1.2l-1.6-.4c-2.7-.7-3.4-2.2-3.4-3.7 0-1.9 1.9-3.6 4.5-3.6 2.2 0 4.6 1.1 4.6 3.8h-3c0-.9-.8-1.4-1.6-1.4-.9 0-1.6.5-1.6 1.3 0 .6.6 1 1.3 1.1l1.9.5c2.7.7 3.2 2.4 3.2 3.5 0 2.5-2.5 3.8-4.9 3.8-2.3 0-4.7-1.4-4.8-4z" fill="#7e6991"/></svg>