<svg enable-background="new 0 0 387.1 172.3" viewBox="0 0 387.1 172.3" xmlns="http://www.w3.org/2000/svg" xmlns:xlink="http://www.w3.org/1999/xlink"><clipPath id="a"><path d="m258.1 101.3c1.4-.6 2.8-1.2 4.2-1.8 57.2-24.7 79.2-70.3 79.4-81.7.2-8.6-51.5-20.9-63.2-17-2.4.8-3.1 2.3-1.3 4.7 28.9 37.2 7.2 69.8-8.1 85.7-3.5 3.7-7.4 7.2-11.5 10.3h-.1z"/></clipPath><mask id="b" height="181.4" maskUnits="userSpaceOnUse" width="187.5" x="201.7" y="-48.6"><path d="m219.6-29.7h151.7v143.6h-151.7z"/><path clip-path="url(#c)" d="m201.7 111.6 20.3-160.2 167.2 21.2-20.3 160.2z" fill="url(#d)"/></mask><clipPath id="c"><path d="m231.7-26.3h127.4v136.8h-127.4z" transform="matrix(.1257 -.9921 .9921 .1257 216.5494 329.8443)"/></clipPath><radialGradient id="d" cx="-657.6403" cy="-573.7869" gradientTransform="matrix(-53.7107 -6.8043 -6.8043 53.7107 -38881.8984 26379.6465)" gradientUnits="userSpaceOnUse" r="1.91"><stop offset="0" stop-color="#929497"/><stop offset=".18" stop-color="#929497"/><stop offset=".24" stop-color="#a5a7a9"/><stop offset=".44" stop-color="#e6e6e7"/><stop offset=".54" stop-color="#fff"/><stop offset=".77" stop-color="#fff"/><stop offset="1" stop-color="#fff"/></radialGradient><radialGradient id="e" cx="-657.6403" cy="-573.7869" gradientTransform="matrix(-53.7107 -6.8043 -6.8043 53.7107 -38881.8984 26379.584)" gradientUnits="userSpaceOnUse" r="1.91"><stop offset="0" stop-color="#f9c606"/><stop offset=".18" stop-color="#ffc60e"/><stop offset=".59" stop-color="#ffc10e"/><stop offset=".77" stop-color="#ffb423"/><stop offset="1" stop-color="#ffb423"/></radialGradient><g fill="#7e6991"><path d="m16.1 32.5v56.9h-13v-56.9z"/><path d="m38.1 48.2v5.7h.2c1.4-2.3 3.4-4.1 5.8-5.2 2.3-1.1 4.8-1.6 7.3-1.6 2.6-.1 5.3.3 7.8 1.2 1.9.7 3.5 1.9 4.8 3.4 1.2 1.6 2.1 3.4 2.4 5.3.5 2.3.7 4.6.7 7v25.3h-11.8v-23.2c0-3.4-.5-5.9-1.7-7.6s-3-2.5-5.8-2.5c-3.2 0-5.5.9-7 2.8s-2.2 4.9-2.2 9v21.6h-11.7v-41.2z"/><path d="m88.5 32.5v20.7h.2c1.4-2.1 3.5-3.7 5.8-4.7 2.4-1 5-1.5 7.7-1.5 2.2 0 4.4.4 6.4 1.3 2.2.9 4.1 2.2 5.7 3.9 1.8 1.9 3.2 4.2 4.1 6.7 1.1 3.1 1.7 6.4 1.6 9.8.1 3.3-.5 6.6-1.6 9.8-.9 2.5-2.3 4.8-4.1 6.7-1.6 1.7-3.5 3-5.7 3.9-2 .8-4.2 1.3-6.4 1.3-2.9.1-5.8-.4-8.5-1.4-2.4-.9-4.4-2.6-5.6-4.9h-.2v5.3h-11.2v-56.9zm19.1 31.3c-.4-1.5-1-2.9-1.8-4.2-.8-1.2-1.9-2.2-3.1-2.9-2.8-1.4-6.2-1.4-9 0-1.3.7-2.4 1.7-3.2 2.9-.9 1.3-1.5 2.7-1.8 4.2-.4 1.6-.6 3.3-.6 5s.2 3.3.6 4.9c.3 1.5 1 2.9 1.8 4.2.8 1.2 1.9 2.2 3.2 2.9 2.8 1.4 6.2 1.4 9 0 1.2-.7 2.3-1.7 3.1-2.9.9-1.3 1.5-2.7 1.8-4.2.4-1.6.6-3.3.6-4.9-.1-1.7-.2-3.4-.6-5z"/><path d="m138.4 48.2v7.7h.2c.6-1.3 1.3-2.5 2.2-3.5.9-1.1 2-2 3.2-2.8s2.5-1.4 3.9-1.8 2.8-.6 4.3-.6c.9 0 1.7.2 2.6.4v10.4c-.6-.1-1.2-.2-2-.3-.7-.1-1.5-.1-2.2-.1-1.9-.1-3.7.3-5.5 1-1.4.6-2.7 1.6-3.6 2.8s-1.6 2.7-2 4.2c-.4 1.7-.6 3.4-.6 5.2v18.6h-11.8v-41.2z"/><path d="m163.7 41.8v-9.3h11.8v9.3zm11.8 6.4v41.2h-11.8v-41.2z"/><path d="m210.6 54.2c1.2-1.7 2.8-3.2 4.6-4.2 2-1.1 4.1-1.9 6.4-2.3 2.3-.5 4.7-.7 7.1-.7 2.2 0 4.4.2 6.6.4 2.1.3 4.1.8 6.1 1.7 1.8.8 3.3 2 4.5 3.5 1.2 1.8 1.8 3.9 1.7 6v21.5c0 1.8.1 3.6.3 5.3.1 1.3.5 2.7 1.2 3.8h-11.9c-.2-.7-.4-1.3-.5-2s-.2-1.3-.3-2c-1.8 1.8-4.1 3.2-6.6 3.9s-5.2 1.1-7.8 1.1c-1.9 0-3.9-.2-5.7-.7-1.7-.4-3.3-1.2-4.6-2.2s-2.4-2.3-3.1-3.8c-.8-1.7-1.2-3.6-1.1-5.5-.1-2 .4-4 1.3-5.8.8-1.5 1.9-2.7 3.3-3.6s3-1.6 4.6-2c1.7-.5 3.5-.8 5.2-1.1 1.8-.3 3.5-.5 5.2-.6 1.5-.1 3.1-.4 4.6-.7 1.1-.2 2.2-.7 3.2-1.4.8-.6 1.2-1.6 1.1-2.7.1-1-.2-2-.6-2.9-.4-.7-1-1.3-1.7-1.7s-1.6-.7-2.4-.8c-1-.1-2-.2-3-.2-1.9-.1-3.8.4-5.5 1.4-1.4 1.2-2.3 2.9-2.3 4.8h-11.8c-.1-2.2.6-4.5 1.9-6.5zm23.3 16c-.8.3-1.6.5-2.4.6-.9.2-1.8.3-2.7.4s-1.9.2-2.8.4-1.8.4-2.6.6-1.6.6-2.2 1.1c-.6.4-1.2 1-1.5 1.7-.4.8-.6 1.7-.6 2.6s.2 1.8.6 2.6c.4.7.9 1.2 1.5 1.6.7.4 1.5.7 2.3.8.9.2 1.8.2 2.7.2 1.9.1 3.7-.3 5.4-1.1 1.2-.6 2.1-1.6 2.8-2.7.6-1 1-2 1.1-3.1.1-.8.2-1.7.2-2.6v-4.2c-.5.6-1.1.9-1.8 1.1z"/><path d="m180.9 93.7c2.6-.2 7.1-.7 7.1-4.8v-40.6h11.8v41.1c0 13.1-18.1 12.1-18.9 11.8zm7.1-51.8v-9.4h11.8v9.4z"/><path d="m5.2 102.4c-1.3 5.8-2 11.8-2.2 17.8.1 6.1.8 12.1 2.2 18.1h-1.6c-1.6-5.7-2.5-11.5-2.7-17.4.1-6.2 1.1-12.4 2.8-18.4h1.5z"/><path d="m9 132.9v-29.6h2v29.6z"/><path d="m16.6 123v1.6c0 2.9.6 6.7 3.8 6.7 2.5 0 3.7-2 3.6-4.8h2.1c-.2 5-2.4 6.7-5.7 6.7-2.9 0-5.7-1.4-5.7-7.7v-5.1c0-6 2-8.7 5.7-8.7 5.7 0 5.7 5.1 5.7 11.3zm7.5-2c0-4.6-.6-7.3-3.7-7.3s-3.8 2.7-3.8 7.3z"/><path d="m34 129.8 4.1-17.6h1.9l-4.9 20.7h-2.3l-4.9-20.7h2.1z"/><path d="m41.8 124.8v-4.5c0-5.4 1.8-8.5 5.7-8.5s5.7 3.2 5.7 8.5v4.5c0 5.4-1.8 8.5-5.7 8.5s-5.7-3.2-5.7-8.5zm2-2.3c0 5.4.5 8.8 3.7 8.8s3.8-3.4 3.8-8.8-.5-8.8-3.8-8.8-3.8 3.4-3.7 8.8z"/><path d="m65.4 130.2c-1.1 2-2.3 3-4.3 3-4.8 0-5.1-5.9-5.1-10.8 0-4 0-10.7 5.1-10.7 1.7.1 3.2 1 4 2.5h.1v-11h2v25.5c0 1.4 0 2.7.2 4.1h-1.9zm-.1-5.8v-3.7c0-1.2 0-7-3.7-7-3.5 0-3.5 4-3.5 8.8 0 7.7 1.5 8.7 3.6 8.7 1.8.1 3.6-1.8 3.6-6.8z"/><path d="m70.5 124.8v-4.5c0-5.4 1.8-8.5 5.7-8.5s5.7 3.2 5.7 8.5v4.5c0 5.4-1.8 8.5-5.7 8.5s-5.7-3.2-5.7-8.5zm2-2.3c0 5.4.5 8.8 3.8 8.8s3.7-3.4 3.7-8.8-.5-8.8-3.7-8.8-3.8 3.4-3.8 8.8z"/><path d="m87.3 114.7c.8-1.6 2.3-2.7 4.1-2.9 5.2 0 5.2 5.7 5.2 8.3v4.6c0 5.4-1.5 8.5-5.7 8.5-1.2 0-2.4-.7-3.4-2.7h-.1v10.2h-2v-28.5h1.9zm0 9.6c0 4.7 1.7 7 3.5 7 3.3 0 3.8-3.4 3.8-8.8s-.5-8.8-3.8-8.8c-1.3 0-3.5 1.8-3.5 6.9z"/><path d="m108.6 130.3c-.9 1.8-2.8 3-4.8 2.9-3 0-4.6-2.5-4.6-6.1 0-7.2 5.8-6.5 9.2-6.8v-1.7c0-3-.7-4.9-3.4-4.9-1.8 0-3.2 1.1-3.2 3.6h-2.1c.2-4 2.6-5.5 5.5-5.5 1.7 0 5.2.2 5.2 5.5v10.4c0 1.5 0 2.8.2 5.2h-2zm-.1-8c-2.8.1-7.1-.3-7.1 4.8 0 2.3.9 4.3 3 4.3 2.3 0 4.1-2.5 4.1-5.2z"/><path d="m122.3 106.4v-3.1h2.4v3.1zm.3 26.5v-20.7h2v20.7z"/><path d="m130.5 132.9h-2v-20.7h2v2.5h.1c.9-1.7 2.2-3 4-3 4.1 0 4.5 3.8 4.5 6.5v14.6h-2v-14.4c0-2.4-.8-4.7-3.1-4.7-1.8 0-3.6 1.5-3.6 6.1z"/><path d="m142.7 132.9v-29.6h2v11.4h.1c.9-1.7 2.2-3 4-3 4.1 0 4.5 3.8 4.5 6.5v14.6h-2v-14.4c0-2.4-.8-4.7-3.1-4.7-1.8 0-3.6 1.5-3.6 6.1v13z"/><path d="m165.7 130.3c-.9 1.8-2.8 3-4.8 2.9-3 0-4.6-2.5-4.6-6.1 0-7.2 5.9-6.5 9.2-6.8v-1.7c0-3-.7-4.9-3.4-4.9-1.8 0-3.2 1.1-3.2 3.6h-2.1c.2-4 2.6-5.5 5.5-5.5 1.7 0 5.2.2 5.2 5.5v10.4c0 1.5 0 2.8.2 5.2h-2zm-.2-8c-2.8.1-7.1-.3-7.1 4.8 0 2.3.9 4.3 3 4.3 2.3 0 4.1-2.5 4.1-5.2z"/><path d="m171.6 132.9v-29.6h2v29.6z"/><path d="m186.2 130.3h-.1c-.8 1.8-2.7 3-4.7 2.9-3 0-4.6-2.5-4.6-6.1 0-7.2 5.9-6.5 9.2-6.8v-1.7c0-3-.7-4.9-3.4-4.9-1.8 0-3.2 1.1-3.2 3.6h-2.1c.2-4 2.6-5.5 5.5-5.5 1.7 0 5.2.2 5.2 5.5v10.4c0 1.5 0 2.8.2 5.2h-2zm-.1-8c-2.8.1-7.1-.3-7.1 4.8 0 2.3 1 4.3 3 4.3 2.3 0 4.1-2.5 4.1-5.2z"/><path d="m190.6 114.1v-2h2.7v-4.3l2-1.1v5.3h3.4v2h-3.4v13.3c0 2.7.2 3.4 1.8 3.4.5 0 1 0 1.6-.1v2.1c-.6.1-1.3.1-1.9.1-2.7 0-3.4-1.5-3.4-4v-14.8z"/><path d="m201.4 106.4v-3.1h2.4v3.1zm.2 26.5v-20.7h2v20.7z"/><path d="m207.1 124.8v-4.5c0-5.4 1.8-8.5 5.7-8.5s5.7 3.2 5.7 8.5v4.5c0 5.4-1.8 8.5-5.7 8.5s-5.7-3.2-5.7-8.5zm2-2.3c0 5.4.5 8.8 3.8 8.8s3.7-3.4 3.7-8.8-.5-8.8-3.7-8.8-3.8 3.4-3.8 8.8z"/><path d="m223.9 132.9h-2v-20.7h2v2.5h.1c.9-1.7 2.2-3 4-3 4.1 0 4.5 3.8 4.5 6.5v14.6h-2v-14.4c0-2.4-.8-4.7-3.1-4.7-1.8 0-3.6 1.5-3.6 6.1z"/><path d="m245.8 114.7c.8-1.6 2.3-2.7 4.1-2.9 5.2 0 5.2 5.7 5.2 8.3v4.6c0 5.4-1.5 8.5-5.7 8.5-1.2 0-2.4-.7-3.4-2.7h-.1v10.2h-2v-28.5h1.9zm0 9.6c0 4.7 1.7 7 3.5 7 3.2 0 3.7-3.4 3.7-8.8s-.5-8.8-3.7-8.8c-1.3 0-3.5 1.8-3.5 6.9z"/><path d="m257.9 124.8v-4.5c0-5.4 1.8-8.5 5.7-8.5s5.7 3.2 5.7 8.5v4.5c0 5.4-1.8 8.5-5.7 8.5s-5.7-3.2-5.7-8.5zm2-2.3c0 5.4.5 8.8 3.8 8.8s3.8-3.4 3.8-8.8-.5-8.8-3.8-8.8-3.8 3.4-3.8 8.8z"/><path d="m271.2 112.2h2.1l3.7 18.1h.1l3.5-18.1h2.4l3.7 18.1h.1l3.7-18.1h2l-4.6 20.7h-2.5l-3.6-17.7h-.1l-3.5 17.7h-2.5z"/><path d="m303.5 130.2c-1.1 2-2.3 3-4.3 3-4.8 0-5.1-5.9-5.1-10.8 0-4 0-10.7 5.1-10.7 1.7.1 3.2 1 4 2.5h.1v-11h2v25.5c0 1.4 0 2.7.2 4.1h-1.9zm-.1-5.8v-3.7c0-1.2 0-7-3.7-7-3.5 0-3.5 4-3.5 8.8 0 7.7 1.5 8.7 3.6 8.7 1.8.1 3.6-1.8 3.6-6.8z"/><path d="m310.6 123v1.6c0 2.9.6 6.7 3.8 6.7 2.5 0 3.7-2 3.6-4.8h2.1c-.2 5-2.4 6.7-5.7 6.7-2.9 0-5.7-1.4-5.7-7.7v-5.1c0-6 2-8.7 5.7-8.7 5.7 0 5.7 5.1 5.7 11.3zm7.5-2c0-4.6-.6-7.3-3.8-7.3s-3.8 2.7-3.8 7.3z"/><path d="m325.3 115c.8-1.9 2.6-3.2 4.6-3.2v2.5c-2.8-.3-4.6 1.8-4.6 5.3v13.3h-2v-20.7h2z"/><path d="m333.4 102.4c1.8 6 2.7 12.2 2.8 18.4-.2 5.9-1.1 11.8-2.7 17.4h-1.6c1.4-5.9 2.1-12 2.2-18.1-.1-6-.9-11.9-2.2-17.8h1.5z"/><path d="m341.8 17.7c-14.8 18.8-43 20.4-50.6 20.3-8.4-.1-15-1.9-19.2-2.2s-5.9.6-4.1 3c20.4 27 5.6 47.9-3.8 57.2-1.9 1.9-4 3.7-6.3 5.3l.3-.1c1.4-.6 2.8-1.2 4.2-1.8 7.6-3.3 14.9-7.1 21.9-11.4l.7-.4c1-.6 1.9-1.2 2.8-1.8l2-1.3c.5-.3 1-.7 1.5-1 36-24.8 50.4-56.5 50.6-65.8z"/></g><path d="m341.8 17.7c.2-8.6-51.5-20.9-63.2-17-2.4.8-3.1 2.3-1.3 4.7 8.9 11.4 13 22.4 14 32.6 7.5.1 35.7-1.5 50.5-20.3z" fill="#fff"/><g clip-path="url(#a)"><g mask="url(#b)"><path d="m201.7 111.6 20.3-160.2 167.2 21.2-20.3 160.2z" fill="url(#e)"/></g></g><path d="m158.5 162.9h-2.5v3.4h-3v-3.4h-8.3v-.8l10-12.8h1.4v10.9h2.5zm-5.6-2.7v-4.9l-3.9 4.9z" fill="#7e6991"/><path d="m170.9 163.4v2.8h-11.2v-1.5l6.5-7.9c.7-.8 1.2-1.7 1.4-2.7 0-1.3-1-2.3-2.3-2.3-.1 0-.2 0-.3 0-1.5-.1-2.7 1-2.8 2.5l-2.7-.5c.2-2.9 2.7-5 5.6-4.8 3.3 0 5.5 2.1 5.5 5.1-.1 1.6-.8 3.1-1.9 4.3l-4.2 4.9h6.4z" fill="#7e6991"/><path d="m200.7 159.4v6.8h-3v-6.6c0-1.9-1-2.9-2.4-2.9-1.7 0-2.8 1.3-2.7 3.5v-.1 6.1h-3v-6.6c0-1.9-1-2.9-2.3-2.9s-2.8.8-2.8 3.1v6.4h-3v-12.1h3v2.1c.6-1.5 2-2.4 3.6-2.3 1.7-.1 3.2.9 3.9 2.4.8-1.5 2.4-2.4 4.1-2.4 3 0 4.6 2 4.6 5.5z" fill="#7e6991"/><path d="m215.9 154.1v10.4c0 5.4-2.6 7.8-6.8 7.8-2.4 0-4.7-1.4-5.7-3.6l2.5-1.1c.6 1.2 1.9 2 3.2 2 2.3 0 3.8-1.4 3.8-4.8v-.2c-1 1.2-2.4 1.9-4 1.9-3.5-.2-6.1-3.3-5.9-6.8.2-3.2 2.7-5.7 5.9-5.9 1.5-.1 3 .6 4 1.8v-1.6zm-3.1 6c0-1.9-1.6-3.5-3.5-3.5-1.9 0-3.4 1.5-3.4 3.4v.1c-.1 1.9 1.4 3.5 3.3 3.5h.1c1.9 0 3.5-1.5 3.5-3.4 0 0 0 0 0-.1z" fill="#7e6991"/><path d="m226.1 160.2c0-3.5 2.8-6.3 6.3-6.3h.3c1.9 0 3.7.8 4.9 2.3l-2.1 1.7c-.7-.8-1.7-1.2-2.7-1.2-1.9 0-3.5 1.6-3.5 3.5s1.6 3.5 3.5 3.5c1 0 2-.4 2.7-1.2l2.1 1.7c-1.2 1.5-3 2.4-4.9 2.3-3.5.2-6.4-2.5-6.6-6 0-.2 0-.2 0-.3z" fill="#7e6991"/><path d="m252.7 154.1v12.1h-3v-1.6c-.9 1.2-2.4 1.9-4 1.9-3.5-.2-6.1-3.3-5.9-6.8.2-3.2 2.7-5.7 5.9-5.9 1.6-.1 3 .6 4 1.9v-1.6zm-3.1 6c0-1.9-1.6-3.5-3.5-3.5-1.9 0-3.4 1.5-3.4 3.4v.1c-.1 1.9 1.4 3.5 3.3 3.5h.1c1.9 0 3.5-1.5 3.5-3.4 0 0 0 0 0-.1z" fill="#7e6991"/><path d="m269.8 160.2c.2 3.3-2.3 6.1-5.5 6.3-.1 0-.3 0-.4 0-1.6.1-3-.6-4-1.9v7.5h-3v-18h3v1.6c1-1.2 2.4-1.9 4-1.9 3.3 0 6 2.7 5.9 6.1zm-3 0c0-1.9-1.6-3.5-3.5-3.4s-3.5 1.6-3.4 3.5c0 1.9 1.6 3.5 3.5 3.4 1.9 0 3.4-1.5 3.4-3.4 0-.1 0-.1 0-.1z" fill="#7e6991"/><path d="m272.3 162.4h2.8c0 .8.7 1.6 2 1.6s2-.5 2-1.3-.5-1-1.4-1.2l-1.6-.4c-2.7-.7-3.4-2.2-3.4-3.7 0-1.9 1.9-3.6 4.5-3.6 2.1 0 4.6 1.1 4.6 3.8h-2.9c0-.8-.7-1.4-1.5-1.4h-.1c-.9 0-1.6.5-1.6 1.3s.6 1 1.3 1.1l1.9.5c2.7.7 3.2 2.4 3.2 3.5 0 2.5-2.5 3.8-4.9 3.8s-4.8-1.4-4.9-4z" fill="#7e6991"/><path d="m296.9 154.1v12.1h-3v-1.9c-.8 1.4-2.2 2.2-3.8 2.2-3.1 0-4.9-2.1-4.9-5.6v-6.8h3v6.5c0 1.9 1.2 2.9 2.5 2.9 1.6.1 3-1.1 3.1-2.7 0-.1 0-.3 0-.4v-6.3z" fill="#7e6991"/><path d="m301 147.6h3v18.6h-3z" fill="#7e6991"/><path d="m319.8 161.2h-9.4c.3 1.6 1.8 2.7 3.4 2.6 1.3.1 2.5-.5 3.3-1.5l2 1.5c-1.2 1.8-3.3 2.8-5.4 2.7-3.5.1-6.4-2.6-6.6-6.1-.1-3.5 2.6-6.4 6.1-6.6h.5c3.3-.1 6.1 2.5 6.2 5.8v.4c0 .5 0 .8-.1 1.2zm-2.9-2.1c-.2-1.6-1.6-2.8-3.1-2.6-1.6-.1-3.1 1-3.3 2.6z" fill="#7e6991"/><path d="m322.3 162.4h2.8c.1 1 .9 1.7 1.9 1.6h.1c1.2 0 2-.5 2-1.3s-.5-1-1.4-1.2l-1.6-.4c-2.7-.7-3.4-2.2-3.4-3.7 0-1.9 1.9-3.6 4.5-3.6 2.1 0 4.6 1.1 4.6 3.8h-2.9c0-.8-.7-1.4-1.6-1.4 0 0 0 0-.1 0-.9 0-1.6.5-1.6 1.3s.6 1 1.3 1.1l2 .5c2.7.7 3.2 2.4 3.2 3.5 0 2.5-2.5 3.8-4.9 3.8s-4.9-1.4-4.9-4z" fill="#7e6991"/><path d="m344.9 26c0-4.9 3.9-8.8 8.7-8.8s8.7 3.9 8.7 8.7c0 4.8-3.9 8.7-8.7 8.7s-8.6-3.8-8.7-8.6zm16.4-.1c0-4.3-3.5-7.7-7.7-7.7s-7.7 3.5-7.7 7.7c0 4.3 3.5 7.7 7.7 7.7s7.8-3.4 7.7-7.7zm-11.3-4.7h4.2c2.1 0 3.7 1 3.7 3 .1 1.3-.8 2.4-2 2.8l2.3 3.3h-2.6l-2-2.9h-1.4v2.9h-2.2zm4.1 4.4c1 0 1.6-.5 1.6-1.2s-.6-1.2-1.6-1.2h-1.9v2.5h1.9z" fill="#7e6991"/></svg>