<svg enable-background="new 0 0 250 250" viewBox="0 0 250 250" xmlns="http://www.w3.org/2000/svg" xmlns:xlink="http://www.w3.org/1999/xlink"><linearGradient id="a" gradientUnits="userSpaceOnUse" x1="0" x2="195.7831" y1="97.8916" y2="97.8916"><stop offset="0" stop-color="#e5e1e6"/><stop offset=".2863" stop-color="#f2f1f3"/><stop offset=".6242" stop-color="#fcfbfc"/><stop offset="1" stop-color="#fff"/></linearGradient><linearGradient id="b" gradientUnits="userSpaceOnUse" x1="112.8929" x2="250.6984" y1="111.4962" y2="249.3016"><stop offset=".1333" stop-color="#a191b2"/><stop offset=".2616" stop-color="#c1b7cc" stop-opacity=".7941"/><stop offset=".3952" stop-color="#dcd6e2" stop-opacity=".5796"/><stop offset=".525" stop-color="#efedf2" stop-opacity=".3712"/><stop offset=".6477" stop-color="#fbfafc" stop-opacity=".1741"/><stop offset=".7562" stop-color="#fff" stop-opacity="0"/></linearGradient><circle cx="103.9" cy="100.9" fill="#c6bbd0" r="97.9"/><circle cx="103.9" cy="100.9" fill="#c6bbd0" r="97.9"/><circle cx="97.9" cy="97.9" fill="url(#a)" r="97.9"/><path d="m250 250v-139.5l-68.1-68.1c11.6 15.6 18.7 34.8 19.3 55.7 1.5 54.2-42.6 100.1-96.9 100.6-19.7.2-38-5.5-53.5-15.3l-.2.2 62.6 66.4z" fill="url(#b)" opacity=".5"/><path d="m29.9 60.4h130.9v76.1h-130.9z" fill="none"/><path d="m151.9 157.8c-.1 0-.2 0-.3 0-.4 0-.9-.1-1.3-.3-.2-.1-4.7-2.4-6.7-3.6-4-2.4-5.7-4.2-5.6-8.8 0-.1 0-.2 0-.3l3.4-32.6c-.7-2.5-3.4-12.3-3.4-23.3 0-29.6 5.2-44.6 15.3-44.6 3 0 3.1 2.5 3.4 7.1.1 2.7.3 6.6.4 11.6.2 8.5.4 20.3.5 35.1.2 25.2.3 50.7.3 51v1.1c0 2 0 4.3-1.7 5.9-.9 1.2-2.4 1.7-4.3 1.7m-8-12.5c0 1.8 0 2 2.8 3.6 1.3.8 4 2.2 5.4 2.9 0-.4 0-1 0-1.5 0-.4 0-.8 0-1.2 0-10.3-.1-22.1-.1-33.9l-5-.1zm2.8-35.9 5.2.1c-.2-25.2-.5-49.3-.9-58.1-2.8 2.6-7.1 11-7.1 37.5.1 8.8 1.9 17 2.8 20.5m-101.1 48.1h-.2c-3.1 0-8.9-2.7-8.9-7.2l1-59.5c-.2 0-.3-.1-.5-.1-6.6-1.5-6.5-5.8-6.3-10 0-.9.1-1.9.1-3v-24.1c0-1.6 1.3-2.9 2.9-2.9s2.9 1.3 2.9 2.9v24.2c0 1.2 0 2.2-.1 3.2-.1 3.7-.1 3.7 1.8 4.1.1 0 .2 0 .3.1.2 0 .5.1.8.1 1.4.1 4 .4 4 3.1l-1 61.8c.4.6 2.2 1.5 3.1 1.5h.2c.8 0 2.7-.9 3.1-1.5l-1-61.8c0-1.7 1.1-2.7 3.1-3.1h.1c.2-.1.3-.1.5-.2 2.8-.6 3.3-.8 3.3-7.3v-24.2c0-1.6 1.3-2.9 2.9-2.9s2.9 1.3 2.9 2.9v24.2c0 5.6 0 10.8-7 12.8l1 59.8c0 4.4-5.8 7.1-9 7.1m3.9-70.9c-.2.4-.3.8-.3 1.3 0-.5.1-.9.3-1.3m-9.2 0c.2.4.3.8.3 1.2 0-.4-.1-.8-.3-1.2m57.3 52.2c-20.2 0-36.6-16.4-36.6-36.6s16.4-36.7 36.6-36.7 36.6 16.4 36.6 36.6c.1 20.3-16.4 36.7-36.6 36.7m.7-67.4c-17 0-30.8 13.8-30.8 30.8s13.8 30.8 30.8 30.8 30.8-13.8 30.8-30.8-13.8-30.8-30.8-30.8m0 54.2c-12.9 0-23.4-10.5-23.4-23.4s10.5-23.4 23.4-23.4 23.4 10.5 23.4 23.4-10.5 23.4-23.4 23.4m0-42.4c-10.5 0-19 8.5-19 19s8.5 19 19 19 19-8.5 19-19-8.5-19-19-19m-48.9-5.1c-1.2 0-2.2-1-2.2-2.2v-23.2c0-1.2 1-2.2 2.2-2.2s2.2 1 2.2 2.2v23.2c0 1.2-1 2.2-2.2 2.2m-7.4 0c-1.2 0-2.2-1-2.2-2.2v-23.2c0-1.2 1-2.2 2.2-2.2s2.2 1 2.2 2.2v23.2c0 1.2-1 2.2-2.2 2.2" fill="#7d6991"/></svg>