<svg enable-background="new 0 0 255.3 253.5" viewBox="0 0 255.3 253.5" xmlns="http://www.w3.org/2000/svg" xmlns:xlink="http://www.w3.org/1999/xlink"><linearGradient id="a" gradientTransform="matrix(1 0 0 -1 0 256)" gradientUnits="userSpaceOnUse" x1="115.95" x2="253.8" y1="141.2501" y2="3.4"><stop offset=".1333" stop-color="#a191b2"/><stop offset=".2616" stop-color="#c1b7cc" stop-opacity=".7941"/><stop offset=".3952" stop-color="#dcd6e2" stop-opacity=".5796"/><stop offset=".525" stop-color="#efedf2" stop-opacity=".3712"/><stop offset=".6477" stop-color="#fbfafc" stop-opacity=".1741"/><stop offset=".7562" stop-color="#fff" stop-opacity="0"/></linearGradient><linearGradient id="b" gradientTransform="matrix(1 0 0 -1 0 256)" gradientUnits="userSpaceOnUse" x1="3.5" x2="199.3" y1="154.9" y2="154.9"><stop offset="0" stop-color="#e5e1e6"/><stop offset=".2863" stop-color="#f2f1f3"/><stop offset=".6242" stop-color="#fcfbfc"/><stop offset="1" stop-color="#fff"/></linearGradient><circle cx="107.4" cy="104.1" fill="#c6bbd0" r="97.9"/><circle cx="107.4" cy="104.1" fill="#c6bbd0" r="97.9"/><path d="m253.1 253.2v-139.5l-68.1-68c11.6 15.6 18.7 34.8 19.3 55.7 1.5 54.2-42.6 100.1-96.9 100.6-19.7.2-38-5.5-53.5-15.3l-.2.2 62.6 66.4z" fill="url(#a)" opacity=".5"/><circle cx="101.4" cy="101.1" fill="url(#b)" r="97.9"/><g fill="#7c6990"><path d="m87.5 48h-18c-1.6.8-3.1 1.6-4.6 2.6 2.8 1.4 6 2.3 9.4 2.3 5 0 9.6-1.8 13.2-4.9z"/><path d="m128.5 120.2-4-2.3.3 4.2z"/><path d="m116.6 127.3c0 .1-.1.2-.2.3l.7.4 2 1c1.8 2.6 5 2.7 5 2.7h.1l1.9 1 .7.4v-.3l.4-.4c2.1-3.9 5.3-11.6 5.4-11.7 2.7-8.4-.5-9.9-.5-9.9-2.4-1.2-5.8 1.2-9.8 6.8-3 4.2-5.3 8.8-5.5 9.1-.2.2-.2.4-.2.6zm6.4 1.8-1.5 1.1.1-1.9z"/><path d="m124 137.3-9.4-4.9.1-.2 6.6-12.8 9.4 4.9-.1.2zm-8.8-5.1 8.6 4.4 6.2-12.1-8.6-4.4z"/><path d="m108.7 129.1c.9-.3 1.5-1.3 1.2-2.3-.3-.9-1.3-1.5-2.3-1.2l-4.3 1.4c-.9.3-1.5 1.3-1.2 2.3.3.9 1.3 1.5 2.3 1.2zm-6.2.1c-.2-.8.2-1.6.9-1.8l4.3-1.4c.8-.2 1.6.2 1.8.9.2.8-.2 1.6-.9 1.8l-4.3 1.4c-.8.3-1.6-.2-1.8-.9z"/><path d="m103.4 127.7c-.1 0-.1.1-.2.1-.3.2-.5.6-.4 1v.1s0 .1.1.1.1-.1.2-.1c0 0 0 0 0-.1v-.1c0-.3.1-.6.3-.8.1 0 .1-.1.2-.1v-.1c-.2.1-.2.1-.2 0z"/><path d="m109.3 130.9h3.3v.5h-3.3z" transform="matrix(.9601 -.2798 .2798 .9601 -32.2726 36.2784)"/><path d="m115.1 132.5-2.3-7.7c-.3-1-1-1.8-1.9-2.3s-1.9-.6-2.9-.3l-6.6 2c-1 .3-1.8 1-2.3 1.9s-.6 1.9-.3 2.9l1 3.4h-1.2v7.1h34.2v-7.1h-17.7zm-15.3-3.8c-.2-.7-.1-1.4.2-2.1.1-.1.2-.3.2-.4.3-.4.8-.8 1.4-.9l6.6-2c.7-.2 1.4-.1 2.1.2.6.3 1.1.9 1.3 1.6l2.2 7.3h-6.4l1.4-.4-.1-.5-3.1.9h-4.6z"/><path d="m55.5 148.6 3-3.1m0 0c-12.2-11.8-18.9-27.5-18.9-44.4 0-3.8.4-7.6 1-11.4.2-.1.4-.3.6-.4.3-.2.6-.4.9-.6s.6-.5.9-.7.6-.4.8-.7c.3-.2.5-.4.8-.6s.6-.5.8-.7.4-.4.6-.6c.3-.3.6-.6.9-.8 0 0 .1-.1.1-.1 10.4 8.7 20.4 11.7 29.2 11.7 13.6 0 24.3-7 29.3-10.9 3.8 3.7 8.5 6.9 15.6 10 3.2 1.4 6 2.7 8.7 3.9 6.4 2.9 12 5.5 18.8 7.5.7.2 1.4.5 2.1.8.2.1.4.2.7.3.4.2.9.4 1.3.7.3.1.5.3.7.5.4.2.8.5 1.1.7.2.2.5.4.7.6.3.3.7.5 1 .8.2.2.4.5.7.7.3.3.6.6.8.9s.4.5.6.8.5.6.7 1c.2.3.3.6.5.9s.4.7.6 1.1c.1.3.3.6.4.9s.2.5.3.8c-3 10.4-8.7 19.9-16.5 27.4-11.6 11.2-26.8 17.4-42.9 17.4s-31.4-6.3-42.9-17.5l-3 3.1c12.4 12 28.7 18.6 46 18.6s33.5-6.6 45.9-18.6c6.9-6.7 12.2-14.8 15.7-23.6.8-2.1 1.6-4.2 2.2-6.4l.2-.6c1.4-5.5 2.2-11.2 2.2-16.8 0-30.4-21-57-50.3-64.2-.7-.2-1.4-.3-2.1-.5-.7-.1-1.4-.3-2.1-.4-3.8-.7-7.7-1-11.6-1-20.5 0-39.8 9.6-52.3 25.7l-.3-.1-1.5 2.1-1.1 1.5c-4.7 7-8 14.7-9.7 22.8l-.1.9-.8 4.9c-.3 2.7-.5 5.4-.5 8.2 0 18.1 7.2 34.9 20.2 47.5m-7.1-73.2c0 .5-.1.9-.4 1.2-.4.5-.7.9-1.1 1.4-.1.1-.2.3-.4.4-.3.3-.6.7-.9 1-.1.2-.3.3-.4.5-.3.3-.6.7-.9 1-.1.2-.3.3-.4.5-.5.5-1 1-1.5 1.5 1.5-4.8 3.5-9.3 6.1-13.6v6.1zm54.8-15.3c-.7.8-1.4 1.5-2.2 2.3-1.2 1.2-2 2.9-2 4.6v8.4c0 1.4.4 2.7 1.3 3.9l.2.2c-7 5.5-26.5 17.4-48.5-1 .2-.4.4-.9.6-1.4 0-.1 0-.1.1-.2.1-.5.2-1 .2-1.5v-8.4c0-.5-.1-1-.2-1.4 0-.1-.1-.3-.1-.4-.1-.3-.2-.6-.4-.9 0-.1 0-.2-.1-.2 11.7-15.5 30-24.7 49.4-24.7 3.6 0 7.1.3 10.7.9v.2c-.3 1.1-.5 2.2-.8 3.2 0 .1 0 .2-.1.2-.3 1-.5 2-.8 2.9 0 .1-.1.2-.1.3-.3.9-.6 1.8-.9 2.6 0 .1-.1.3-.1.4-.3.8-.6 1.6-1 2.4-.1.1-.1.3-.2.4-.4.8-.8 1.5-1.2 2.2-.1.1-.1.2-.2.3-.4.7-.9 1.4-1.4 2.1-.1.1-.1.2-.2.3-.5.7-1.1 1.4-1.7 2.2-.2 0-.3 0-.3.1zm59.1 51.4c-.3-.4-.6-.8-.9-1.2-.1-.1-.1-.2-.2-.3-.5-.6-1.1-1.2-1.6-1.8-.1-.1-.3-.3-.5-.4-.5-.4-1-.9-1.5-1.3-.2-.1-.3-.2-.5-.4-.7-.5-1.3-.9-2-1.4-.1-.1-.3-.2-.4-.2-.6-.3-1.2-.6-1.8-.9-.2-.1-.4-.2-.6-.3-.8-.3-1.6-.6-2.4-.9-6.5-1.9-11.9-4.4-18.2-7.3-2.7-1.3-5.6-2.6-8.8-4-9.9-4.3-14.5-8.7-19.2-14.6-.3-.4-.4-.8-.4-1.2v-8.3c0-.5.2-1.1.6-1.5.5-.5 1-1 1.4-1.5.2-.2.3-.3.4-.5.3-.3.6-.6.9-1 .2-.2.3-.4.5-.6.2-.3.5-.6.7-.9.2-.2.3-.4.5-.6.2-.3.4-.6.6-.8.1-.2.3-.4.4-.6.2-.3.4-.6.6-.8.1-.2.3-.4.4-.6.2-.3.3-.6.5-.8.1-.2.2-.4.4-.6.2-.3.3-.6.4-.8s.2-.4.3-.7.3-.6.4-.9c.1-.2.2-.4.3-.7s.3-.6.4-.9c.1-.2.2-.4.3-.7s.2-.6.3-.9c.1-.2.2-.4.2-.7.1-.3.2-.7.3-1 .1-.2.1-.4.2-.6.1-.4.2-.7.3-1.1.1-.2.1-.4.2-.6.1-.4.2-.9.3-1.3 0-.1.1-.3.1-.4.3-1.1.5-2.2.8-3.4 0-.1.1-.2.1-.3 27.3 6.8 46.9 31.7 46.9 60 .2 3.4-.1 6.9-.7 10.3z"/></g></svg>