<svg enable-background="new 0 0 250 250" viewBox="0 0 250 250" xmlns="http://www.w3.org/2000/svg" xmlns:xlink="http://www.w3.org/1999/xlink"><linearGradient id="a" gradientUnits="userSpaceOnUse" x1="0" x2="195.7831" y1="97.8916" y2="97.8916"><stop offset="0" stop-color="#e5e1e6"/><stop offset=".2863" stop-color="#f2f1f3"/><stop offset=".6242" stop-color="#fcfbfc"/><stop offset="1" stop-color="#fff"/></linearGradient><linearGradient id="b" gradientUnits="userSpaceOnUse" x1="112.8929" x2="250.6984" y1="111.4962" y2="249.3016"><stop offset=".1333" stop-color="#a191b2"/><stop offset=".2616" stop-color="#c1b7cc" stop-opacity=".7941"/><stop offset=".3952" stop-color="#dcd6e2" stop-opacity=".5796"/><stop offset=".525" stop-color="#efedf2" stop-opacity=".3712"/><stop offset=".6477" stop-color="#fbfafc" stop-opacity=".1741"/><stop offset=".7562" stop-color="#fff" stop-opacity="0"/></linearGradient><circle cx="103.9" cy="100.9" fill="#c6bbd0" r="97.9"/><circle cx="103.9" cy="100.9" fill="#c6bbd0" r="97.9"/><circle cx="97.9" cy="97.9" fill="url(#a)" r="97.9"/><path d="m250 250v-139.5l-68.1-68.1c11.6 15.6 18.7 34.8 19.3 55.7 1.5 54.2-42.6 100.1-96.9 100.6-19.7.2-38-5.5-53.5-15.3l-.2.2 62.6 66.4z" fill="url(#b)" opacity=".5"/><path d="m29.9 60.4h130.9v76.1h-130.9z" fill="none"/><g fill="#7d6991"><path d="m86.5 120.8c-1.2-.8-2.9-.5-3.7.7s-.5 2.9.7 3.7c.1.1 8.4 5.8 8.4 19.4 0 1.5 1.2 2.7 2.7 2.7s2.7-1.2 2.7-2.7c0-16.4-10.4-23.5-10.8-23.8"/><path d="m140.9 101.9v-39.5c0-5.8-4.7-10.5-10.5-10.5-1.8 0-3.6.5-5.1 1.3v-6.9c0-5.8-4.7-10.5-10.5-10.5-1.8 0-3.6.5-5.1 1.3v-4c0-5.8-4.7-10.5-10.5-10.5s-10.5 4.7-10.5 10.5v1.1c-1.5-.8-3.2-1.3-5.1-1.3-5.8 0-10.5 4.7-10.5 10.5v15c-.2-.1-.5-.2-.7-.2l-.3-.1-2.5-.1-10.9-6.4-.7.1c-.9.2-3.4 1.2-7.9 7.5-4.2 6.3-4.3 9.1-4.1 10l.1.7 9.7 7.7 1.1 2.3.2.4c4.3 5.3 10.6 10.7 15.5 14.6-.4 1.5-1.2 2.8-2.3 3.9l-1.4 1.4-12.3-12.9c-4.7-4.6-12.2-4.5-16.9.1-2.3 2.3-3.5 5.3-3.5 8.5s1.3 6.2 3.6 8.5c.1.1.1.1.2.2l4.8 3.9c4.4 4.4 5.9 9.8 7.6 17.1 5.2 22.4 15.5 30 22.8 32.4v14.6c0 1.5 1.2 2.7 2.7 2.7s2.7-1.2 2.7-2.7v-13.5h1.2c.8 0 1.3-.1 1.5-.1 1.5-.2 2.5-1.5 2.3-3s-1.5-2.5-3-2.3c-.7.1-17.7 1.7-24.9-29.4-1.8-7.9-3.7-14.4-9.2-19.8-.1-.1-.1-.1-.2-.2l-4.8-3.9c-1.2-1.2-1.9-2.9-1.9-4.6 0-1.8.7-3.5 1.9-4.7 2.5-2.5 6.7-2.6 9.3-.1l18.7 19.2c1 1.1 2.7 1.1 3.8.1s1.1-2.7.1-3.8l-2.5-2.5 1.4-1.3c1.3-1.2 2.3-2.7 3-4.3 1.1.8 1.9 1.3 2.3 1.6.6.9 1.3 1.3 1.9 1.4.3.1.6.1.9.1.6 0 1.2-.2 1.6-.4l.3-.2c.1-.1.5-.5 1-1.2l5.7 3.9c-.6 1.4-1.3 2.3-1.3 2.3l-1.4 2.1 3.1 1.2 3 2.6.2.1c16.2 11.1 30.3 17.9 40.6 19.9-.6 5.8-2.3 12.2-6.6 16.6-3.5 3.5-8.4 5.3-14.6 5.3-1.5 0-2.7 1.2-2.7 2.7s1.2 2.7 2.7 2.7c2.4 0 4.6-.3 6.7-.7v14.9c0 1.5 1.2 2.7 2.7 2.7s2.7-1.2 2.7-2.7v-16.6c2.4-1.1 4.5-2.6 6.4-4.5 5.3-5.4 7.3-13 8.1-19.7h.5c4.4 0 7.7-1.3 9.6-4l.6-.8c3.7-5.8-.2-15-10.4-25.8zm-15.6-39.5c0-2.8 2.3-5.1 5.1-5.1s5.1 2.3 5.1 5.1v34.3c-3-2.8-6.4-5.6-10.2-8.5zm-15.6-16.1c0-2.8 2.3-5.1 5.1-5.1s5.1 2.3 5.1 5.1v14.9.4.8 21.7c-1.4-1-2.7-2-4.2-2.9l-1.5-.8-2.2-1.4-2.3-1.9zm-15.6-13.1c0-2.8 2.3-5.1 5.1-5.1s5.1 2.3 5.1 5.1v46.2c-1.1-.8-2.3-1.6-3.5-2.4.2-.3.4-.5.5-.6.7-.8.7-1.9.4-2.8-.4-1.2-1.4-1.9-2.6-2.1-.8-.5-2.6-1.6-4.9-2.9v-35.4zm-15.6 10.3c0-2.8 2.3-5.1 5.1-5.1s5.1 2.3 5.1 5.1v22.1c-3.1-1.7-6.7-3.4-10.2-4.9zm4.8 49.5v.1c-.2 1.8-.6 3-1 3.8-.1-.1-14.3-9.9-21.7-19l-1.5-2.9-8.9-7c.3-1 1-3 3.3-6.5 2.4-3.4 4.1-4.9 4.9-5.5l10.2 6 2.9.1c10.4 3.5 23.8 11.8 25.7 12.9-.8.9-2.1 2.1-3.5 2.9-2.8 1.7-6 5.4-6.7 6.5-.9 1.1-3.2 5.3-3.7 8.6zm8.7 6.5-5.2-3.6c.2-.7.3-1.5.4-2.3.5-2.5 2.4-6.2 2.9-6.8l.2-.2c.4-.7 3.2-3.9 5.3-5.2.8-.4 1.6-1 2.3-1.6l5.2 3.5c-3.8 1.7-6.8 5.5-7.5 6.6-.8 1.1-3.2 5.1-3.5 9.3zm55.8 25.8-.6.8c-3.9 5.6-22.8 1.4-50.4-17.5l-2.8-2.4c.4-.8.8-1.7 1.2-2.7.5-1.4.8-2.7.8-4 .2-3.3 2.3-6.7 2.7-7.2l.1-.2c.3-.5 2.8-3.8 5.7-5.1 2.4-1 4.4-3 5.6-4.4l1.8 1.2 1.4.8c4.1 2.8 7.8 5.6 11.2 8.2.2.3.6.5.6.5 18.9 15 26 27.2 22.7 32z"/><path d="m80 74.3 4 6.9c.2.3-.1.6-.4.5l-7.9-1.2c-.3 0-.4-.3-.2-.5 0 0 1.8-1.7 2.4-2.5.6-.9 1.5-3.1 1.5-3.1.1-.4.4-.4.6-.1"/><path d="m107.6 103.9-4.3-7.3c-.2-.3.1-.6.4-.6l8.3 1.3c.3 0 .4.4.3.6 0 0-1.9 1.8-2.5 2.7s-1.5 3.3-1.5 3.3c-.2.2-.5.2-.7 0"/></g></svg>