<svg enable-background="new 0 0 250 250" viewBox="0 0 250 250" xmlns="http://www.w3.org/2000/svg" xmlns:xlink="http://www.w3.org/1999/xlink"><linearGradient id="a" gradientUnits="userSpaceOnUse" x1="0" x2="195.7831" y1="97.8916" y2="97.8916"><stop offset="0" stop-color="#e5e1e6"/><stop offset=".2863" stop-color="#f2f1f3"/><stop offset=".6242" stop-color="#fcfbfc"/><stop offset="1" stop-color="#fff"/></linearGradient><linearGradient id="b" gradientUnits="userSpaceOnUse" x1="113.3659" x2="251.1713" y1="111.4962" y2="249.3016"><stop offset=".1333" stop-color="#a191b2"/><stop offset=".2616" stop-color="#c1b7cc" stop-opacity=".7941"/><stop offset=".3952" stop-color="#dcd6e2" stop-opacity=".5796"/><stop offset=".525" stop-color="#efedf2" stop-opacity=".3712"/><stop offset=".6477" stop-color="#fbfafc" stop-opacity=".1741"/><stop offset=".7562" stop-color="#fff" stop-opacity="0"/></linearGradient><circle cx="103.9" cy="100.9" fill="#c6bbd0" r="97.9"/><circle cx="103.9" cy="100.9" fill="#c6bbd0" r="97.9"/><circle cx="97.9" cy="97.9" fill="url(#a)" r="97.9"/><path d="m250.5 250v-139.5l-68.1-68.1c11.6 15.6 18.7 34.8 19.3 55.7 1.5 54.2-42.6 100.1-96.9 100.6-19.7.2-38-5.5-53.5-15.3l-.2.2 62.6 66.4z" fill="url(#b)" opacity=".5"/><path d="m66.6 157.2c-.7 0-1.5-.1-2.2-.3-2.5-.7-4.7-2.5-5.8-4.9-1-2.1-1-4.5 0-6.6l.1-.1 14.8-24.5 6.4-23.4c.2-1.3-.6-3.9-.9-4.7l-.1-.2c-1.2-4.8-.6-7.9-.4-8.5l3.1-17.8-5.9 5.1-3.8 16.3c-.8 4.5-3.5 7.3-7.3 7.4-2.1 0-4-.9-5.4-2.4-1.3-1.5-2-3.4-1.8-5.2v-.2l5.1-20.9c.7-4.5 3.4-6.2 3.7-6.4l21.2-15.1c2.6-1 5.3-1.5 7.8-1.5 8.5 0 13.7 5.4 14 5.7l.3.4 10 20 11.4 8.7c3.1 3.4 3.3 8 .3 10.8-1 .9-2.2 1.4-3.7 1.4-2.2 0-4.8-1.1-6.4-2.8l-9.9-7.5c-1.4-.9-3.3-4-4.8-6.9l-2.4 15.1c-.4 1.8.4 2.8.4 2.8l.1.1 15.9 25.4v.3l4.4 28.9c1.1 5.2-1.2 9.6-5.9 10.8-.7.2-1.5.3-2.2.3-3.9 0-7.1-2.6-8.1-6.5l-3.9-25.4-8.6-14.3-6.4 17.8-14.6 22.2c-1.5 2.8-4.2 6.6-8.5 6.6m-5.2-10.5c-.5 1.2-.5 2.6.1 3.9.7 1.6 2.1 2.8 3.8 3.2 2.8.8 4.9-.7 7.3-4.8l14.5-22 8.4-23.5 12.3 20.5 3.9 25.8c.7 2.8 3.5 4.6 6.5 3.8s4.4-3.6 3.6-7.2l-4.3-28.6-15.5-24.8c-.3-.5-1.6-2.4-1-5.2l3.8-24.8 2.2 4.5c2.1 4.3 4.9 9.3 5.9 10l.1.1 10.2 7.8c1.1 1.1 2.9 1.9 4.3 1.9.7 0 1.2-.2 1.6-.5 1.7-1.6 1.5-4.3-.4-6.4l-11.7-8.9-10.2-20.4c-.8-.8-5.1-4.6-11.6-4.6-2.1 0-4.4.4-6.6 1.2l-20.8 14.8c-.2.1-1.8 1.2-2.3 4.4l-5.1 20.9c-.1 1 .3 2 1 2.7.8.9 1.9 1.4 3 1.4 3 0 4-3.1 4.3-4.9l4.1-17.4 13.2-11.5-4.6 26.6s-.7 2.6.4 6.8c.3.7 1.4 4 1 6.4l-6.7 24.2z" fill="#7d6991" stroke="#7d6991" stroke-miterlimit="10" stroke-width=".75"/><path d="m66.6 157.2c-.7 0-1.5-.1-2.2-.3-2.5-.7-4.7-2.5-5.8-4.9-1-2.1-1-4.5 0-6.6l.1-.1 14.8-24.5 6.4-23.4c.2-1.3-.6-3.9-.9-4.7l-.1-.2c-1.2-4.8-.6-7.9-.4-8.5l3.1-17.8-5.9 5.1-3.8 16.3c-.8 4.5-3.5 7.3-7.3 7.4-2.1 0-4-.9-5.4-2.4-1.3-1.5-2-3.4-1.8-5.2v-.2l5.1-20.9c.7-4.5 3.4-6.2 3.7-6.4l21.2-15.1c2.6-1 5.3-1.5 7.8-1.5 8.5 0 13.7 5.4 14 5.7l.3.4 10 20 11.4 8.7c3.1 3.4 3.3 8 .3 10.8-1 .9-2.2 1.4-3.7 1.4-2.2 0-4.8-1.1-6.4-2.8l-9.9-7.5c-1.4-.9-3.3-4-4.8-6.9l-2.4 15.1c-.4 1.8.4 2.8.4 2.8l.1.1 15.9 25.4v.3l4.4 28.9c1.1 5.2-1.2 9.6-5.9 10.8-.7.2-1.5.3-2.2.3-3.9 0-7.1-2.6-8.1-6.5l-3.9-25.4-8.6-14.3-6.4 17.8-14.6 22.2c-1.5 2.8-4.2 6.6-8.5 6.6zm-5.2-10.5c-.5 1.2-.5 2.6.1 3.9.7 1.6 2.1 2.8 3.8 3.2 2.8.8 4.9-.7 7.3-4.8l14.5-22 8.4-23.5 12.3 20.5 3.9 25.8c.7 2.8 3.5 4.6 6.5 3.8s4.4-3.6 3.6-7.2l-4.3-28.6-15.5-24.8c-.3-.5-1.6-2.4-1-5.2l3.8-24.8 2.2 4.5c2.1 4.3 4.9 9.3 5.9 10l.1.1 10.2 7.8c1.1 1.1 2.9 1.9 4.3 1.9.7 0 1.2-.2 1.6-.5 1.7-1.6 1.5-4.3-.4-6.4l-11.7-8.9-10.2-20.4c-.8-.8-5.1-4.6-11.6-4.6-2.1 0-4.4.4-6.6 1.2l-20.8 14.8c-.2.1-1.8 1.2-2.3 4.4l-5.1 20.9c-.1 1 .3 2 1 2.7.8.9 1.9 1.4 3 1.4 3 0 4-3.1 4.3-4.9l4.1-17.4 13.2-11.5-4.6 26.6s-.7 2.6.4 6.8c.3.7 1.4 4 1 6.4l-6.7 24.2z" fill="none" stroke="#7d6991" stroke-linejoin="round" stroke-miterlimit="10" stroke-width=".75"/><path d="m104.8 43.7c-6.1 0-11.3-4.5-12.5-10.7-1.3-7 3.2-13.8 10-15 .7-.1 1.5-.2 2.2-.2 6.1 0 11.3 4.5 12.5 10.7 1.3 7-3.2 13.8-10 15-.7.2-1.4.2-2.2.2m-.3-22.7c-.5 0-1.1.1-1.6.2-5.1.9-8.5 6.1-7.5 11.4.9 4.7 4.8 8.1 9.4 8.1.5 0 1.1 0 1.6-.1 5.1-.9 8.5-6.1 7.5-11.4-.8-4.8-4.8-8.2-9.4-8.2" fill="#7d6991"/><g fill="none" stroke="#7d6991" stroke-linejoin="round" stroke-miterlimit="10"><path d="m104.8 43.7c-6.1 0-11.3-4.5-12.5-10.7-1.3-7 3.2-13.8 10-15 .7-.1 1.5-.2 2.2-.2 6.1 0 11.3 4.5 12.5 10.7 1.3 7-3.2 13.8-10 15-.7.2-1.4.2-2.2.2zm-.3-22.7c-.5 0-1.1.1-1.6.2-5.1.9-8.5 6.1-7.5 11.4.9 4.7 4.8 8.1 9.4 8.1.5 0 1.1 0 1.6-.1 5.1-.9 8.5-6.1 7.5-11.4-.8-4.8-4.8-8.2-9.4-8.2z" stroke-width=".75"/><path d="m25.8 127.4h44.6" stroke-linecap="round" stroke-width="4"/><path d="m89.1 127.4h16.5" stroke-linecap="round" stroke-width="4"/><path d="m121.6 127.4h40.9" stroke-linecap="round" stroke-width="4"/><path d="m41.7 164.2h107.1" stroke-linecap="round" stroke-width="3"/></g></svg>