<svg enable-background="new 0 0 255.3 253.5" viewBox="0 0 255.3 253.5" xmlns="http://www.w3.org/2000/svg" xmlns:xlink="http://www.w3.org/1999/xlink"><linearGradient id="a" gradientUnits="userSpaceOnUse" x1="3.5267" x2="199.3099" y1="101.1223" y2="101.1223"><stop offset="0" stop-color="#e5e1e6"/><stop offset=".2863" stop-color="#f2f1f3"/><stop offset=".6242" stop-color="#fcfbfc"/><stop offset="1" stop-color="#fff"/></linearGradient><linearGradient id="b" gradientUnits="userSpaceOnUse" x1="115.9626" x2="253.768" y1="114.7269" y2="252.5324"><stop offset=".1333" stop-color="#a191b2"/><stop offset=".2616" stop-color="#c1b7cc" stop-opacity=".7941"/><stop offset=".3952" stop-color="#dcd6e2" stop-opacity=".5796"/><stop offset=".525" stop-color="#efedf2" stop-opacity=".3712"/><stop offset=".6477" stop-color="#fbfafc" stop-opacity=".1741"/><stop offset=".7562" stop-color="#fff" stop-opacity="0"/></linearGradient><circle cx="107.4" cy="104.1" fill="#c6bbd0" r="97.9"/><circle cx="107.4" cy="104.1" fill="#c6bbd0" r="97.9"/><circle cx="101.4" cy="101.1" fill="url(#a)" r="97.9"/><path d="m253.1 253.2v-139.5l-68.1-68c11.6 15.6 18.7 34.8 19.3 55.7 1.5 54.2-42.6 100.1-96.9 100.6-19.7.2-38-5.5-53.5-15.3l-.2.2 62.6 66.4h136.8z" fill="url(#b)" opacity=".5"/><g fill="#7c6990"><path d="m64.2 158.7h80.5c1.3 0 2.4-1.1 2.4-2.4v-104.4c0-1.3-1.1-2.4-2.4-2.4h-10.4v-13.3c0-.7-.3-1.4-.9-1.9s-1.3-.6-2-.5l-67.8 15.8c-.1 0-.1.1-.2.1-.2.1-.3.1-.4.2s-.3.2-.4.3-.2.2-.3.3-.2.2-.3.4c-.1.1-.1.3-.2.4 0 .2-.1.3-.1.5v.2 104.4c.1 1.2 1.1 2.3 2.5 2.3zm78.1-4.8h-75.7v-99.6h75.7zm-12.9-104.4h-44.2l44.2-10.3z"/><path d="m66.6 78.2c2.8.6 51.7 3.8 78.2-19.3v37.3h-78.2z"/><path d="m66.6 131.5h78.2v14.9h-78.2z"/></g></svg>