<svg enable-background="new 0 0 150 150" viewBox="0 0 150 150" xmlns="http://www.w3.org/2000/svg" xmlns:xlink="http://www.w3.org/1999/xlink"><linearGradient id="a" gradientUnits="userSpaceOnUse" x1="0" x2="117.4699" y1="58.7349" y2="58.7349"><stop offset="0" stop-color="#e5e1e6"/><stop offset=".2863" stop-color="#f2f1f3"/><stop offset=".6242" stop-color="#fcfbfc"/><stop offset="1" stop-color="#fff"/></linearGradient><linearGradient id="b" gradientUnits="userSpaceOnUse" x1="67.7358" x2="150.419" y1="66.8977" y2="149.581"><stop offset=".1333" stop-color="#a191b2"/><stop offset=".2616" stop-color="#c1b7cc" stop-opacity=".7941"/><stop offset=".3952" stop-color="#dcd6e2" stop-opacity=".5796"/><stop offset=".525" stop-color="#efedf2" stop-opacity=".3712"/><stop offset=".6477" stop-color="#fbfafc" stop-opacity=".1741"/><stop offset=".7562" stop-color="#fff" stop-opacity="0"/></linearGradient><clipPath id="c"><path d="m39.6 12.8h58v35.5h-58z"/></clipPath><linearGradient id="d"><stop offset=".0003205128" stop-color="#fff"/><stop offset="1" stop-color="#f1f1f2"/></linearGradient><radialGradient id="e" cx="4071.8306" cy="5371.9009" gradientTransform="matrix(-.5683 -.8228 -.8228 .5683 6812.0981 327.3866)" gradientUnits="userSpaceOnUse" r="9.1152" xlink:href="#d"/><radialGradient id="f" cx="4071.8306" cy="5376.5161" gradientTransform="matrix(-.5683 -.8228 -.8228 .5683 6812.0981 327.3866)" gradientUnits="userSpaceOnUse" r="6.6118" xlink:href="#d"/><circle cx="62.3" cy="60.5" fill="#c6bbd0" r="58.7"/><circle cx="62.3" cy="60.5" fill="#c6bbd0" r="58.7"/><circle cx="58.7" cy="58.7" fill="url(#a)" r="58.7"/><path d="m150 150v-83.7l-40.8-40.8c7 9.4 11.2 20.9 11.6 33.4.9 32.5-25.6 60-58.1 60.4-11.8.1-22.8-3.3-32.1-9.2l-.1.1 37.5 39.8z" fill="url(#b)" opacity=".5"/><path d="m17.9 36.2h78.5v45.7h-78.5z" fill="none"/><g fill="#7c6990"><path d="m90.6 88.5h-63.7c-2.2 0-4.1-1.8-4.1-4.1v-32c0-2.2 1.8-4.1 4.1-4.1h63.7c2.2 0 4.1 1.8 4.1 4.1v32c-.1 2.2-1.9 4.1-4.1 4.1zm-63.7-36.6c-.3 0-.5.2-.5.5v32c0 .3.2.5.5.5h63.7c.3 0 .5-.2.5-.5v-32c0-.3-.2-.5-.5-.5z"/><path d="m89.3 51.4c-.1-.1-5.7-5.4-12.4-10.7-11.4-9-16.3-10.4-18.2-10.4s-6.8 1.4-18.2 10.4c-6.7 5.3-12.3 10.7-12.4 10.7l-2.5-2.6c2.4-2.3 23.5-22.1 33.1-22.1 4.3 0 11 3.7 20.5 11.2 6.8 5.4 12.6 10.9 12.6 10.9z"/><path d="m58.7 73.1c-4.3 0-11-3.7-20.5-11.2-6.7-5.3-12.5-10.8-12.5-10.9l2.5-2.6c.1.1 5.7 5.4 12.4 10.7 11.4 9 16.3 10.4 18.2 10.4s6.8-1.4 18.2-10.4c6.7-5.3 12.3-10.7 12.4-10.7l2.5 2.6c-2.5 2.3-23.6 22.1-33.2 22.1z"/></g><g clip-path="url(#c)"><path d="m74.1 40.7 5.5-3.7-1.5-4.4-2.1-2.4-2.2-1.7-5.6 3.9 3.7 2.8 1.6 3.3z" fill="#fff"/><path d="m73.5 42.2-1.1-4.1-2-3.1c-.9-.7-2-1.4-2.5-1.7-.3 0-.4-.1-.7-.4l-.5-.7.7-.5h.1c.7-.5 6-4.1 6-4.1l.5-.3 2 1.2 3.1 3.3 1.8 5.2zm-3.9-9.8c.5.3 1.1.8 1.9 1.4l.1.1 2.3 3.5.5 2 4.4-3-1.2-3.7-2.8-3-.8-.5zm-1.1.8c-.1.1-.2.1-.3.2.1-.1.2-.1.3-.2z" fill="#7d6991"/><path d="m93.7 26.1-4.1 3.3-.6 1.1c-3.3 4.1-9.7 8.5-9.7 8.5-.3.6-.8.3-.8.3s-.8-.7-1-2.6c-.2-1.3-1.2-3.1-1.4-3.4s-1.5-1.9-2.7-2.6-2.2-2-2.2-2c-.1-.1 0-.7.6-.7 0 0 6.5-4.1 11.6-5.8h1.2l4.7-2.8s.9.2 2.9 2.9c1.6 2.9 1.5 3.8 1.5 3.8z" fill="url(#e)"/><path d="m78.8 40.6c-.4 0-.8-.2-.9-.2s-.1-.1-.2-.1c-.2-.2-1.2-1.1-1.4-3.3-.2-1.1-1-2.6-1.2-2.8 0 0-.1-.1-.1-.1-.2-.3-1.3-1.6-2.2-2.2-1.3-.7-2.3-2-2.5-2.3-.3-.4-.4-1-.2-1.5.2-.6.7-1 1.3-1.1 1.3-.8 7-4.2 11.6-5.7.1 0 .2-.1.3-.1h.9l4.4-2.6c.2-.1.5-.2.8-.1.5.1 1.7.7 3.6 3.3 1.8 2.8 2 4.1 1.9 4.6-.1.3-.2.5-.4.7l-3.9 3.1-.6.9c0 .1-.1.1-.1.2-3.1 3.8-8.6 7.8-9.7 8.6-.3.4-.7.6-1 .7-.1 0-.3 0-.4 0zm-1.8-7.9c.4.6 1.4 2.4 1.6 3.9v.1c0 .5.2.9.3 1.2 1.3-.9 6.2-4.5 9-8l.5-1.1c.1-.2.2-.3.3-.4l3.6-2.8c-.1-.4-.5-1.3-1.4-2.5s-1.5-1.8-1.9-2.1l-4 2.4c-.2.1-.4.2-.6.2h-1c-4.1 1.4-9.3 4.4-10.7 5.3.3.3.7.7 1.1.9 1.4.7 2.8 2.3 3.2 2.9zm-5.1-4.9s0 0 0 0z" fill="#7d6991"/><path d="m73.6 39.4c0 .5.2 1 .3 1.5.4 1 .9 1.8.9 1.8l-.5.2-.9.8-.5.4c-11.7 8-20.9 10.7-23.1 7.4l-.2-.4c-2.3-3.3 3.5-10.9 15.2-19l.6-.3 1-.7.4-.3s1.2 1.7 2.6 2.3c1.5.7 2.7 2.2 2.9 2.6s1.3 2.1 1.3 3.7z" fill="#fff"/><path d="m53.2 54c-2 0-3.5-.6-4.4-1.9l-.2-.4c-2.8-4.1 3.2-12.2 15.5-20.6 0 0 .1 0 .1-.1l.6-.3.9-.6.3-.1c.3-.2.6-.3.9-.3s.6.2.8.5c.3.4 1.2 1.5 2.1 1.9 1.7.8 3 2.4 3.4 3s1.5 2.4 1.6 4.2c0 .3.1.7.2 1.1.3.9.8 1.5.8 1.5.2.3.3.7.1 1-.1.3-.4.6-.7.8l-.2.2-1.3 1.1s-.1.1-.1.1c-8.5 5.8-15.8 8.9-20.4 8.9zm12.1-20.8c-12.5 8.6-16.2 15.3-14.8 17.3l.2.4c1.4 2 8.9.9 21.5-7.7l1-.9c-.1-.3-.3-.6-.4-1-.2-.6-.4-1.2-.4-1.8-.1-1.2-.9-2.7-1.1-3 0 0-.1-.1-.1-.1-.2-.3-1.2-1.6-2.4-2.1-1-.4-1.8-1.2-2.4-1.8l-.4.4s0 0-.1 0z" fill="#7d6991"/><path d="m74.4 43.5c-.2 0-.5-.2-.6-.4-.1-.3 0-.5.2-.7-.2-.3-.4-.8-.6-1.3-.2-.6-.3-1.1-.4-1.7-.1-1.5-1.1-3-1.2-3.3 0 0 0 0 0-.1-.2-.3-1.2-1.7-2.6-2.3-1.1-.5-2-1.4-2.5-2-.3.1-.6.1-.8-.2s-.2-.7.1-.9l.4-.3c.1-.1.3-.2.5-.1.2 0 .3.1.4.3 0 0 1.1 1.5 2.4 2.1 1.6.7 2.9 2.3 3.2 2.8.3.4 1.4 2.2 1.5 3.9 0 .4.1.8.3 1.3.3.9.8 1.7.8 1.7.1.2.1.4.1.5s-.2.3-.4.4l-.5.2c-.2.1-.3.1-.3.1z" fill="#7d6991"/><path d="m79.3 39c-.3.6-.8.3-.8.3s-.8-.7-1-2.6c-.2-1.3-1.2-3.1-1.4-3.4s-1.5-1.9-2.7-2.6-2.2-2-2.2-2c-.1-.1 0-.7.6-.7" fill="url(#f)"/><g fill="#7d6991"><path d="m78.8 40.6c-.4 0-.8-.2-.9-.2s-.1-.1-.2-.1c-.2-.2-1.2-1.1-1.4-3.3-.2-1.1-1-2.6-1.2-2.8 0 0-.1-.1-.1-.1-.2-.3-1.3-1.6-2.2-2.2-1.3-.7-2.3-2-2.5-2.3-.3-.4-.4-1-.2-1.5.3-.8 1-1.2 1.8-1.1.7.1 1.1.6 1.1 1.3 0 .2-.1.4-.2.6.3.3.8.7 1.2 1 1.3.8 2.7 2.4 3.1 3s1.4 2.4 1.6 3.9v.1c.1.5.2 1 .3 1.2.3-.1.6-.1.9.1.6.3.8 1 .5 1.6s-.8.9-1.1 1c-.2-.2-.4-.2-.5-.2z"/><path d="m79.8 28.4-1.7 3c-.1.1 0 .2.2.2l3.4-.5c.1 0 .2-.1.1-.2 0 0-.8-.7-1-1.1-.3-.4-.6-1.4-.6-1.4-.2-.1-.4-.1-.4 0z"/><path d="m67.7 41.3 1.9-3.2c.1-.1 0-.3-.2-.2l-3.6.6c-.1 0-.2.2-.1.3 0 0 .8.8 1.1 1.2s.7 1.5.7 1.5.2-.1.2-.2z"/></g></g><circle cx="58.7" cy="64.4" fill="#7c6990" r="3.2"/></svg>