<svg xmlns="http://www.w3.org/2000/svg" xmlns:xlink="http://www.w3.org/1999/xlink" viewBox="0 0 250 250"><defs><style>.a{fill:url(#a);}.b,.n,.o{fill:none;}.c{isolation:isolate;}.d{clip-path:url(#b);}.e{fill:#c6bbd0;}.f{clip-path:url(#c);}.g{fill:url(#d);}.h{opacity:0.5;mix-blend-mode:multiply;}.i{clip-path:url(#f);}.j{clip-path:url(#g);}.k{mask:url(#h);}.l{fill:url(#i);}.m{fill:#7c6990;}.n,.o{stroke:#7c6990;stroke-miterlimit:10;}.n{stroke-width:0.25px;}.o{stroke-width:6px;}</style><linearGradient id="a" y1="250.01" x2="1" y2="250.01" gradientTransform="matrix(0, 194.89, 194.89, 0, -48573.15, 95.18)" gradientUnits="userSpaceOnUse"><stop offset="0" stop-color="#fff"/><stop offset="0.13" stop-color="#fff"/><stop offset="0.18" stop-color="#dedede"/><stop offset="0.27" stop-color="#a4a4a4"/><stop offset="0.36" stop-color="#727272"/><stop offset="0.44" stop-color="#494949"/><stop offset="0.53" stop-color="#292929"/><stop offset="0.61" stop-color="#121212"/><stop offset="0.69" stop-color="#050505"/><stop offset="0.76"/><stop offset="1"/></linearGradient><clipPath id="b"><rect class="b" width="250" height="250"/></clipPath><clipPath id="c"><circle class="b" cx="97.89" cy="97.89" r="97.89" transform="translate(-19.79 24.97) rotate(-13.22)"/></clipPath><linearGradient id="d" y1="250" x2="1" y2="250" gradientTransform="matrix(195.78, 0, 0, -195.78, 0, 49043.67)" gradientUnits="userSpaceOnUse"><stop offset="0" stop-color="#e5e1e6"/><stop offset="0.27" stop-color="#f2f0f2"/><stop offset="0.62" stop-color="#fbfafb"/><stop offset="1" stop-color="#fefefe"/></linearGradient><clipPath id="f"><rect class="b" x="50.7" y="42.45" width="199.3" height="207.55"/></clipPath><clipPath id="g"><path class="b" d="M250,250V110.51L181.94,42.45A97.43,97.43,0,0,1,201.21,98.1c1.47,54.24-42.63,100.07-96.88,100.6a97.48,97.48,0,0,1-53.47-15.28l-.16.22L113.3,250Z"/></clipPath><mask id="h" x="-53.07" y="-57.2" width="406.85" height="406.85" maskUnits="userSpaceOnUse"><rect class="a" x="6.51" y="2.38" width="287.69" height="287.69" transform="translate(-59.36 149.14) rotate(-45)"/></mask><linearGradient id="i" y1="250.01" x2="1" y2="250.01" gradientTransform="matrix(0, 194.89, 194.89, 0, -48573.15, 95.18)" gradientUnits="userSpaceOnUse"><stop offset="0" stop-color="#a191b2"/><stop offset="0.13" stop-color="#a191b2"/><stop offset="0.76" stop-color="#a191b2"/><stop offset="1" stop-color="#a191b2"/></linearGradient></defs><title>whereeee</title><g class="c"><g class="d"><path class="e" d="M201.81,100.9A97.9,97.9,0,1,1,103.92,3a97.9,97.9,0,0,1,97.89,97.89"/><path class="e" d="M201.81,100.9A97.9,97.9,0,1,1,103.92,3a97.9,97.9,0,0,1,97.89,97.89"/></g><g class="f"><rect class="g" width="195.78" height="195.78"/></g><g class="d"><g class="h"><g class="i"><g class="j"><g class="k"><rect class="l" x="6.51" y="2.38" width="287.69" height="287.69" transform="translate(-59.36 149.14) rotate(-45)"/></g></g></g></g><rect class="m" x="86.88" y="18.07" width="25.11" height="12.81" rx="1.72" ry="1.72"/><rect class="m" x="96.3" y="24.48" width="6.28" height="14.68"/><path class="m" d="M80.73,65.85v55.7H74.05V81.64H59.59V76.3h.16c9.35,0,14.54-3.3,15.87-10.45Z"/><path class="n" d="M80.73,65.85v55.7H74.05V81.64H59.59V76.3h.16c9.35,0,14.54-3.3,15.87-10.45Z"/><path class="m" d="M128.66,73.94c2.43,4.4,3.45,10.69,3.45,20.27,0,9-.86,15.09-3.06,19.49-3.3,6.52-8.8,8.79-15.48,8.79-6.44,0-11.63-2.19-14.69-7.38-2.59-4.4-3.85-10.06-3.85-20.9,0-10.68,1.26-17,4-21.21,3.38-5.27,8.4-7.15,14.53-7.15,6.52,0,11.79,2.12,15.09,8.09m-24.52,36.14c2,4.87,5.5,6.52,9.43,6.52a9.37,9.37,0,0,0,9-5.5C125,105.92,125,99.87,125,93.43c0-8-.23-21.69-11.55-21.69a9.53,9.53,0,0,0-9.11,6c-1.49,3.38-2.28,7.23-2.28,16.42,0,8.88.63,12.49,2,16"/><path class="n" d="M128.66,73.94c2.43,4.4,3.45,10.69,3.45,20.27,0,9-.86,15.09-3.06,19.49-3.3,6.52-8.8,8.79-15.48,8.79-6.44,0-11.63-2.19-14.69-7.38-2.59-4.4-3.85-10.06-3.85-20.9,0-10.68,1.26-17,4-21.21,3.38-5.27,8.4-7.15,14.53-7.15C120.09,65.85,125.36,68,128.66,73.94Zm-24.52,36.14c2,4.87,5.5,6.52,9.43,6.52a9.37,9.37,0,0,0,9-5.5C125,105.92,125,99.87,125,93.43c0-8-.23-21.69-11.55-21.69a9.53,9.53,0,0,0-9.11,6c-1.49,3.38-2.28,7.23-2.28,16.42C102.1,103,102.73,106.62,104.14,110.08Z"/><polygon class="m" points="70.22 128.88 78.71 128.88 81.47 140.27 81.53 140.27 84.29 128.88 92.78 128.88 92.78 148.24 87.14 148.24 87.14 135.82 87.09 135.82 83.72 148.24 79.28 148.24 75.92 135.82 75.86 135.82 75.86 148.24 70.22 148.24 70.22 128.88"/><rect class="m" x="98.01" y="128.88" width="5.96" height="19.36"/><polygon class="m" points="109.23 128.88 115.33 128.88 120.97 139.24 121.02 139.24 121.02 128.88 126.67 128.88 126.67 148.24 120.86 148.24 114.92 137.66 114.87 137.66 114.87 148.24 109.23 148.24 109.23 128.88"/><circle class="o" cx="99.4" cy="105.42" r="64.76"/></g><rect class="b" width="250" height="250"/></g></svg>