<svg viewBox="0 0 250.15 250" xmlns="http://www.w3.org/2000/svg" xmlns:xlink="http://www.w3.org/1999/xlink"><linearGradient id="a" gradientUnits="userSpaceOnUse" x1="113.05" x2="218.18" y1="111.5" y2="216.63"><stop offset=".29" stop-color="#624b78"/><stop offset=".3" stop-color="#624b78" stop-opacity=".94"/><stop offset=".38" stop-color="#624b78" stop-opacity=".61"/><stop offset=".46" stop-color="#624b78" stop-opacity=".34"/><stop offset=".53" stop-color="#624b78" stop-opacity=".15"/><stop offset=".6" stop-color="#624b78" stop-opacity=".04"/><stop offset=".66" stop-color="#624b78" stop-opacity="0"/></linearGradient><linearGradient id="b" gradientUnits="userSpaceOnUse" x1=".15" x2="195.94" y1="97.89" y2="97.89"><stop offset="0" stop-color="#e5e1e6"/><stop offset=".28" stop-color="#f2f1f3"/><stop offset=".62" stop-color="#fcfbfc"/><stop offset="1" stop-color="#fff"/></linearGradient><path d="m250.15 250v-139.5l-68.05-68a97.42 97.42 0 0 1 19.26 55.6c1.47 54.24-42.62 100.07-96.88 100.6a97.48 97.48 0 0 1 -53.48-15.28l-.15.22 62.6 66.36z" fill="url(#a)" opacity=".5"/><path d="m0 0h250v250h-250z" fill="none"/><circle cx="104.07" cy="100.9" fill="#c6bbd0" r="97.89"/><circle cx="104.07" cy="100.9" fill="#c6bbd0" r="97.89"/><circle cx="98.05" cy="97.89" fill="url(#b)" r="97.89"/><g fill="#7c6990"><path d="m104.91 127.33a5.34 5.34 0 0 1 0-1.82h-68.67l-2.7-1.77v-6.93a7.27 7.27 0 0 1 5.28-6.87 66 66 0 0 0 9.26-3.7c1.3-.6 2.66-1.22 4.18-1.88a24.7 24.7 0 0 0 10.62-8.11v-.06a4.5 4.5 0 0 0 .9-2.71v-4.07a4.55 4.55 0 0 0 -1.39-3.27c-3.45-3.33-4.14-6.08-5.49-12.51a4.56 4.56 0 0 0 -1-2c-.46-3.13-.87-6.62-.91-8a4.7 4.7 0 0 0 1.19-2.71c.48-11.93 7.26-19.67 17.26-19.73s16.81 7.8 17.29 19.72a4.06 4.06 0 0 0 .76 2.1l-.74 9a4.33 4.33 0 0 0 -.74 1.65c-1.36 6.44-2 9.18-5.48 12.5a4.56 4.56 0 0 0 -1.4 3.28v4.07a4.61 4.61 0 0 0 .94 2.77 24.77 24.77 0 0 0 10.63 8.12c1.51.65 2.88 1.28 4.18 1.87 2.46 1.13 4.66 2.14 7.12 3q-.35-.69-.63-1.41a4 4 0 0 1 .37-4.07c-1.56-.63-3.1-1.33-4.77-2.09-1.33-.61-2.73-1.25-4.26-1.91a19.66 19.66 0 0 1 -8.55-6.45v-3.7c4.52-4.44 5.43-8.58 6.74-14.8.14-.21.3-.44.46-.73a2.47 2.47 0 0 0 .31-1l.81-9.91a3.79 3.79 0 0 0 -.76-2.81s0 0 0 0c-.72-14.53-9.58-24.21-22.24-24.29-12.62.08-21.48 9.76-22.26 24.16a5.75 5.75 0 0 1 -.44.54 2.55 2.55 0 0 0 -.42.61c-.34.67-.81 1.6.74 11.81a2.49 2.49 0 0 0 1 1.62c1.3 6.19 2.2 10.33 6.73 14.78v3.69a19.56 19.56 0 0 1 -8.54 6.44c-1.54.67-2.94 1.31-4.27 1.92a61.81 61.81 0 0 1 -8.59 3.44 12.35 12.35 0 0 0 -8.88 11.7v8.29a2.53 2.53 0 0 0 1.14 2.1l4.47 2.92a2.51 2.51 0 0 0 1.37.42h70.24a20.93 20.93 0 0 1 -.86-3.21z"/><path d="m91.09 102.07.56-2.23-1.05-2.84a2.41 2.41 0 0 0 -2.6 1.16l-17 30.09h5.46"/><path d="m68.29 123.29 9.32-16.29-.19-3.89 2.83-3.4a1.59 1.59 0 0 0 0-2.29l-5.25-4.05a1.7 1.7 0 0 0 -2.4 0l-5.28 4.07a1.58 1.58 0 0 0 .05 2.29l2.83 3.39-.34 13.13-10.52-19.2c-.51-1-1 .6-2.05.84l-1.4 1.3z"/><path d="m85.56 118.01h13.75v4.39h-13.75z"/><path d="m143.69 139.29c-.42-.45-.78-.95-1.16-1.42a5.05 5.05 0 0 1 -1.29-2.21s0-.11 0-.16h-34.17v-59.67h11.62a5.69 5.69 0 0 1 -.31-4h-15.31v67.67h40.93c-.13-.07-.23-.13-.31-.21z"/><path d="m153.74 75.83v33.75a5.49 5.49 0 0 1 1.32-.16 4.89 4.89 0 0 1 2.68.74v-38.33h-14.74a5.7 5.7 0 0 1 -.6 4z"/><path d="m140 79.83h-19.14a4.54 4.54 0 0 1 -4.54-4.54v-3.72a4.55 4.55 0 0 1 4.54-4.57h19.14a4.55 4.55 0 0 1 4.54 4.55v3.72a4.55 4.55 0 0 1 -4.54 4.56zm-19.14-9.83a1.54 1.54 0 0 0 -1.54 1.55v3.72a1.54 1.54 0 0 0 1.54 1.54h19.14a1.54 1.54 0 0 0 1.54-1.54v-3.7a1.54 1.54 0 0 0 -1.54-1.57z"/><path d="m113.31 109.22h34.2v3h-34.2z"/><path d="m113.31 99.11h34.2v3h-34.2z"/><path d="m113.31 89h34.2v3h-34.2z"/><path d="m140.7 119.33h-27.39v3h26.51a5.37 5.37 0 0 1 .88-3z"/><path d="m124.87 68h1.21a5.11 5.11 0 0 1 9.38 0c1.07 0 2.14.06 3.2.13a8.11 8.11 0 0 0 -15.72-.13z"/><path d="m154.94 145a17.88 17.88 0 1 1 17.87-17.87 17.9 17.9 0 0 1 -17.87 17.87zm0-32.75a14.88 14.88 0 1 0 14.87 14.88 14.9 14.9 0 0 0 -14.87-14.91z"/><path d="m151.9 136.58-7.49-7.48a1.5 1.5 0 1 1 2.13-2.12l5.36 5.36 10.69-10.7a1.51 1.51 0 0 1 2.13 2.13z"/></g></svg>