<svg viewBox="0 0 250 250" xmlns="http://www.w3.org/2000/svg" xmlns:xlink="http://www.w3.org/1999/xlink"><linearGradient id="a" gradientUnits="userSpaceOnUse" x2="195.78" y1="97.89" y2="97.89"><stop offset="0" stop-color="#e5e1e6"/><stop offset=".28" stop-color="#f2f1f3"/><stop offset=".62" stop-color="#fcfbfc"/><stop offset="1" stop-color="#fff"/></linearGradient><linearGradient id="b" gradientUnits="userSpaceOnUse" x1="112.89" x2="250.7" y1="111.5" y2="249.3"><stop offset=".13" stop-color="#a191b2"/><stop offset=".16" stop-color="#a99ab9" stop-opacity=".91"/><stop offset=".27" stop-color="#c3b9ce" stop-opacity=".64"/><stop offset=".38" stop-color="#d9d2e0" stop-opacity=".41"/><stop offset=".48" stop-color="#e9e6ed" stop-opacity=".23"/><stop offset=".58" stop-color="#f5f4f7" stop-opacity=".1"/><stop offset=".67" stop-color="#fdfcfd" stop-opacity=".03"/><stop offset=".76" stop-color="#fff" stop-opacity="0"/></linearGradient><circle cx="103.92" cy="100.9" fill="#c6bbd0" r="97.89"/><circle cx="103.92" cy="100.9" fill="#c6bbd0" r="97.89"/><circle cx="97.89" cy="97.89" fill="url(#a)" r="97.89"/><path d="m250 250v-139.5l-68.06-68a97.43 97.43 0 0 1 19.27 55.6c1.47 54.24-42.63 100.07-96.88 100.6a97.48 97.48 0 0 1 -53.47-15.28l-.16.22 62.6 66.36z" fill="url(#b)" opacity=".5"/><g fill="none"><path d="m68.15 75a2.29 2.29 0 1 0 -2.3-2.29 2.3 2.3 0 0 0 2.3 2.29z"/><path d="m70.25 98.37v4.09h55.28v-4.09a9.15 9.15 0 0 0 -5-8.16c-5.34-2.75-13.61-6-22.64-6s-17.29 3.28-22.63 6a9.14 9.14 0 0 0 -5.01 8.16z"/><path d="m127.83 70.47a2.29 2.29 0 1 0 2.3 2.28 2.29 2.29 0 0 0 -2.3-2.28z"/><path d="m134.24 129.89h-72.69l.02.1h72.65z"/><path d="m139.35 107h-82.91a4.6 4.6 0 0 0 -4.61 4.57v9.15a4.59 4.59 0 0 0 4.61 4.57h82.91a4.59 4.59 0 0 0 4.6-4.57v-9.12a4.59 4.59 0 0 0 -4.6-4.6z"/><path d="m86.38 59a11.52 11.52 0 1 0 11.51-11.39 11.48 11.48 0 0 0 -11.51 11.39z"/></g><path d="m81.77 59a16.12 16.12 0 1 0 16.12-16 16.08 16.08 0 0 0 -16.12 16zm16.12-11.39a11.43 11.43 0 1 1 -11.51 11.39 11.49 11.49 0 0 1 11.51-11.39z" fill="#7c6990" stroke="#7c6990" stroke-miterlimit="10" stroke-width=".6"/><path d="m139.37 102.47c0-1.52 0-3 .09-4.35.24-9.34.33-15.73-5.47-22.32a6.81 6.81 0 0 0 .75-3 6.91 6.91 0 1 0 -6.91 6.86 7 7 0 0 0 2.86-.63c4.46 5.22 4.39 10.32 4.16 19 0 1.4-.06 2.9-.09 4.46h-4.63v-4.12a13.7 13.7 0 0 0 -7.48-12.22c-5.8-3-14.8-6.54-24.76-6.54s-19 3.56-24.76 6.54a13.71 13.71 0 0 0 -7.48 12.22v4.09h-4.43c0-1.56 0-3.06-.09-4.46-.23-8.7-.3-13.8 4.17-19a6.84 6.84 0 1 0 -4.06-6.23 6.81 6.81 0 0 0 .75 3c-5.79 6.59-5.71 13-5.47 22.32 0 1.36.07 2.82.09 4.34h-.17a9.19 9.19 0 0 0 -9.22 9.14v9.15a9.19 9.19 0 0 0 9.22 9.14h.41v.1h4.7v-.1h72.68v.1h4.7v-.1h.42a9.18 9.18 0 0 0 9.21-9.14v-9.12a9.18 9.18 0 0 0 -9.19-9.13zm-11.54-27.47a2.29 2.29 0 1 1 2.3-2.29 2.3 2.3 0 0 1 -2.3 2.29zm-59.68-4.53a2.29 2.29 0 1 1 -2.3 2.28 2.29 2.29 0 0 1 2.3-2.28zm29.74 13.71c9 0 17.3 3.28 22.64 6a9.15 9.15 0 0 1 5 8.16v4.09h-55.28v-4.06a9.14 9.14 0 0 1 5-8.16c5.35-2.75 13.61-6.03 22.64-6.03zm46.11 36.57a4.59 4.59 0 0 1 -4.6 4.57h-82.96a4.59 4.59 0 0 1 -4.61-4.57v-9.15a4.6 4.6 0 0 1 4.61-4.6h82.91a4.59 4.59 0 0 1 4.6 4.57z" fill="#7c6990" stroke="#7c6990" stroke-miterlimit="10" stroke-width=".6"/><path d="m118.25 150a2.29 2.29 0 0 0 1.81 2.69 2.38 2.38 0 0 0 .46 0 2.29 2.29 0 0 0 2.25-1.83l4.23-20.86h-4.7z" fill="#7c6990" stroke="#7c6990" stroke-miterlimit="10" stroke-width=".6"/><path d="m75.27 152.74a2.28 2.28 0 0 0 2.26-2.74l-4-20h-4.7l4.17 20.91a2.29 2.29 0 0 0 2.27 1.83z" fill="#7c6990" stroke="#7c6990" stroke-miterlimit="10" stroke-width=".6"/></svg>