<svg enable-background="new 0 0 250 250" viewBox="0 0 250 250" xmlns="http://www.w3.org/2000/svg" xmlns:xlink="http://www.w3.org/1999/xlink"><linearGradient id="a" gradientUnits="userSpaceOnUse" x1="0" x2="195.7831" y1="97.8916" y2="97.8916"><stop offset="0" stop-color="#e5e1e6"/><stop offset=".2863" stop-color="#f2f1f3"/><stop offset=".6242" stop-color="#fcfbfc"/><stop offset="1" stop-color="#fff"/></linearGradient><linearGradient id="b" gradientUnits="userSpaceOnUse" x1="113.3659" x2="251.1713" y1="111.4962" y2="249.3016"><stop offset=".1333" stop-color="#a191b2"/><stop offset=".2616" stop-color="#c1b7cc" stop-opacity=".7941"/><stop offset=".3952" stop-color="#dcd6e2" stop-opacity=".5796"/><stop offset=".525" stop-color="#efedf2" stop-opacity=".3712"/><stop offset=".6477" stop-color="#fbfafc" stop-opacity=".1741"/><stop offset=".7562" stop-color="#fff" stop-opacity="0"/></linearGradient><circle cx="103.9" cy="100.9" fill="#c6bbd0" r="97.9"/><circle cx="103.9" cy="100.9" fill="#c6bbd0" r="97.9"/><circle cx="97.9" cy="97.9" fill="url(#a)" r="97.9"/><path d="m250.5 250v-139.5l-68.1-68.1c11.6 15.6 18.7 34.8 19.3 55.7 1.5 54.2-42.6 100.1-96.9 100.6-19.7.2-38-5.5-53.5-15.3l-.2.2 62.6 66.4z" fill="url(#b)" opacity=".5"/><g style="fill:none;stroke:#7c6990;stroke-width:5.5;stroke-linecap:round;stroke-linejoin:round;stroke-miterlimit:10"><ellipse cx="108.4" cy="74.4" rx="36.5" ry="36.6"/><ellipse cx="108.4" cy="74.4" rx="1.7" ry="1.7"/><path d="m108.4 48.2v26.2l-15.6 15.7"/><path d="m87.2 163.2v-16.8c0-.8-.3-1.5-.8-2s-1.3-.8-2-.8h-24.6c-4.7 0-8.6-3.9-8.6-8.6v-28.7c0-.8-.3-1.5-.8-2s-1.3-.8-2-.8l-11.4-1.7c-1.8 0-2.1-2.5-2.2-4.1 0-.8 5.6-5.1 6.3-5.7l15-15.1c.6-.6.9-1.4.8-2.2v-.1c.1-28.3 23.1-51.3 51.6-51.4 28.5.1 51.5 23.1 51.6 51.6 0 14.8-6.3 28.1-16.3 37.5-.6.5-.9 1.3-.9 2.1v48.8"/></g></svg>