<svg enable-background="new 0 0 250 250" viewBox="0 0 250 250" xmlns="http://www.w3.org/2000/svg" xmlns:xlink="http://www.w3.org/1999/xlink"><linearGradient id="a" gradientUnits="userSpaceOnUse" x1="0" x2="195.7831" y1="97.8916" y2="97.8916"><stop offset="0" stop-color="#e5e1e6"/><stop offset=".2863" stop-color="#f2f1f3"/><stop offset=".6242" stop-color="#fcfbfc"/><stop offset="1" stop-color="#fff"/></linearGradient><linearGradient id="b" gradientUnits="userSpaceOnUse" x1="113.3659" x2="251.1713" y1="111.4962" y2="249.3016"><stop offset=".1333" stop-color="#a191b2"/><stop offset=".2616" stop-color="#c1b7cc" stop-opacity=".7941"/><stop offset=".3952" stop-color="#dcd6e2" stop-opacity=".5796"/><stop offset=".525" stop-color="#efedf2" stop-opacity=".3712"/><stop offset=".6477" stop-color="#fbfafc" stop-opacity=".1741"/><stop offset=".7562" stop-color="#fff" stop-opacity="0"/></linearGradient><circle cx="103.9" cy="100.9" fill="#c6bbd0" r="97.9"/><circle cx="103.9" cy="100.9" fill="#c6bbd0" r="97.9"/><circle cx="97.9" cy="97.9" fill="url(#a)" r="97.9"/><path d="m250.5 250v-139.5l-68.1-68.1c11.6 15.6 18.7 34.8 19.3 55.7 1.5 54.2-42.6 100.1-96.9 100.6-19.7.2-38-5.5-53.5-15.3l-.2.2 62.6 66.4z" fill="url(#b)" opacity=".5"/><path d="m34.7 139.8h16.6" style="fill:none;stroke:#7d6991;stroke-width:3;stroke-linecap:round;stroke-linejoin:round;stroke-miterlimit:10"/><path d="m144.3 64.3c1.5 0 2.9 1 3.2 2.5.5 1.8-.6 3.6-2.4 4.1-11 2.8-22.3 4.5-33.7 4.9-.1 0-.2 0-.2.1-.1 0-.2 0-.3.1-.1 0-.1.1-.2.1-.1.1-.1.1-.2.2s-.1.1-.2.2c0 .1-.1.1-.1.2s0 .2-.1.3v.2 36.3.2c0 .1 0 .2.1.3 0 .1.1.2.1.3s0 .1.1.2c8.2 10.6 20.8 21.4 31.8 29 1.9 1.3 2.4 3.9 1.1 5.8-.6.9-1.6 1.5-2.7 1.7-.3.1-.5.1-.8.1-.8 0-1.6-.3-2.3-.7-12.8-8.8-26.7-21.3-35.9-33.8 0 0 0 0-.1-.1s-.1-.1-.2-.2c-.1 0-.1-.1-.2-.1s-.2-.1-.3-.1-.2 0-.2-.1c0 0 0 0-.1 0s-.1 0-.2 0-.2 0-.3 0h-.1l-30.1 12.2s0 0-.1 0-.2.1-.2.1c-.1.1-.1.1-.2.2s-.1.1-.1.2-.1.2-.1.2v.1l-8.7 28.6c-.3 1.1-1 1.9-2 2.5-.6.3-1.3.5-2 .5-.4 0-.8-.1-1.2-.2-2.2-.7-3.4-3-2.8-5.2l9.4-31.2c.4-1.2 1.3-2.2 2.5-2.7l20.4-8.5c.1 0 .2-.1.3-.2.1 0 .1-.1.2-.1.1-.1.1-.2.2-.2 0-.1.1-.1.1-.2s0-.1 0-.2.1-.2.1-.3v-34.4c0-.1 0-.2-.1-.2 0-.1 0-.2-.1-.3 0-.1-.1-.2-.1-.2 0-.1-.1-.1-.1-.2-.1-.1-.1-.1-.2-.2 0-.1 0-.2-.1-.2s-.2 0-.3-.1c-.1 0-.2-.1-.2-.1-11.2-.5-22.3-2.1-33.2-4.9-1.8-.5-2.9-2.3-2.4-4.1.4-1.5 1.8-2.5 3.2-2.5.3 0 .5 0 .8.1 11.8 3 24 4.6 36.3 4.8h18.1.1c12.2-.2 24.4-1.8 36.2-4.8zm0-5.9c-.8 0-1.5.1-2.3.3-11.4 2.9-23.1 4.5-34.8 4.7h-18.1c-11.7-.2-23.4-1.8-34.8-4.7-.8-.2-1.5-.3-2.3-.3-4.2 0-7.9 2.9-8.9 6.9-.6 2.4-.3 4.9 1 7s3.3 3.6 5.6 4.2c9.8 2.5 19.9 4.1 30.1 4.8v27.2l-17.6 7.3c-2.8 1.1-5 3.5-5.9 6.4l-9.4 31.2c-1.6 5.3 1.4 10.9 6.7 12.5 1 .3 1.9.4 2.9.4 1.6 0 3.3-.4 4.7-1.2 2.4-1.3 4.1-3.4 4.9-5.9l8-26.6 24.9-9.9c8.8 11.2 21.8 23.1 35.2 32.3l1.5 1h.4c1.2.5 2.5.7 3.8.7.6 0 1.3-.1 1.9-.2 2.6-.5 4.9-2 6.4-4.2s2.1-4.9 1.6-7.5-2-4.9-4.2-6.4c-11.2-7.7-22.4-17.8-29.5-26.6v-30.4c10.3-.7 20.6-2.3 30.6-4.9 4.9-1.2 7.9-6.3 6.7-11.2-1.2-4-4.9-6.9-9.1-6.9" fill="#7e6991"/><g fill="none" stroke-miterlimit="10"><ellipse cx="97" cy="46.5" rx="13.6" ry="13.6" stroke="#7e6991" stroke-width="5" transform="matrix(.1387 -.9903 .9903 .1387 37.5479 136.0901)"/><path d="m69.1 139.8h50.1" stroke="#7d6991" stroke-linecap="round" stroke-linejoin="round" stroke-width="3"/><path d="m143.1 139.8h18.8" stroke="#7d6991" stroke-linecap="round" stroke-linejoin="round" stroke-width="3"/></g></svg>