<svg viewBox="0 0 250 250" xmlns="http://www.w3.org/2000/svg" xmlns:xlink="http://www.w3.org/1999/xlink"><linearGradient id="a" gradientUnits="userSpaceOnUse" x1=".2" x2="195.99" y1="97.98" y2="97.98"><stop offset="0" stop-color="#e5e1e6"/><stop offset=".28" stop-color="#f2f1f3"/><stop offset=".62" stop-color="#fcfbfc"/><stop offset="1" stop-color="#fff"/></linearGradient><linearGradient id="b" gradientUnits="userSpaceOnUse" x1="113.57" x2="251.37" y1="111.59" y2="249.39"><stop offset=".13" stop-color="#a191b2"/><stop offset=".16" stop-color="#a99ab9" stop-opacity=".91"/><stop offset=".27" stop-color="#c3b9ce" stop-opacity=".64"/><stop offset=".38" stop-color="#d9d2e0" stop-opacity=".41"/><stop offset=".48" stop-color="#e9e6ed" stop-opacity=".23"/><stop offset=".58" stop-color="#f5f4f7" stop-opacity=".1"/><stop offset=".67" stop-color="#fdfcfd" stop-opacity=".03"/><stop offset=".76" stop-color="#fff" stop-opacity="0"/></linearGradient><circle cx="104.12" cy="100.99" fill="#c6bbd0" r="97.89"/><circle cx="104.12" cy="100.99" fill="#c6bbd0" r="97.89"/><circle cx="98.09" cy="97.98" fill="url(#a)" r="97.89"/><path d="m250.68 250.09v-139.49l-68.06-68.06a97.35 97.35 0 0 1 19.26 55.65c1.48 54.24-42.62 100.07-96.88 100.6a97.43 97.43 0 0 1 -53.46-15.28l-.16.22 62.62 66.36z" fill="url(#b)" opacity=".5"/><g fill="#7c6990"><path d="m138.26 108.29a3.14 3.14 0 0 1 -3.14-3.13v-48.54a4.51 4.51 0 0 0 -4.51-4.52h-13.73a3.14 3.14 0 0 1 0-6.28h13.73a10.81 10.81 0 0 1 10.79 10.8v48.54a3.14 3.14 0 0 1 -3.14 3.13z"/><path d="m116.82 147.91h-46.82a11.89 11.89 0 0 1 -11.85-11.91v-79.39a10.79 10.79 0 0 1 10.78-10.79h12.07a3.14 3.14 0 0 1 0 6.28h-12a4.51 4.51 0 0 0 -4.51 4.51v79.39a5.61 5.61 0 0 0 5.51 5.64h46.79a3.14 3.14 0 1 1 0 6.27z"/><path d="m72.36 70.27h52.28v6.27h-52.28z"/><path d="m72.36 85.35h52.28v6.27h-52.28z"/><path d="m72.36 100.94h40.59v6.27h-40.59z"/><path d="m72.36 116.53h30.9v6.27h-30.9z"/><path d="m136.35 157.59a27.79 27.79 0 1 1 27.79-27.79 27.82 27.82 0 0 1 -27.79 27.79zm0-49.3a21.51 21.51 0 1 0 21.51 21.51 21.54 21.54 0 0 0 -21.51-21.51z"/><path d="m133.38 144.06a3.13 3.13 0 0 1 -1.94-.67l-10.63-8.39a3.14 3.14 0 1 1 3.88-4.94l8.21 6.46 13.62-16.68a3.13 3.13 0 1 1 4.85 4l-15.57 19.07a3.1 3.1 0 0 1 -2.42 1.15z"/><path d="m114.83 59.49h-31.83a5.18 5.18 0 0 1 -5.18-5.18v-8.68a5.19 5.19 0 0 1 5.18-5.19h31.8a5.2 5.2 0 0 1 5.2 5.19v8.68a5.19 5.19 0 0 1 -5.17 5.18zm-30.71-6.27h29.63v-6.5h-29.63z"/><path d="m112 42.7h-6.27a6 6 0 0 0 -12 0h-6.22a12.26 12.26 0 0 1 24.52 0z"/></g></svg>