<svg viewBox="0 0 250 250" xmlns="http://www.w3.org/2000/svg" xmlns:xlink="http://www.w3.org/1999/xlink"><linearGradient id="a" gradientUnits="userSpaceOnUse" x1="112.89" x2="218.03" y1="111.5" y2="216.63"><stop offset=".29" stop-color="#624b78"/><stop offset=".3" stop-color="#624b78" stop-opacity=".94"/><stop offset=".38" stop-color="#624b78" stop-opacity=".61"/><stop offset=".46" stop-color="#624b78" stop-opacity=".34"/><stop offset=".53" stop-color="#624b78" stop-opacity=".15"/><stop offset=".6" stop-color="#624b78" stop-opacity=".04"/><stop offset=".66" stop-color="#624b78" stop-opacity="0"/></linearGradient><linearGradient id="b" gradientUnits="userSpaceOnUse" x2="195.78" y1="97.89" y2="97.89"><stop offset="0" stop-color="#e5e1e6"/><stop offset=".28" stop-color="#f2f1f3"/><stop offset=".62" stop-color="#fcfbfc"/><stop offset="1" stop-color="#fff"/></linearGradient><path d="m250 250v-139.5l-68.06-68a97.43 97.43 0 0 1 19.27 55.6c1.47 54.24-42.63 100.07-96.88 100.6a97.48 97.48 0 0 1 -53.47-15.28l-.16.22 62.6 66.36z" fill="url(#a)" opacity=".5"/><path d="m-.15 0h250v250h-250z" fill="none"/><circle cx="103.92" cy="100.9" fill="#c6bbd0" r="97.89"/><circle cx="103.92" cy="100.9" fill="#c6bbd0" r="97.89"/><circle cx="97.89" cy="97.89" fill="url(#b)" r="97.89"/><path d="m87.66 163.21v-16.79a2.85 2.85 0 0 0 -2.86-2.86h-24.57a8.62 8.62 0 0 1 -8.59-8.6v-28.65a2.85 2.85 0 0 0 -.84-2 2.81 2.81 0 0 0 -2-.84l-11.36-1.67c-1.84 0-2.14-2.45-2.18-4.09 0-.75 5.61-5 6.28-5.73l15-15.12a2.91 2.91 0 0 0 .83-2.16v-.06a51.58 51.58 0 1 1 86.87 37.68 2.87 2.87 0 0 0 -.9 2.09v48.8" fill="none" stroke="#7c6990" stroke-linecap="round" stroke-linejoin="round" stroke-width="5.5"/><circle cx="111.03" cy="137.46" fill="#7c6990" r="7"/><path d="m84 75.47a27 27 0 0 1 54 0c0 14.92-12.47 27-27.39 27v18.15" fill="none" stroke="#7c6990" stroke-linecap="round" stroke-linejoin="round" stroke-width="10"/></svg>