<svg viewBox="0 0 250 250" xmlns="http://www.w3.org/2000/svg" xmlns:xlink="http://www.w3.org/1999/xlink"><linearGradient id="a" gradientUnits="userSpaceOnUse" x1="-.02" x2="195.76" y1="98.21" y2="98.21"><stop offset="0" stop-color="#e5e1e6"/><stop offset=".28" stop-color="#f2f1f3"/><stop offset=".62" stop-color="#fcfbfc"/><stop offset="1" stop-color="#fff"/></linearGradient><linearGradient id="b" gradientUnits="userSpaceOnUse" x1="113.2" x2="251.01" y1="111.72" y2="249.53"><stop offset=".13" stop-color="#a191b2"/><stop offset=".16" stop-color="#a99ab9" stop-opacity=".91"/><stop offset=".27" stop-color="#c3b9ce" stop-opacity=".64"/><stop offset=".38" stop-color="#d9d2e0" stop-opacity=".41"/><stop offset=".48" stop-color="#e9e6ed" stop-opacity=".23"/><stop offset=".58" stop-color="#f5f4f7" stop-opacity=".1"/><stop offset=".67" stop-color="#fdfcfd" stop-opacity=".03"/><stop offset=".76" stop-color="#fff" stop-opacity="0"/></linearGradient><circle cx="103.75" cy="101.13" fill="#c6bbd0" r="97.89"/><circle cx="103.75" cy="101.13" fill="#c6bbd0" r="97.89"/><circle cx="97.87" cy="98.21" fill="url(#a)" r="97.89"/><path d="m250.31 250.23v-139.5l-68.06-68.06a97.46 97.46 0 0 1 19.27 55.66c1.47 54.23-42.63 100.06-96.88 100.59a97.4 97.4 0 0 1 -53.47-15.28l-.16.23 62.6 66.36z" fill="url(#b)" opacity=".5"/><path d="m94.3 135.78h9.53a3.41 3.41 0 0 0 2.7-1.33h-14.94a3.43 3.43 0 0 0 2.71 1.33z" fill="none"/><path d="m103.83 139.55h-9.53a7.18 7.18 0 0 1 -6.89-5.1h-50v2.79a4.18 4.18 0 0 0 4.17 4.18h115.01a4.18 4.18 0 0 0 4.17-4.18v-2.79h-50a7.22 7.22 0 0 1 -6.93 5.1z" fill="none"/><g fill="#7c6990"><path d="m162.64 129.68h-5.3a8.28 8.28 0 0 0 .46-2.7v-58.68a8.21 8.21 0 0 0 -8.2-8.2h-34.48v5.77h34.48a2.43 2.43 0 0 1 2.4 2.43v58.7a2.43 2.43 0 0 1 -2.43 2.43h-101.04a2.43 2.43 0 0 1 -2.43-2.43v-58.7a2.43 2.43 0 0 1 2.43-2.43h37.2v-5.77h-37.2a8.21 8.21 0 0 0 -8.2 8.2v58.7a8 8 0 0 0 .46 2.7h-5.31a2.88 2.88 0 0 0 -2.88 2.89v4.67a9 9 0 0 0 8.94 8.95h115.05a9 9 0 0 0 8.94-8.95v-4.67a2.89 2.89 0 0 0 -2.89-2.91zm-68.78 8.62h10.27c2.81 0 4.72 0 5.86-2.85h49.77v1.79a3.18 3.18 0 0 1 -3.17 3.18h-115a3.18 3.18 0 0 1 -3.17-3.18v-1.79h49.72c1.12 2.86 2.97 2.85 5.72 2.85z"/><path d="m128.86 93.82a49.18 49.18 0 0 1 -6.86-2.82c-1.09-.5-2.24-1-3.48-1.57a15.36 15.36 0 0 1 -6.75-5.15 2.77 2.77 0 0 0 -3.54-.83 2.69 2.69 0 0 0 -.74.55l-.19.18-7.8 8-8.11-8.58a2.74 2.74 0 0 0 -3-.66 2.78 2.78 0 0 0 -1.27 1 2.43 2.43 0 0 0 -.2.25 15.4 15.4 0 0 1 -6.79 5.14c-1.27.54-2.42 1.07-3.51 1.57a50.38 50.38 0 0 1 -6.89 2.74 10.74 10.74 0 0 0 -7.73 10.2v24.82a2.75 2.75 0 0 0 2.75 2.75 2.75 2.75 0 0 0 2.75-2.75v-24.82a5.22 5.22 0 0 1 3.8-4.9 54.85 54.85 0 0 0 7.63-3l.42-.19a20.5 20.5 0 0 0 1.15 4.91 8 8 0 0 0 -2.5 8l1 3.21a5.58 5.58 0 0 0 2.9 3.76 5.16 5.16 0 0 0 2.36.57 5.07 5.07 0 0 0 1.93-.38l1.42-.61-.61-1.21-.21-.5-1-2.3-1.41.6a.68.68 0 0 1 -.6 0 1.34 1.34 0 0 1 -.67-.94l-1-3.21a3.63 3.63 0 0 1 1.17-3.71l.74-.41a3.52 3.52 0 0 1 4.08 1.65l1.89 2.7a1.25 1.25 0 0 1 .17 1.07c0 .15-.07.22-.62.6l-.92.65.32.9s.14.39.36.9.41.92.41.92l.57 1.21 1.48-.83a4.62 4.62 0 0 0 2.57-3.06 5.69 5.69 0 0 0 -.7-4.76l-1.89-2.7a8 8 0 0 0 -7.26-3.78 15.89 15.89 0 0 1 -.92-5v-.17a20 20 0 0 0 6-4.22l7.88 8.39a2.74 2.74 0 0 0 4 0l7.95-8.11a21.34 21.34 0 0 0 7 4.58l1.66.74-2.41 6h-.35a6.5 6.5 0 0 0 .07 13h.06a6.4 6.4 0 0 0 4.57-1.94 6.49 6.49 0 0 0 -.2-9.29l2.36-5.85a41.18 41.18 0 0 0 5.23 2 5.23 5.23 0 0 1 3.78 4.94v24.74a2.75 2.75 0 0 0 2.74 2.75 2.75 2.75 0 0 0 2.75-2.75v-24.73a10.75 10.75 0 0 0 -7.79-10.26zm-11.86 15.63a2.45 2.45 0 0 1 -1.75.74 2.49 2.49 0 0 1 -2.5-2.47 2.43 2.43 0 0 1 .71-1.77 2.48 2.48 0 0 1 1.76-.75 2.5 2.5 0 0 1 1.78 4.25zm-34.52-42.51.61.39c.92 4.38 1.7 7.63 5 11l.21.22a17.05 17.05 0 0 0 11.06 4.59 20.17 20.17 0 0 0 11.9-4.53l.19-.19c3.55-3.42 4.35-6.72 5.31-11.21.1-.15.21-.31.32-.51l.29-.51.67-8a3.65 3.65 0 0 0 -.6-2.55c-.64-11.08-7.58-18.56-17.44-18.64v2.75-2.75c-9.85 0-16.83 7.47-17.53 18.56l-.13.14-.34.3-.18.36c-.37.74-.73 1.44.44 9.35zm.51-.1 2.69-.55zm33.83.09-2.69-.57 2.69.56zm-2.09-10.59 2.75-.1zm-14.73-13.85c7 .07 11.7 5.55 12 14a3.72 3.72 0 0 0 .55 1.74l-.55 6.21a4 4 0 0 0 -.56 1.34c-1 4.79-1.51 6.59-3.83 8.84-.81.67-8.31 6.49-15.44 0-2.32-2.27-2.79-4.07-3.79-8.87a4.34 4.34 0 0 0 -.77-1.75c-.29-2.05-.55-4.27-.61-5.37a4.16 4.16 0 0 0 .88-2.26c.36-8.37 5.12-13.85 12.12-13.88zm-17.61 13.65 2.74.12-2.74-.09z"/></g></svg>