<svg viewBox="0 0 161 160.7" xmlns="http://www.w3.org/2000/svg" xmlns:xlink="http://www.w3.org/1999/xlink"><linearGradient id="a" gradientUnits="userSpaceOnUse" x2="125.85" y1="62.92" y2="62.92"><stop offset="0" stop-color="#e5e1e6"/><stop offset=".28" stop-color="#f2f1f3"/><stop offset=".62" stop-color="#fcfbfc"/><stop offset="1" stop-color="#fff"/></linearGradient><linearGradient id="b" gradientUnits="userSpaceOnUse" x1="72.87" x2="161.45" y1="71.67" y2="160.25"><stop offset=".13" stop-color="#a191b2"/><stop offset=".16" stop-color="#a99ab9" stop-opacity=".91"/><stop offset=".27" stop-color="#c3b9ce" stop-opacity=".64"/><stop offset=".38" stop-color="#d9d2e0" stop-opacity=".41"/><stop offset=".48" stop-color="#e9e6ed" stop-opacity=".23"/><stop offset=".58" stop-color="#f5f4f7" stop-opacity=".1"/><stop offset=".67" stop-color="#fdfcfd" stop-opacity=".03"/><stop offset=".76" stop-color="#fff" stop-opacity="0"/></linearGradient><circle cx="66.8" cy="64.86" fill="#c6bbd0" r="62.92"/><circle cx="66.8" cy="64.86" fill="#c6bbd0" r="62.92"/><circle cx="62.92" cy="62.92" fill="url(#a)" r="62.92"/><path d="m161 160.7v-89.7l-43.75-43.72a62.7 62.7 0 0 1 12.39 35.78c.94 34.86-27.4 64.32-62.28 64.66a62.66 62.66 0 0 1 -34.36-9.82l-.11.14 40.24 42.66z" fill="url(#b)" opacity=".5"/><g fill="#7c6990"><path d="m63.44 95.68a4 4 0 1 0 4 4 4 4 0 0 0 -4-4z"/><path d="m63.27 20.92a25.32 25.32 0 0 0 -25.4 25.19 2.27 2.27 0 0 0 4.54 0 20.86 20.86 0 1 1 20.86 20.65 2.26 2.26 0 0 0 -2.24 2 2 2 0 0 0 -.06.49v15.55a2.27 2.27 0 1 0 4.54 0v-13.6a25.18 25.18 0 0 0 -2.24-50.28z"/></g></svg>