<?xml version="1.0" encoding="UTF-8"?>
<svg width="1440px" height="833px" viewBox="0 0 1440 833" version="1.1" xmlns="http://www.w3.org/2000/svg" xmlns:xlink="http://www.w3.org/1999/xlink">
    <!-- Generator: Sketch 55.2 (78181) - https://sketchapp.com -->
    <title>Group 7</title>
    <desc>Created with Sketch.</desc>
    <defs>
        <polygon id="path-1" points="0.132748422 0.0854569017 21.7987951 0.0854569017 21.7987951 33.8168202 0.132748422 33.8168202"></polygon>
    </defs>
    <g id="Desktop" stroke="none" stroke-width="1" fill="none" fill-rule="evenodd">
        <g id="2.0-Diagnosis-Refs" transform="translate(0.000000, -463.000000)">
            <g id="Group-7" transform="translate(0.000000, 448.396970)">
                <circle id="Oval" fill="#EA1D76" cx="290" cy="60.6030304" r="33"></circle>
                <g id="kidneys" transform="translate(291.000000, 43.603030)">
                    <g id="Group-3">
                        <mask id="mask-2" fill="white">
                            <use xlink:href="#path-1"></use>
                        </mask>
                        <g id="Clip-2"></g>
                    </g>
                </g>
                <g id="Group-5" transform="translate(290.396970, 60.000000) scale(-1, 1) translate(-290.396970, -60.000000) translate(230.396970, 0.000000)">
                    <path d="M96.1817348,76.6327932 L106.092456,89.3751492 C106.770596,90.2470435 106.613527,91.5035947 105.741633,92.1817348 C105.390567,92.454786 104.958503,92.6030304 104.513752,92.6030304 L84.6923091,92.6030304 C83.5877396,92.6030304 82.6923091,91.7075999 82.6923091,90.6030304 C82.6923091,90.1582787 82.8405535,89.7262149 83.1136047,89.3751492 L93.0243259,76.6327932 C93.702466,75.7608988 94.9590172,75.6038299 95.8309116,76.28197 C95.9619604,76.3838968 96.079808,76.5017444 96.1817348,76.6327932 Z" id="Triangle" fill="#00BFD6" transform="translate(94.603030, 83.603030) rotate(-315.000000) translate(-94.603030, -83.603030) "></path>
                    <path d="M60,102 C83.1959595,102 102,83.1959595 102,60 C102,56.6691564 101.612265,53.4288732 100.879468,50.3218234 C96.5090752,31.791411 79.8651159,18 60,18 C36.8040405,18 18,36.8040405 18,60" id="Oval" stroke="#00BFD6" stroke-width="6" stroke-linecap="round" stroke-linejoin="round" transform="translate(60.000000, 60.000000) rotate(-135.000000) translate(-60.000000, -60.000000) "></path>
                </g>
                <g id="Icon-Kidneys" transform="translate(269.000000, 43.603030)" fill="#FFFFFF">
                    <path d="M29.8975556,31.7017245 C34.0557778,31.7017245 38.7068889,25.9588596 38.7068889,18.2728561 C38.7068889,10.5861192 34.0557778,4.84237414 29.8975556,4.84237414 C26.6953333,4.84237414 25.0717778,6.46996906 25.0717778,9.67953637 C25.0717778,10.4294476 25.3347407,11.0132987 25.6385926,11.6894217 C25.8857037,12.2380657 26.1519259,12.8401071 26.3015556,13.5816567 C26.3191852,13.6134898 26.3434815,13.6385748 26.3556296,13.6733418 C26.5845185,14.3327415 27.1588889,14.8152255 27.8541481,14.933316 C28.2054074,14.9925812 28.4418519,15.323528 28.3817037,15.6713448 C28.3277778,15.9827809 28.0547407,16.2025319 27.7457037,16.2025319 C27.7097037,16.2025319 27.6732593,16.1993046 27.6359259,16.1931434 C27.1461481,16.11026 26.6968148,15.9135403 26.3067407,15.6367245 C26.144963,16.2399395 25.8405185,16.7124481 25.576963,17.1127822 C25.2951852,17.5424555 25.0717778,17.8813238 25.0717778,18.2728561 C25.0717778,18.6690827 25.3617037,19.0648692 25.6978519,19.523295 C25.9562222,19.8747792 26.2314815,20.2557494 26.4191852,20.6958381 C26.9941481,20.2231828 27.6978519,19.9085194 28.4655556,19.8180078 C28.8203704,19.7754659 29.140963,20.0271966 29.1831852,20.3773606 C29.2257037,20.7281113 28.9722222,21.0460021 28.6182963,21.0878105 C27.682,21.197686 26.8814074,21.7947398 26.5062963,22.6486587 C26.3517778,23.1481594 26.094,23.6214015 25.8411111,24.0845216 C25.4458519,24.8081742 25.0717778,25.4911919 25.0717778,26.2428635 C25.0717778,29.5081754 27.5673333,31.7017245 29.8975556,31.7017245 Z M29.8975556,3.5639163 C35.1837778,3.5639163 39.9982963,10.5749703 39.9982963,18.2728561 C39.9982963,25.9701552 35.1837778,32.9804757 29.8975556,32.9804757 C26.9439259,32.9804757 23.7806667,30.2734898 23.7806667,26.2428635 C23.7806667,25.1671399 24.2716296,24.2686254 24.7054074,23.4758788 C24.9400741,23.0463522 25.1594815,22.635456 25.2737037,22.2496448 C25.2754815,22.2453907 25.2742963,22.2409898 25.2760741,22.2371757 C25.278,22.2320413 25.2812593,22.2279338 25.2833333,22.2236796 C25.3277778,22.0661278 25.3581481,21.9125369 25.3581481,21.7652538 C25.3581481,21.235827 25.0314815,20.7901638 24.6531111,20.2748199 C24.536963,20.1163879 24.4172593,19.9507679 24.3046667,19.7781064 C23.9759259,19.7606495 23.2673333,19.7761993 22.7974074,20.1774136 C22.4603704,20.4661118 22.2962222,20.9144156 22.2962222,21.5479967 L22.2962222,33.2140161 C22.2962222,33.5675541 22.0074815,33.8533184 21.6507407,33.8533184 C21.2937037,33.8533184 21.0052593,33.5675541 21.0052593,33.2140161 L21.0052593,21.5479967 C21.0052593,20.5290445 21.3271852,19.7399654 21.9634815,19.2023236 C22.5378519,18.7160255 23.2451111,18.5574469 23.7977037,18.5138781 C23.7882222,18.4349555 23.7806667,18.3551527 23.7806667,18.2728561 C23.7806667,18.0217122 23.8298519,17.7971202 23.8960741,17.582797 C23.332963,17.5497903 22.5711852,17.3988399 21.9634815,16.8842294 C21.3277778,16.3454141 21.0052593,15.5558948 21.0052593,14.5369427 L21.0052593,12.0059922 C21.0113333,11.6574419 21.2977037,11.3721177 21.6507407,11.3721177 C22.0074815,11.3721177 22.2962222,11.6524543 22.2962222,12.0059922 L22.2962222,14.5369427 C22.2962222,15.1737511 22.4621481,15.6236685 22.8028889,15.91222 C23.427037,16.4397398 24.4701481,16.2955374 24.4808148,16.293777 C24.5117778,16.2887893 24.5402222,16.2980312 24.5697037,16.2974444 C24.8772593,15.8265494 25.131037,15.3952625 25.131037,14.7791382 C25.131037,13.7040014 24.8046667,12.9777082 24.4588889,12.2100467 C24.1255556,11.4682038 23.7806667,10.7017159 23.7806667,9.67953637 C23.7806667,5.73560762 25.9534074,3.5639163 29.8975556,3.5639163 Z M35.0219305,10.8184447 C36.2433474,13.2140719 36.8888889,15.9559153 36.8888889,18.748193 C36.8888889,21.535279 36.2456093,24.2746007 35.0281129,26.6684478 C34.9126061,26.8951053 34.6808385,27.025641 34.4394201,27.025641 C34.3406512,27.025641 34.2405252,27.003539 34.1462801,26.9575548 C33.8214736,26.7979452 33.6901336,26.4096014 33.8520845,26.0900856 C34.9792563,23.8743901 35.5747347,21.335767 35.5747347,18.748193 C35.5747347,16.1558723 34.9771452,13.6144308 33.8480131,11.3978453 C33.6848559,11.0784778 33.8155927,10.6904307 34.1403992,10.5308211 C34.4638485,10.3695799 34.8605828,10.4996706 35.0219305,10.8184447 Z M5.85960481,6.17166437 C6.18364918,6.33143411 6.31534878,6.71965828 6.15211972,7.03919777 C5.02309361,9.255799 4.42584422,11.7969835 4.42584422,14.3887544 C4.42584422,16.9751847 5.02067987,19.5144408 6.14804654,21.7311903 C6.31006873,22.0505815 6.17836913,22.438954 5.85372132,22.5985754 C5.75943467,22.6448597 5.65926452,22.6666667 5.56030125,22.6666667 C5.31892742,22.6666667 5.08645424,22.5361213 4.97149995,22.3095954 C3.75407067,19.9143843 3.11111111,17.1756016 3.11111111,14.3887544 C3.11111111,11.5968634 3.7564844,8.85481699 4.97708172,6.4594576 C5.1398582,6.14080819 5.534957,6.01070785 5.85960481,6.17166437 Z M14.5440691,16.0758449 C14.8799421,15.6141833 15.1700142,15.2156232 15.1700142,14.8161766 C15.1700142,14.4223455 14.9473835,14.0808282 14.6644261,13.6481312 C14.4091864,13.256369 14.1142229,12.7960374 13.9488062,12.2130492 C13.5557193,12.4972282 13.1003787,12.6989466 12.6041287,12.7842151 C12.5673694,12.790274 12.5309066,12.7933774 12.4944438,12.7933774 C12.1855474,12.7933774 11.912521,12.5721522 11.8587161,12.2581218 C11.7982411,11.9078855 12.0346566,11.574496 12.3860929,11.5147933 C13.0818509,11.3961267 13.6562144,10.9090471 13.8858115,10.2443371 C13.8938156,10.2205447 13.9114541,10.2041412 13.9222744,10.1822699 C14.0678292,9.39209549 14.3454506,8.75945351 14.6027654,8.18474091 C14.9073633,7.50362742 15.1700142,6.9156147 15.1700142,6.1606117 C15.1700142,2.92735457 13.5450472,1.28789414 10.3403214,1.28789414 C6.15613897,1.28789414 1.29205844,7.19713373 1.29205844,14.8161766 C1.29205844,22.4353672 6.15613897,28.3453457 10.3403214,28.3453457 C12.6727559,28.3453457 15.1700142,26.135606 15.1700142,22.8450106 C15.1700142,22.0877909 14.7964926,21.399584 14.4010341,20.671329 C14.1778105,20.2594689 13.9523636,19.8393332 13.7962849,19.4010206 C13.7873916,19.3834349 13.7746444,19.3701348 13.7670851,19.351958 C13.4054213,18.4562693 12.5827846,17.8280607 11.6209666,17.713532 C11.2670105,17.6708239 11.0142906,17.3507345 11.0565341,16.9970993 C11.0993705,16.6443508 11.4122689,16.3903187 11.7749702,16.434209 C12.5343157,16.5256842 13.231556,16.836168 13.802955,17.3030019 C13.9909015,16.8398624 14.2774163,16.4423369 14.5440691,16.0758449 Z M18.4653042,7.86568601 C18.8225213,7.86568601 19.1111111,8.14809171 19.1111111,8.50438693 L19.1111111,11.0526883 C19.1111111,12.101476 18.7863549,12.9079061 18.1469216,13.4495162 C17.5747814,13.9336403 16.8742803,14.0827493 16.3449766,14.1179207 C16.4119733,14.3350081 16.4619244,14.5619967 16.4619244,14.8161766 C16.4619244,14.8996717 16.4545133,14.9803591 16.4448788,15.0600119 C16.9608425,15.1071534 17.6099102,15.2657203 18.1469216,15.7198453 C18.7863549,16.2614554 19.1111111,17.0675899 19.1111111,18.1168209 L19.1111111,29.8687996 C19.1111111,30.2247992 18.8225213,30.5128205 18.4653042,30.5128205 C18.1080872,30.5128205 17.8194973,30.2247992 17.8194973,29.8687996 L17.8194973,18.1168209 C17.8194973,17.4631943 17.6483,16.987937 17.3107966,16.7021324 C16.8742803,16.3329804 16.2404795,16.3153947 15.9382531,16.3317982 C15.8254555,16.5060296 15.7055433,16.6727244 15.5894848,16.8324735 C15.2113683,17.3520645 14.8848334,17.8010172 14.8848334,18.3355339 C14.8848334,18.8563071 15.2015856,19.4400343 15.5370139,20.0581939 C15.9707139,20.8569395 16.4619244,21.762086 16.4619244,22.8450106 C16.4619244,26.5248559 13.6584377,29.6336831 10.3403214,29.6336831 C5.45904698,29.6336831 0,23.2964755 0,14.8161766 C0,6.33617317 5.45904698,0 10.3403214,0 C14.2880883,0 16.4619244,2.18772058 16.4619244,6.1606117 C16.4619244,7.189597 16.1168616,7.96203793 15.7827674,8.70846975 C15.4374082,9.4828318 15.1105768,10.2141902 15.1105768,11.2965237 C15.1105768,11.9171956 15.364779,12.3525526 15.6718967,12.8266276 C15.7022824,12.8266276 15.7316305,12.8180565 15.7623126,12.8230809 C15.7769867,12.8248543 16.7318382,12.9639144 17.3153915,12.4641257 C17.6494857,12.17773 17.8194973,11.702916 17.8194973,11.0526883 L17.8194973,8.50438693 C17.8255745,8.1538551 18.1126821,7.86568601 18.4653042,7.86568601 Z" id="Combined-Shape"></path>
                </g>
                <rect id="Rectangle" fill="#F8F8F8" x="0" y="153.60303" width="1440" height="694"></rect>
            </g>
        </g>
    </g>
</svg>