<svg enable-background="new 0 0 250 250" viewBox="0 0 250 250" xmlns="http://www.w3.org/2000/svg" xmlns:xlink="http://www.w3.org/1999/xlink"><linearGradient id="a" gradientUnits="userSpaceOnUse" x1="0" x2="195.7831" y1="97.8916" y2="97.8916"><stop offset="0" stop-color="#e5e1e6"/><stop offset=".2863" stop-color="#f2f1f3"/><stop offset=".6242" stop-color="#fcfbfc"/><stop offset="1" stop-color="#fff"/></linearGradient><linearGradient id="b" gradientUnits="userSpaceOnUse" x1="112.8929" x2="250.6984" y1="111.4962" y2="249.3016"><stop offset=".1333" stop-color="#a191b2"/><stop offset=".2616" stop-color="#c1b7cc" stop-opacity=".7941"/><stop offset=".3952" stop-color="#dcd6e2" stop-opacity=".5796"/><stop offset=".525" stop-color="#efedf2" stop-opacity=".3712"/><stop offset=".6477" stop-color="#fbfafc" stop-opacity=".1741"/><stop offset=".7562" stop-color="#fff" stop-opacity="0"/></linearGradient><circle cx="103.9" cy="100.9" fill="#c6bbd0" r="97.9"/><circle cx="103.9" cy="100.9" fill="#c6bbd0" r="97.9"/><circle cx="97.9" cy="97.9" fill="url(#a)" r="97.9"/><path d="m250 250v-139.5l-68.1-68.1c11.6 15.6 18.7 34.8 19.3 55.7 1.5 54.2-42.6 100.1-96.9 100.6-19.7.2-38-5.5-53.5-15.3l-.2.2 62.6 66.4z" fill="url(#b)" opacity=".5"/><path d="m29.9 60.4h130.9v76.1h-130.9z" fill="none"/><g fill="#7c6990"><path d="m60.6 73v74.5c0 5.5 4.4 9.9 9.9 9.9h54.7c5.5 0 9.9-4.4 9.9-9.9v-5-28.4-6.4-5-29.7c0-5.5-4.4-9.9-9.9-9.9h-29.8-5-19.8c-5.5 0-10 4.4-10 9.9zm64.6-4.9c2.7 0 5 2.2 5 5v74.5c0 2.7-2.2 5-5 5h-54.6c-2.7 0-5-2.2-5-5v-74.6c0-2.7 2.2-5 5-5h54.6z"/><path d="m85.6 64.7v-16.4c0-2.7 2.2-5 5-5h14.6c2.7 0 5 2.7 5 5.4h5c0-5.5-4.4-10.4-9.9-10.4h-9.8-5 .1c-5.5 0-9.9 4.5-9.9 9.9v16.4"/><path d="m115.2 64.7v-5.3h-5v5.3z"/><path d="m125.2 65.9v-4.4c0-5.5-4.4-9.9-9.9-9.9h-9.8-5 .1c-5.5 0-9.9 4.5-9.9 9.9v4.4m5 0v-4.4c0-2.7 2.2-5 5-5h14.6c2.7 0 5 2.2 5 5v4.4"/><path d="m83.1 93.5h29.6c1.4 0 2.5-1.1 2.5-2.5s-1.1-2.5-2.5-2.5h-29.6c-1.4 0-2.5 1.1-2.5 2.5s1.1 2.5 2.5 2.5z"/><path d="m83.1 105.3h29.6c1.4 0 2.5-1.1 2.5-2.5s-1.1-2.5-2.5-2.5h-29.6c-1.4 0-2.5 1.1-2.5 2.5s1.1 2.5 2.5 2.5z"/><path d="m110.1 91.1v11.6c0 1.4 1.1 2.5 2.5 2.5s2.5-1.1 2.5-2.5v-11.6c0-1.4-1.1-2.5-2.5-2.5-1.3 0-2.5 1.2-2.5 2.5z"/><path d="m80.6 91.1v11.6c0 1.4 1.1 2.5 2.5 2.5s2.5-1.1 2.5-2.5v-11.6c0-1.4-1.1-2.5-2.5-2.5-1.3 0-2.5 1.2-2.5 2.5z"/></g></svg>