<svg viewBox="0 0 250 250" xmlns="http://www.w3.org/2000/svg" xmlns:xlink="http://www.w3.org/1999/xlink"><linearGradient id="a" gradientUnits="userSpaceOnUse" x1="112.89" x2="218.03" y1="111.5" y2="216.63"><stop offset=".29" stop-color="#624b78"/><stop offset=".3" stop-color="#624b78" stop-opacity=".94"/><stop offset=".38" stop-color="#624b78" stop-opacity=".61"/><stop offset=".46" stop-color="#624b78" stop-opacity=".34"/><stop offset=".53" stop-color="#624b78" stop-opacity=".15"/><stop offset=".6" stop-color="#624b78" stop-opacity=".04"/><stop offset=".66" stop-color="#624b78" stop-opacity="0"/></linearGradient><linearGradient id="b" gradientUnits="userSpaceOnUse" x2="195.78" y1="97.89" y2="97.89"><stop offset="0" stop-color="#e5e1e6"/><stop offset=".28" stop-color="#f2f1f3"/><stop offset=".62" stop-color="#fcfbfc"/><stop offset="1" stop-color="#fff"/></linearGradient><path d="m250 250v-139.5l-68.06-68a97.43 97.43 0 0 1 19.27 55.6c1.47 54.24-42.63 100.07-96.88 100.6a97.48 97.48 0 0 1 -53.47-15.28l-.16.22 62.6 66.36z" fill="url(#a)" opacity=".5"/><circle cx="103.92" cy="100.9" fill="#c6bbd0" r="97.89"/><circle cx="103.92" cy="100.9" fill="#c6bbd0" r="97.89"/><circle cx="97.89" cy="97.89" fill="url(#b)" r="97.89"/><g fill="#7c6990"><path d="m48.94 164.34a2.08 2.08 0 1 1 0-4.15h22a.48.48 0 0 0 .43-.25.5.5 0 0 0 0-.5 9.68 9.68 0 0 1 -.49-8.88l9.41-21.18a.54.54 0 0 0 0-.21v-31.28a2.24 2.24 0 0 1 0-.43 12.82 12.82 0 0 1 .42-2.9l4.93-16.22a.5.5 0 0 0 -.48-.64.52.52 0 0 0 -.27.07l-7.2 4.5a.49.49 0 0 0 -.18.2l-9.18 18.53c0 .07-2.86 3.52-6.53 3.52a6.35 6.35 0 0 1 -3.41-1c-.2-.13-5.2-3.56-3-8.85l10.25-20.59a7.07 7.07 0 0 1 2.64-2.91l20.58-12.87a7.24 7.24 0 0 1 3.84-1.11 6.72 6.72 0 0 1 1 .08l3.38.48h.07a.49.49 0 0 0 .44-.27.5.5 0 0 0 -.09-.58 14.94 14.94 0 0 1 10.63-25.45 15.86 15.86 0 0 1 3.27.34 14.94 14.94 0 0 1 3.06 28.13.51.51 0 0 0 -.28.43.49.49 0 0 0 .24.45 7.22 7.22 0 0 1 2.16 2l10.56 14.8a.52.52 0 0 0 .41.21h16.63a7.22 7.22 0 0 1 0 14.44h-20.6a7.23 7.23 0 0 1 -5.88-3l-6.11-8.55a.51.51 0 0 0 -.41-.21h-.08a.5.5 0 0 0 -.4.35l-4.7 15.44a.51.51 0 0 0 .2.56l20.24 13.49a9.78 9.78 0 0 1 4.36 8.16v20.61a9.66 9.66 0 0 1 -1.36 4.89.5.5 0 0 0 0 .5.48.48 0 0 0 .43.25h33.19a2.08 2.08 0 0 1 -.24 4.15h-47a.5.5 0 0 0 -.5.5v12.87a2 2 0 0 1 -.61 1.47 2.06 2.06 0 0 1 -1.46.61zm51.49-47.71a.46.46 0 0 0 -.23.06.5.5 0 0 0 -.27.44v14.24a9.69 9.69 0 0 1 -.84 4l-10.3 23.18a8.6 8.6 0 0 1 -.45.85.56.56 0 0 0 0 .53.51.51 0 0 0 .42.29h22a.5.5 0 0 0 .5-.5v-12.91a2.09 2.09 0 0 1 .6-1.46 2.23 2.23 0 0 1 .65-.43.51.51 0 0 0 .22-.72 9.79 9.79 0 0 1 -1.47-5.1v-15.1a.5.5 0 0 0 -.23-.42l-10.3-6.87a.57.57 0 0 0 -.3-.08zm-25.76 35.62a5.6 5.6 0 0 0 -.49 2.28 5.66 5.66 0 0 0 10.82 2.31l10.3-23.18a5.75 5.75 0 0 0 .49-2.29v-19.05a2 2 0 0 1 1.09-1.82 2 2 0 0 1 1-.25 2 2 0 0 1 1.15.35l15.44 10.29a2.05 2.05 0 0 1 .93 1.73v16.48a5.65 5.65 0 0 0 11.3 0v-20.61a5.62 5.62 0 0 0 -2.51-4.7l-21.85-14.56a2.07 2.07 0 0 1 -.83-2.32l6.78-22.3a2.06 2.06 0 0 1 1.64-1.44h.34a2.07 2.07 0 0 1 1.73.83l9.1 12.8a3 3 0 0 0 2.51 1.29h20.6a3.08 3.08 0 1 0 0-6.15h-18a2 2 0 0 1 -1.69-.86l-11.28-15.87a3.06 3.06 0 0 0 -2.07-1.21l-18-2.57a2.12 2.12 0 0 0 -.42 0 3 3 0 0 0 -1.63.48l-20.65 12.78a3 3 0 0 0 -1.11 1.24l-10.3 20.6a3 3 0 0 0 -.33 1.36 3.08 3.08 0 0 0 1.7 2.75 3 3 0 0 0 1.37.33 3.09 3.09 0 0 0 2.7-1.58s9.71-19.39 9.71-19.39a2.09 2.09 0 0 1 .75-.84l13.64-8.55a2.08 2.08 0 0 1 3.08 2.39l-6.9 22.73a9 9 0 0 0 -.27 2.07 1.25 1.25 0 0 1 0 .21v31.68l-.21.94zm33.49-116.65a10.8 10.8 0 1 0 10.84 10.8 10.83 10.83 0 0 0 -10.8-10.8z"/><path d="m108.16 32a15.42 15.42 0 0 1 3.16.33 14.45 14.45 0 0 1 3 27.19 1 1 0 0 0 -.09 1.76 6.74 6.74 0 0 1 2 1.85l10.56 14.8a1 1 0 0 0 .81.42h16.63a6.72 6.72 0 0 1 0 13.44h-20.64a6.73 6.73 0 0 1 -5.46-2.81l-6.13-8.6a1 1 0 0 0 -.82-.42h-.16a1 1 0 0 0 -.79.7l-4.71 15.46a1 1 0 0 0 .41 1.13l20.23 13.49a9.25 9.25 0 0 1 4.14 7.74v20.62a9.21 9.21 0 0 1 -1.29 4.64 1 1 0 0 0 .86 1.5h33.15a1.6 1.6 0 0 1 1.37 1.61 1.57 1.57 0 0 1 -1.57 1.54h-47a1 1 0 0 0 -1 1v12.87a1.57 1.57 0 0 1 -.46 1.12 1.59 1.59 0 0 1 -1.11.46h-64.31a1.58 1.58 0 1 1 0-3.15h22a1 1 0 0 0 .87-.5 1 1 0 0 0 0-1 9.15 9.15 0 0 1 -.47-8.43l9.41-21.18a1 1 0 0 0 .09-.41v-31.28c0-.12 0-.24 0-.34a.78.78 0 0 0 0-.14 11.25 11.25 0 0 1 .39-2.69l4.92-16.23a1 1 0 0 0 -.34-1.09 1.06 1.06 0 0 0 -.61-.2 1 1 0 0 0 -.53.15l-7.2 4.5a1 1 0 0 0 -.37.4l-9.23 18.55c-.45.52-3 3.21-6.07 3.21a5.88 5.88 0 0 1 -3.11-.94c-.2-.14-4.85-3.34-2.87-8.23l10.27-20.54a6.57 6.57 0 0 1 2.46-2.71l20.58-12.87a6.71 6.71 0 0 1 3.57-1 7.22 7.22 0 0 1 1 .07l3.38.48h.14a1 1 0 0 0 .71-1.7 14.44 14.44 0 0 1 10.23-24.57m0 25.74a11.3 11.3 0 1 0 -11.3-11.34 11.35 11.35 0 0 0 11.3 11.29m-46.35 43.78a3.59 3.59 0 0 0 3.13-1.84l.06-.13 9.65-19.32a1.48 1.48 0 0 1 .57-.62l13.65-8.56a1.48 1.48 0 0 1 .82-.24 1.61 1.61 0 0 1 1 .32 1.59 1.59 0 0 1 .54 1.71l-6.94 22.8a9.22 9.22 0 0 0 -.29 2.16v.17a.76.76 0 0 0 0 .15v31.55l-.18.84-9.6 21.54a6 6 0 0 0 -.54 2.49 6.16 6.16 0 0 0 3.65 5.62 6 6 0 0 0 2.5.54 6.19 6.19 0 0 0 5.63-3.65l10.3-23.18a6.36 6.36 0 0 0 .53-2.49v-19.01a1.55 1.55 0 0 1 .83-1.39 1.59 1.59 0 0 1 1.62.09l15.44 10.29a1.56 1.56 0 0 1 .7 1.31v16.48a6.19 6.19 0 0 0 6.13 6.14h.06a6.18 6.18 0 0 0 6.11-6.14v-20.61a6.14 6.14 0 0 0 -2.74-5.12l-21.82-14.56a1.58 1.58 0 0 1 -.63-1.76l6.78-22.3a1.56 1.56 0 0 1 1.23-1.09h.25a1.55 1.55 0 0 1 1.28.66l9.15 12.8a3.49 3.49 0 0 0 2.91 1.49h20.61a3.58 3.58 0 0 0 0-7.15h-18a1.58 1.58 0 0 1 -1.28-.65l-11.28-15.9a3.58 3.58 0 0 0 -2.4-1.46l-18-2.57a3.25 3.25 0 0 0 -.51 0 3.59 3.59 0 0 0 -1.89.55l-20.63 12.84a3.46 3.46 0 0 0 -1.3 1.43l-10.3 20.6a3.57 3.57 0 0 0 1.6 4.8 3.63 3.63 0 0 0 1.58.37m26.92 59.22h22a1 1 0 0 0 1-1v-12.88a1.55 1.55 0 0 1 .46-1.11 1.75 1.75 0 0 1 .48-.32 1 1 0 0 0 .56-.62 1 1 0 0 0 -.1-.82 9.21 9.21 0 0 1 -1.4-4.84v-15.1a1 1 0 0 0 -.45-.84l-10.26-6.86a1 1 0 0 0 -.56-.17 1 1 0 0 0 -.47.12 1 1 0 0 0 -.53.88v14.24a9.21 9.21 0 0 1 -.8 3.77l-10.3 23.18c-.12.26-.27.52-.43.8v.07a1 1 0 0 0 0 1 1 1 0 0 0 .87.5m19.38-129.69a15.44 15.44 0 0 0 -11 26.3l-3.38-.48a7.48 7.48 0 0 0 -1.1-.08 7.61 7.61 0 0 0 -4.1 1.19l-20.58 12.81a7.69 7.69 0 0 0 -2.82 3.11l-10.27 20.59c-2.37 5.75 3.22 9.47 3.22 9.47a6.79 6.79 0 0 0 3.67 1.09c4 0 6.92-3.67 6.92-3.67l.06-.12 9.22-18.51 7.2-4.5-4.89 16.23a12.73 12.73 0 0 0 -.43 2.94 3 3 0 0 0 0 .52v31.28l-9.42 21.19a10.18 10.18 0 0 0 .52 9.33h-22a2.58 2.58 0 1 0 0 5.15h64.37a2.56 2.56 0 0 0 2.57-2.58v-12.87h47a2.58 2.58 0 0 0 .24-5.15h-33.26a10.12 10.12 0 0 0 1.43-5.14v-20.61a10.27 10.27 0 0 0 -4.59-8.57l-20.23-13.5 4.7-15.42 6.11 8.55a7.71 7.71 0 0 0 6.27 3.23h20.62a7.72 7.72 0 0 0 0-15.44h-16.63l-10.58-14.84a7.69 7.69 0 0 0 -2.31-2.13 15.44 15.44 0 0 0 -3.18-29.07 16.35 16.35 0 0 0 -3.37-.35zm0 25.74a10.3 10.3 0 1 1 10.3-10.29 10.31 10.31 0 0 1 -10.3 10.29zm-46.35 43.73a2.69 2.69 0 0 1 -1.16-.27 2.6 2.6 0 0 1 -1.42-2.31 2.52 2.52 0 0 1 .28-1.14l10.3-20.6a2.39 2.39 0 0 1 .93-1l20.6-12.88a2.56 2.56 0 0 1 1.36-.4h.34l18.06 2.57a2.54 2.54 0 0 1 1.73 1.06l11.33 15.87a2.56 2.56 0 0 0 2.09 1.07h18a2.58 2.58 0 1 1 0 5.15h-20.6a2.52 2.52 0 0 1 -2.1-1.08l-9.14-12.8a2.59 2.59 0 0 0 -2.1-1.07 3 3 0 0 0 -.42 0 2.58 2.58 0 0 0 -2 1.8l-6.89 22.32a2.58 2.58 0 0 0 1 2.89l21.83 14.55a5.16 5.16 0 0 1 2.29 4.29v20.61a5.15 5.15 0 0 1 -5.12 5.14 5.16 5.16 0 0 1 -5.13-5.14v-16.48a2.56 2.56 0 0 0 -1.15-2.14l-15.44-10.3a2.55 2.55 0 0 0 -1.43-.43 2.65 2.65 0 0 0 -1.22.3 2.54 2.54 0 0 0 -1.35 2.27v19.05a5.15 5.15 0 0 1 -.45 2.08l-10.3 23.18a5.15 5.15 0 0 1 -4.71 3.06 5 5 0 0 1 -2.09-.45 5.15 5.15 0 0 1 -3.06-4.71 5 5 0 0 1 .45-2.08l9.63-21.68.23-1v-31.7a2 2 0 0 0 0-.27 7.84 7.84 0 0 1 .25-2l6.9-22.73a2.56 2.56 0 0 0 -.9-2.79 2.58 2.58 0 0 0 -2.93-.14l-13.6 8.57a2.59 2.59 0 0 0 -.94 1l-9.65 19.34v.09a2.58 2.58 0 0 1 -2.26 1.33zm26.92 59.22c.18-.31.36-.63.52-1l10.3-23.17a10.42 10.42 0 0 0 .88-4.18v-14.21l10.31 6.87v15.1a10.2 10.2 0 0 0 1.54 5.36 2.81 2.81 0 0 0 -.79.53 2.62 2.62 0 0 0 -.75 1.82v12.88z"/></g></svg>