<svg viewBox="0 0 250 250" xmlns="http://www.w3.org/2000/svg" xmlns:xlink="http://www.w3.org/1999/xlink"><linearGradient id="a" gradientUnits="userSpaceOnUse" x2="195.78" y1="97.89" y2="97.89"><stop offset="0" stop-color="#e5e1e6"/><stop offset=".28" stop-color="#f2f1f3"/><stop offset=".62" stop-color="#fcfbfc"/><stop offset="1" stop-color="#fff"/></linearGradient><linearGradient id="b" gradientUnits="userSpaceOnUse" x1="112.89" x2="250.7" y1="111.5" y2="249.3"><stop offset=".13" stop-color="#a191b2"/><stop offset=".16" stop-color="#a191b2" stop-opacity=".91"/><stop offset=".27" stop-color="#a191b2" stop-opacity=".64"/><stop offset=".38" stop-color="#a191b2" stop-opacity=".41"/><stop offset=".48" stop-color="#a191b2" stop-opacity=".23"/><stop offset=".58" stop-color="#a191b2" stop-opacity=".1"/><stop offset=".67" stop-color="#a191b2" stop-opacity=".03"/><stop offset=".76" stop-color="#a191b2" stop-opacity="0"/></linearGradient><circle cx="103.92" cy="100.9" fill="#c6bbd0" r="97.89"/><circle cx="103.92" cy="100.9" fill="#c6bbd0" r="97.89"/><circle cx="97.89" cy="97.89" fill="url(#a)" r="97.89"/><path d="m250 250v-139.5l-68.06-68a97.43 97.43 0 0 1 19.27 55.6c1.47 54.24-42.63 100.07-96.88 100.6a97.48 97.48 0 0 1 -53.47-15.28l-.16.22 62.6 66.36z" fill="url(#b)" opacity=".5"/><path d="m94.15 135.51h9.53a3.46 3.46 0 0 0 2.71-1.33h-15a3.44 3.44 0 0 0 2.76 1.33z" fill="none"/><path d="m103.68 139.28h-9.53a7.17 7.17 0 0 1 -6.88-5.1h-50v2.82a4.17 4.17 0 0 0 4.17 4.17h115a4.18 4.18 0 0 0 4.18-4.17v-2.79h-50.05a7.21 7.21 0 0 1 -6.89 5.07z" fill="none"/><g fill="#7c6990"><path d="m162.5 129.41h-5.31a8 8 0 0 0 .47-2.7v-58.71a8.22 8.22 0 0 0 -8.21-8.21h-34.45v5.77h34.48a2.45 2.45 0 0 1 2.41 2.44v58.68a2.44 2.44 0 0 1 -2.44 2.43h-101.06a2.43 2.43 0 0 1 -2.39-2.4v-58.71a2.44 2.44 0 0 1 2.44-2.44h37.14v-5.74h-37.19a8.22 8.22 0 0 0 -8.21 8.18v58.68a8 8 0 0 0 .47 2.7h-5.31a2.89 2.89 0 0 0 -2.89 2.88v4.74a9 9 0 0 0 8.94 8.94h115.05a9 9 0 0 0 8.94-8.94v-4.68a2.88 2.88 0 0 0 -2.88-2.91zm-68.79 8.59h10.29c2.81 0 4.72 0 5.85-2.85h49.78v1.85a3.18 3.18 0 0 1 -3.18 3.17h-115a3.17 3.17 0 0 1 -3.23-3.17v-1.79h49.78c1.11 2.79 3 2.79 5.71 2.79z"/><path d="m128.71 93.55a49.56 49.56 0 0 1 -6.86-2.78c-1.09-.5-2.24-1-3.49-1.58a15.24 15.24 0 0 1 -6.74-5.14 2.8 2.8 0 0 0 -3.55-.84 2.89 2.89 0 0 0 -.73.56l-.19.18-7.8 8-8.08-8.54a2.77 2.77 0 0 0 -3-.67 2.81 2.81 0 0 0 -1.27 1l-.21.25a15.37 15.37 0 0 1 -6.79 5.09c-1.27.54-2.42 1.07-3.51 1.56a49.69 49.69 0 0 1 -6.89 2.75 10.73 10.73 0 0 0 -7.76 10.17v24.82a2.76 2.76 0 0 0 2.75 2.76 2.75 2.75 0 0 0 2.75-2.75v-24.82a5.2 5.2 0 0 1 3.8-4.9 55.34 55.34 0 0 0 7.63-3l.42-.19a20 20 0 0 0 1.14 4.91 8 8 0 0 0 -2.5 8l1 3.21a5.62 5.62 0 0 0 2.91 3.77 5.25 5.25 0 0 0 2.35.57 5 5 0 0 0 1.94-.39l1.41-.6-.52-1.22-.2-.49-1-2.3-1.41.6a.7.7 0 0 1 -.61-.05 1.33 1.33 0 0 1 -.66-.94l-1-3.21a3.62 3.62 0 0 1 1.16-3.71l.75-.41a3.5 3.5 0 0 1 4.05 1.65l1.9 2.7a1.32 1.32 0 0 1 .17 1.07c0 .15-.07.22-.62.59l-.93.66.33.89s.14.4.35.91.42.92.42.92l.57 1.2 1.47-.82a4.59 4.59 0 0 0 2.57-3.07 5.63 5.63 0 0 0 -.69-4.75l-1.9-2.7a8 8 0 0 0 -7.31-3.76 15.9 15.9 0 0 1 -.93-5v-.17a20.09 20.09 0 0 0 5.94-4.22l7.94 8.4a2.74 2.74 0 0 0 4 0l8-8.11a21.4 21.4 0 0 0 6.94 4.58l1.66.74-2.4 6h-.36a6.49 6.49 0 0 0 -6.43 6.56 6.51 6.51 0 0 0 6.5 6.43h.06a6.49 6.49 0 0 0 4.37-11.23l2.36-5.85a42.92 42.92 0 0 0 5.24 2 5.2 5.2 0 0 1 3.77 4.93v24.75a2.75 2.75 0 0 0 2.75 2.75 2.75 2.75 0 0 0 2.75-2.75v-24.73a10.72 10.72 0 0 0 -7.78-10.24zm-11.81 15.63a2.47 2.47 0 0 1 -1.76.74 2.5 2.5 0 0 1 -1.78-4.25 2.45 2.45 0 0 1 1.75-.74 2.49 2.49 0 0 1 2.5 2.47 2.47 2.47 0 0 1 -.71 1.78zm-34.57-42.52.62.4c.91 4.37 1.69 7.63 5 11 .07.07.13.15.21.22a17.07 17.07 0 0 0 11.06 4.58 20.17 20.17 0 0 0 11.89-4.52l.2-.19c3.43-3.42 4.2-6.72 5.16-11.21.11-.15.21-.31.33-.51l.28-.52.68-8a3.6 3.6 0 0 0 -.61-2.55c-.63-11.11-7.57-18.59-17.43-18.68v2.75-2.71c-9.72.03-16.72 7.47-17.43 18.55a1 1 0 0 1 -.13.15l-.27.3-.18.36c-.38.74-.73 1.44.44 9.35zm.52-.09 2.7-.54zm33.82.09-2.67-.58 2.69.56zm-2.08-10.59 2.74-.1zm-14.76-13.85c7 .07 11.7 5.55 12 14a3.77 3.77 0 0 0 .54 1.75l-.53 6.24a4 4 0 0 0 -.55 1.35c-1 4.79-1.51 6.59-3.83 8.84-.82.67-8.31 6.49-15.44 0-2.33-2.27-2.8-4.07-3.8-8.87a4.22 4.22 0 0 0 -.77-1.71c-.28-2.05-.54-4.27-.6-5.37a4.35 4.35 0 0 0 .88-2.26c.37-8.49 5.11-13.94 12.1-13.97zm-17.59 13.65 2.76.13-2.75-.09z"/></g></svg>