<?xml version="1.0" standalone="no"?>
<!DOCTYPE svg PUBLIC "-//W3C//DTD SVG 20010904//EN"
 "http://www.w3.org/TR/2001/REC-SVG-20010904/DTD/svg10.dtd">
<svg version="1.0" xmlns="http://www.w3.org/2000/svg"
 width="152.000000pt" height="152.000000pt" viewBox="0 0 152.000000 152.000000"
 preserveAspectRatio="xMidYMid meet">
<metadata>
Created by potrace 1.11, written by Peter Selinger 2001-2013
</metadata>
<g transform="translate(0.000000,152.000000) scale(0.100000,-0.100000)"
fill="#000000" stroke="none">
<path d="M536 1502 c-4 -7 -18 -10 -31 -8 -15 3 -24 0 -22 -7 1 -7 -4 -11 -11
-9 -8 1 -11 -2 -8 -7 4 -5 2 -13 -4 -16 -8 -5 -8 -11 -1 -19 6 -7 7 -17 3 -21
-4 -5 -1 -5 6 -1 7 5 15 -1 21 -16 5 -13 20 -34 33 -48 14 -14 23 -31 20 -38
-2 -6 3 -15 12 -18 9 -3 16 -15 16 -25 0 -10 5 -19 11 -19 5 0 8 -4 5 -9 -3
-5 1 -14 9 -21 8 -7 15 -21 15 -32 0 -12 4 -17 12 -12 7 4 8 3 4 -5 -4 -6 -2
-18 4 -26 10 -12 10 -15 -1 -15 -8 0 -6 -5 6 -13 10 -8 15 -19 11 -25 -3 -6
-2 -13 3 -16 5 -3 7 -15 4 -26 -3 -12 0 -20 7 -20 7 0 10 -8 7 -20 -3 -11 -1
-20 3 -20 4 0 6 -9 3 -20 -5 -17 -12 -19 -57 -17 -28 2 -58 7 -65 12 -10 6
-12 4 -6 -6 7 -11 6 -12 -6 -2 -12 10 -18 10 -29 0 -10 -9 -11 -9 -6 1 7 12
-3 16 -36 13 -10 -1 -18 4 -18 11 0 8 -3 9 -8 3 -11 -15 -32 -17 -32 -3 0 9
-4 8 -10 -2 -6 -10 -10 -11 -10 -2 0 18 -14 15 -46 -13 -16 -14 -21 -23 -11
-19 12 4 17 1 17 -14 0 -11 7 -23 16 -26 8 -3 12 -10 9 -16 -3 -5 -1 -10 5
-10 7 0 9 -7 6 -16 -3 -9 -2 -12 5 -9 6 4 13 -2 16 -14 3 -11 8 -19 12 -17 4
3 8 -7 9 -21 1 -15 10 -35 20 -46 9 -10 16 -21 15 -23 -7 -11 11 -63 19 -58 6
4 5 -3 -1 -15 -9 -16 -9 -21 0 -21 8 0 7 -5 -2 -17 -8 -9 -9 -14 -3 -10 8 5
13 -7 16 -38 2 -35 0 -45 -12 -46 -10 0 -8 -3 5 -9 11 -5 15 -9 9 -9 -6 -1
-10 -11 -9 -24 1 -12 -3 -28 -9 -36 -9 -12 -8 -13 4 -6 13 7 13 6 2 -7 -7 -9
-11 -22 -10 -29 2 -8 -3 -13 -11 -11 -12 3 -12 0 -1 -12 8 -11 9 -16 1 -16 -6
0 -11 -9 -11 -21 0 -13 -4 -18 -12 -13 -6 4 -8 3 -5 -4 9 -14 -3 -43 -14 -36
-5 3 -6 -2 -3 -10 3 -9 1 -16 -5 -16 -6 0 -11 -7 -11 -15 0 -9 -7 -18 -16 -22
-8 -3 -13 -12 -10 -19 3 -8 -1 -14 -10 -14 -8 0 -12 -4 -9 -10 3 -5 -1 -10 -9
-10 -9 0 -16 -7 -16 -15 0 -9 -14 -24 -30 -33 -17 -9 -33 -25 -36 -35 -3 -9
-10 -14 -16 -11 -8 5 -9 1 -4 -11 6 -16 4 -16 -11 -4 -9 8 -14 9 -10 2 4 -6 3
-14 -3 -18 -5 -3 -10 -12 -10 -18 0 -8 3 -7 9 2 5 7 13 11 19 7 5 -3 12 1 16
9 3 8 12 12 21 9 8 -3 15 -2 15 4 0 10 47 27 63 23 5 -1 6 3 2 9 -3 6 3 10 15
10 12 0 19 4 16 8 -2 4 5 9 17 9 12 1 23 7 25 13 2 5 8 8 13 4 5 -3 9 0 9 6 0
7 7 9 16 6 8 -3 12 -2 9 4 -3 6 -1 11 4 11 6 1 17 2 24 3 6 1 11 8 9 15 -1 7
2 10 7 7 5 -4 12 -2 16 4 4 6 11 8 16 5 5 -4 12 1 15 9 3 9 10 13 15 10 5 -3
9 0 9 6 0 7 7 10 15 7 8 -4 17 -1 21 5 4 7 3 8 -4 4 -7 -4 -12 -5 -12 -2 0 8
63 41 73 38 5 -1 6 2 2 8 -3 5 -2 10 4 10 6 0 20 10 32 23 12 12 19 15 15 7
-5 -9 -2 -8 7 3 8 9 19 17 25 17 6 0 16 9 22 20 6 11 14 19 18 16 10 -6 32 21
24 30 -4 4 1 4 11 1 10 -4 16 -3 14 1 -3 4 1 13 9 20 8 7 14 10 14 7 0 -3 6 0
14 7 8 7 12 16 9 21 -2 4 1 7 6 7 6 0 31 20 55 44 25 24 47 41 50 38 4 -3 6 5
6 17 0 12 4 19 10 16 6 -3 10 -1 10 5 0 6 5 8 10 5 6 -4 9 -2 8 4 -2 5 6 17
17 26 11 9 13 13 5 10 -8 -4 -1 6 16 21 18 16 35 39 39 52 3 12 13 22 21 22
13 0 19 12 15 33 -1 5 2 6 7 3 5 -3 19 13 31 34 12 22 27 40 32 40 6 0 9 6 7
12 -3 7 5 21 16 31 12 10 14 15 6 12 -8 -4 -2 4 14 19 17 16 23 26 15 26 -10
1 -10 4 3 14 10 7 15 16 11 19 -3 4 -1 7 6 7 8 0 11 7 7 15 -3 10 1 15 11 15
9 0 14 3 10 6 -3 4 1 20 9 36 9 17 17 39 20 51 2 11 9 24 16 29 9 5 9 8 1 8
-6 0 -9 9 -6 20 3 11 9 18 12 15 4 -2 8 2 8 10 0 8 -5 11 -11 8 -6 -3 -5 0 2
8 14 16 16 49 2 49 -5 0 -10 7 -10 16 0 8 -4 12 -10 9 -5 -3 -10 1 -10 9 0 10
-6 13 -17 9 -11 -4 -14 -3 -9 5 6 11 -5 17 -26 13 -5 0 -8 4 -8 10 0 6 -6 9
-12 6 -7 -2 -19 3 -26 12 -8 9 -11 10 -7 4 3 -7 1 -13 -4 -13 -6 0 -11 6 -11
13 0 8 -7 14 -15 15 -8 1 -22 3 -30 4 -8 1 -15 6 -15 11 0 6 -3 7 -7 4 -3 -4
-17 0 -31 9 -13 9 -21 11 -18 5 5 -7 1 -9 -8 -5 -9 3 -16 10 -16 15 0 5 -5 9
-11 9 -5 0 -7 -6 -3 -12 6 -9 3 -9 -9 0 -9 8 -20 11 -26 8 -5 -4 -15 0 -23 7
-7 7 -23 12 -35 11 -12 -1 -24 5 -28 13 -3 10 -13 13 -29 9 -28 -7 -88 3 -81
13 2 4 -16 7 -41 6 -24 -1 -44 2 -44 6 0 5 -7 5 -17 2 -9 -4 -14 -2 -10 3 3 6
-13 8 -39 7 -32 -2 -43 1 -38 9 5 7 3 8 -6 3 -19 -12 -119 -12 -123 0 -2 5 -7
4 -11 -3z"/>
</g>
</svg>
